# This file uses centimeters as units for non-parametric coordinates.

mtllib Barricade.mtl
g default
v 0.528407 -0.035601 2.893796
v 0.681990 -0.035601 2.893796
v 0.528407 2.725296 1.350792
v 0.681990 2.725296 1.350792
v 0.528407 2.170841 1.301039
v 0.681990 2.170841 1.301039
v 0.528407 -0.015018 2.190679
v 0.681990 -0.015018 2.190679
v 0.717184 0.017879 -0.405906
v 0.563613 0.018225 -0.407783
v 0.709444 2.749849 1.216645
v 0.555873 2.750195 1.214767
v 0.700344 2.170495 1.302916
v 0.546773 2.170841 1.301039
v 0.708084 0.044817 0.277795
v 0.554513 0.045163 0.275918
v -5.581375 3.023620 1.150302
v -5.585707 3.025201 1.303815
v 0.834309 2.956790 1.217537
v 0.829976 2.958369 1.371052
v 0.812598 2.148636 1.224739
v 0.808265 2.150217 1.378253
v -5.603089 2.215466 1.157502
v -5.607421 2.217047 1.311017
v 0.071825 2.964733 1.209547
v 0.050114 2.156578 1.216748
v 0.045781 2.158159 1.370262
v 0.067492 2.966312 1.363061
v -0.857062 2.974409 1.199812
v -0.878773 2.166254 1.207013
v -0.883106 2.167835 1.360527
v -0.861394 2.975988 1.353326
v -1.899647 2.985269 1.188886
v -1.921359 2.177114 1.196087
v -1.925692 2.178696 1.349601
v -1.903979 2.986849 1.342400
v -2.687534 2.993476 1.180629
v -2.709247 2.185321 1.187830
v -2.713580 2.186903 1.341344
v -2.691866 2.995056 1.334143
v -3.738068 3.004419 1.169620
v -3.759782 2.196265 1.176820
v -3.764115 2.197846 1.330334
v -3.742401 3.006000 1.323133
v -4.440189 3.011733 1.162261
v -4.461903 2.203578 1.169462
v -4.466236 2.205160 1.322976
v -4.444522 3.013314 1.315775
v -5.124672 3.018863 1.155088
v -5.146385 2.210708 1.162289
v -5.150718 2.212290 1.315803
v -5.129004 3.020444 1.308601
v 0.485293 0.595687 2.369246
v 0.524853 0.595038 2.369697
v 0.488593 0.796918 2.369132
v 0.528152 0.796270 2.369583
v 0.513833 0.795252 0.153481
v 0.553393 0.794604 0.153932
v 0.510533 0.594021 0.153594
v 0.550093 0.593372 0.154046
v -5.484068 -0.035602 2.893797
v -5.330485 -0.035602 2.893797
v -5.484068 2.725295 1.350794
v -5.330485 2.725295 1.350794
v -5.484068 2.170841 1.301039
v -5.330485 2.170841 1.301039
v -5.484068 -0.015018 2.190681
v -5.330485 -0.015018 2.190681
v -5.333323 0.595687 2.369246
v -5.293764 0.595038 2.369697
v -5.330023 0.796918 2.369132
v -5.290466 0.796269 2.369584
v -5.304783 0.795252 0.153480
v -5.265220 0.794603 0.153932
v -5.308083 0.594021 0.153594
v -5.268526 0.593372 0.154045
v -5.295291 0.017878 -0.405906
v -5.448862 0.018224 -0.407783
v -5.303030 2.749848 1.216645
v -5.456602 2.750195 1.214767
v -5.312130 2.170495 1.302916
v -5.465699 2.170841 1.301039
v -5.304391 0.044817 0.277795
v -5.457959 0.045163 0.275918
vt 0.607888 0.292441
vt 0.607888 0.292441
vt 0.722314 0.497183
vt 0.722314 0.497183
vt 0.726003 0.456066
vt 0.726003 0.456066
vt 0.660029 0.293967
vt 0.660029 0.293967
vt 0.792649 0.210937
vt 0.792864 0.210976
vt 0.606720 0.524397
vt 0.606504 0.524357
vt 0.596823 0.457931
vt 0.596607 0.457892
vt 0.714428 0.214067
vt 0.714212 0.214027
vt 0.770210 0.213242
vt 0.776769 0.213242
vt 0.776421 0.232742
vt 0.769862 0.232742
vt 0.778473 0.213242
vt 0.785032 0.213242
vt 0.785010 0.247769
vt 0.778452 0.247769
vt 0.756732 0.467668
vt 0.763291 0.467668
vt 0.763639 0.487168
vt 0.757080 0.487168
vt 0.787036 0.213242
vt 0.793595 0.213242
vt 0.793617 0.247769
vt 0.787058 0.247769
vt 0.071402 0.961998
vt 0.068830 0.866299
vt 0.122912 0.865735
vt 0.125483 0.961435
vt 0.075232 0.729001
vt 0.077644 0.818789
vt 0.128385 0.818260
vt 0.125973 0.728472
vt 0.703316 0.722458
vt 0.705729 0.812246
vt 0.790442 0.811364
vt 0.788030 0.721576
vt 0.752192 0.213242
vt 0.758751 0.213242
vt 0.759332 0.245798
vt 0.752773 0.245798
vt 0.740839 0.955025
vt 0.738268 0.859325
vt 0.828559 0.858385
vt 0.831130 0.954084
vt 0.765903 0.454613
vt 0.772462 0.454613
vt 0.771881 0.487168
vt 0.765322 0.487168
vt 0.600115 0.723533
vt 0.602527 0.813321
vt 0.760040 0.285458
vt 0.753481 0.285458
vt 0.630843 0.956171
vt 0.628272 0.860471
vt 0.766611 0.414953
vt 0.773169 0.414953
vt 0.484281 0.724740
vt 0.486693 0.814528
vt 0.760834 0.329972
vt 0.754275 0.329972
vt 0.507382 0.957457
vt 0.504811 0.861757
vt 0.767405 0.370438
vt 0.773964 0.370438
vt 0.396745 0.725652
vt 0.399157 0.815440
vt 0.761434 0.363612
vt 0.754875 0.363612
vt 0.414083 0.958429
vt 0.411512 0.862729
vt 0.768005 0.336798
vt 0.774564 0.336798
vt 0.280028 0.726868
vt 0.282440 0.816656
vt 0.762235 0.408466
vt 0.755676 0.408466
vt 0.289681 0.959725
vt 0.287110 0.864025
vt 0.768806 0.291945
vt 0.775364 0.291945
vt 0.202020 0.727680
vt 0.204433 0.817468
vt 0.762770 0.438444
vt 0.756211 0.438444
vt 0.206538 0.960591
vt 0.203967 0.864891
vt 0.769340 0.261967
vt 0.775899 0.261967
vt 0.646787 0.339256
vt 0.646754 0.339208
vt 0.646762 0.354131
vt 0.646796 0.354179
vt 0.811070 0.354007
vt 0.811104 0.354055
vt 0.811062 0.339084
vt 0.811095 0.339132
vt -0.268744 0.214365
vt -0.268744 0.214365
vt -0.108440 0.501197
vt -0.108440 0.501197
vt -0.103271 0.443594
vt -0.103271 0.443594
vt -0.195696 0.216504
vt -0.195696 0.216504
vt 0.607670 0.374805
vt 0.607622 0.374735
vt 0.607634 0.396227
vt 0.607682 0.396296
vt 0.844262 0.396049
vt 0.844310 0.396118
vt 0.844250 0.374557
vt 0.844298 0.374627
vt 0.879608 0.236011
vt 0.879807 0.236048
vt 0.707672 0.525880
vt 0.707473 0.525843
vt 0.698520 0.464417
vt 0.698321 0.464380
vt 0.807274 0.238906
vt 0.807075 0.238869
vn 0.000000 0.487858 0.872923
vn 0.000000 0.487858 0.872923
vn 0.000000 0.487858 0.872923
vn 0.000000 0.487858 0.872923
vn 0.000000 0.089375 -0.995998
vn 0.000000 0.089375 -0.995998
vn 0.000000 0.089375 -0.995998
vn 0.000000 0.089375 -0.995998
vn 0.000000 -0.376972 -0.926225
vn 0.000000 -0.376972 -0.926225
vn 0.000000 -0.376972 -0.926225
vn 0.000000 -0.376972 -0.926225
vn 0.000000 -0.999572 -0.029263
vn 0.000000 -0.999572 -0.029263
vn 0.000000 -0.999572 -0.029263
vn 0.000000 -0.999572 -0.029263
vn 1.000000 0.000000 0.000000
vn 1.000000 0.000000 0.000000
vn 1.000000 0.000000 0.000000
vn 1.000000 0.000000 0.000000
vn -1.000000 -0.000000 0.000000
vn -1.000000 -0.000000 0.000000
vn -1.000000 -0.000000 0.000000
vn -1.000000 -0.000000 0.000000
vn 0.011660 0.510632 -0.859721
vn 0.011660 0.510632 -0.859721
vn 0.011660 0.510632 -0.859721
vn 0.011660 0.510632 -0.859721
vn -0.011757 0.147456 0.988999
vn -0.011757 0.147456 0.988999
vn -0.011757 0.147456 0.988999
vn -0.011757 0.147456 0.988999
vn -0.011987 -0.434386 0.900647
vn -0.011987 -0.434386 0.900647
vn -0.011987 -0.434386 0.900647
vn -0.011987 -0.434386 0.900647
vn -0.002732 -0.999222 0.039334
vn -0.002732 -0.999222 0.039334
vn -0.002732 -0.999222 0.039334
vn -0.002732 -0.999222 0.039334
vn -0.999802 0.006970 -0.018633
vn -0.999802 0.006970 -0.018633
vn -0.999802 0.006970 -0.018633
vn -0.999802 0.006970 -0.018633
vn 0.999802 -0.006970 0.018633
vn 0.999802 -0.006970 0.018633
vn 0.999802 -0.006970 0.018633
vn 0.999802 -0.006970 0.018633
vn 0.010520 0.999895 -0.010001
vn 0.010520 0.999895 -0.010001
vn 0.010520 0.999895 -0.010000
vn 0.010520 0.999895 -0.010000
vn 0.999241 -0.026591 0.028477
vn 0.999241 -0.026591 0.028477
vn 0.999241 -0.026591 0.028477
vn 0.999241 -0.026591 0.028477
vn -0.010520 -0.999895 0.010005
vn -0.010520 -0.999895 0.010005
vn -0.010520 -0.999895 0.010006
vn -0.010520 -0.999895 0.010006
vn -0.999241 0.026595 -0.028472
vn -0.999241 0.026595 -0.028472
vn -0.999241 0.026595 -0.028472
vn -0.999241 0.026595 -0.028472
vn -0.010383 0.009190 0.999904
vn -0.010383 0.009190 0.999904
vn -0.010383 0.009190 0.999904
vn -0.010383 0.009190 0.999904
vn 0.010383 -0.009188 -0.999904
vn 0.010383 -0.009188 -0.999904
vn 0.010383 -0.009188 -0.999904
vn 0.010383 -0.009188 -0.999904
vn 0.010383 -0.009189 -0.999904
vn 0.010383 -0.009189 -0.999904
vn 0.010383 -0.009189 -0.999904
vn 0.010383 -0.009189 -0.999904
vn -0.010520 -0.999895 0.010000
vn -0.010520 -0.999895 0.010000
vn -0.010520 -0.999895 0.010002
vn -0.010520 -0.999895 0.010002
vn -0.010383 0.009188 0.999904
vn -0.010383 0.009188 0.999904
vn -0.010383 0.009188 0.999904
vn -0.010383 0.009188 0.999904
vn 0.010521 0.999895 -0.009993
vn 0.010521 0.999895 -0.009993
vn 0.010521 0.999895 -0.009993
vn 0.010521 0.999895 -0.009993
vn 0.010383 -0.009189 -0.999904
vn 0.010383 -0.009189 -0.999904
vn -0.010520 -0.999895 0.010002
vn -0.010520 -0.999895 0.010002
vn -0.010383 0.009189 0.999904
vn -0.010383 0.009189 0.999904
vn 0.010520 0.999895 -0.009993
vn 0.010520 0.999895 -0.009993
vn 0.010383 -0.009189 -0.999904
vn 0.010383 -0.009189 -0.999904
vn -0.010520 -0.999895 0.010003
vn -0.010520 -0.999895 0.010003
vn -0.010383 0.009189 0.999904
vn -0.010383 0.009189 0.999904
vn 0.010520 0.999895 -0.009994
vn 0.010520 0.999895 -0.009994
vn 0.010383 -0.009188 -0.999904
vn 0.010383 -0.009188 -0.999904
vn -0.010520 -0.999895 0.010003
vn -0.010520 -0.999895 0.010003
vn -0.010383 0.009189 0.999904
vn -0.010383 0.009189 0.999904
vn 0.010521 0.999895 -0.009996
vn 0.010521 0.999895 -0.009996
vn 0.010383 -0.009188 -0.999904
vn 0.010383 -0.009188 -0.999904
vn -0.010521 -0.999895 0.010003
vn -0.010521 -0.999895 0.010003
vn -0.010383 0.009189 0.999904
vn -0.010383 0.009189 0.999904
vn 0.010521 0.999895 -0.009996
vn 0.010521 0.999895 -0.009996
vn 0.010383 -0.009188 -0.999904
vn 0.010383 -0.009188 -0.999904
vn -0.010520 -0.999895 0.010004
vn -0.010520 -0.999895 0.010004
vn -0.010383 0.009189 0.999904
vn -0.010383 0.009189 0.999904
vn 0.010521 0.999895 -0.009998
vn 0.010521 0.999895 -0.009998
vn -0.011388 0.000753 0.999935
vn -0.011388 0.000753 0.999935
vn -0.011388 0.000753 0.999935
vn -0.011388 0.000753 0.999935
vn 0.016399 0.999865 -0.000565
vn 0.016399 0.999865 -0.000565
vn 0.016399 0.999865 -0.000565
vn 0.016399 0.999865 -0.000565
vn 0.011393 -0.000752 -0.999935
vn 0.011393 -0.000752 -0.999935
vn 0.011393 -0.000752 -0.999935
vn 0.011393 -0.000752 -0.999935
vn -0.016395 -0.999866 0.000565
vn -0.016395 -0.999865 0.000565
vn -0.016395 -0.999865 0.000565
vn -0.016395 -0.999866 0.000565
vn 0.999801 -0.016389 0.011402
vn 0.999801 -0.016389 0.011402
vn 0.999801 -0.016389 0.011402
vn 0.999801 -0.016389 0.011402
vn -0.999801 0.016389 -0.011402
vn -0.999801 0.016389 -0.011402
vn -0.999801 0.016389 -0.011402
vn -0.999801 0.016389 -0.011402
vn 0.000000 0.487856 0.872924
vn 0.000000 0.487856 0.872924
vn 0.000000 0.487856 0.872924
vn 0.000000 0.487856 0.872924
vn 0.000000 0.089378 -0.995998
vn 0.000000 0.089378 -0.995998
vn 0.000000 0.089378 -0.995998
vn 0.000000 0.089378 -0.995998
vn 0.000000 -0.376973 -0.926224
vn 0.000000 -0.376973 -0.926224
vn 0.000000 -0.376973 -0.926224
vn 0.000000 -0.376973 -0.926224
vn 0.000000 -0.999572 -0.029263
vn 0.000000 -0.999572 -0.029263
vn 0.000000 -0.999572 -0.029263
vn 0.000000 -0.999572 -0.029263
vn 1.000000 0.000001 0.000000
vn 1.000000 0.000001 0.000000
vn 1.000000 0.000001 0.000000
vn 1.000000 0.000001 0.000000
vn -1.000000 0.000000 0.000000
vn -1.000000 0.000000 0.000000
vn -1.000000 0.000000 0.000000
vn -1.000000 0.000000 0.000000
vn -0.011396 0.000752 0.999935
vn -0.011396 0.000752 0.999935
vn -0.011396 0.000752 0.999935
vn -0.011396 0.000752 0.999935
vn 0.016399 0.999865 -0.000565
vn 0.016399 0.999865 -0.000565
vn 0.016399 0.999865 -0.000565
vn 0.016399 0.999865 -0.000565
vn 0.011397 -0.000753 -0.999935
vn 0.011397 -0.000753 -0.999935
vn 0.011397 -0.000753 -0.999935
vn 0.011397 -0.000753 -0.999935
vn -0.016398 -0.999865 0.000565
vn -0.016398 -0.999865 0.000565
vn -0.016398 -0.999865 0.000565
vn -0.016398 -0.999865 0.000565
vn 0.999801 -0.016395 0.011403
vn 0.999801 -0.016395 0.011403
vn 0.999801 -0.016395 0.011403
vn 0.999801 -0.016395 0.011403
vn -0.999801 0.016389 -0.011402
vn -0.999801 0.016389 -0.011402
vn -0.999801 0.016389 -0.011402
vn -0.999801 0.016389 -0.011402
vn 0.011659 0.510632 -0.859720
vn 0.011659 0.510632 -0.859720
vn 0.011659 0.510632 -0.859720
vn 0.011659 0.510632 -0.859720
vn -0.011757 0.147456 0.988999
vn -0.011757 0.147456 0.988999
vn -0.011757 0.147456 0.988999
vn -0.011757 0.147456 0.988999
vn -0.011987 -0.434386 0.900647
vn -0.011987 -0.434386 0.900647
vn -0.011987 -0.434386 0.900647
vn -0.011987 -0.434386 0.900647
vn -0.002729 -0.999222 0.039335
vn -0.002729 -0.999222 0.039335
vn -0.002729 -0.999222 0.039335
vn -0.002729 -0.999222 0.039335
vn -0.999802 0.006967 -0.018627
vn -0.999802 0.006967 -0.018627
vn -0.999802 0.006967 -0.018627
vn -0.999802 0.006967 -0.018627
vn 0.999802 -0.006970 0.018633
vn 0.999802 -0.006970 0.018633
vn 0.999802 -0.006970 0.018633
vn 0.999802 -0.006970 0.018633
s off
g polySurface1
usemtl lambert3SG
f 1/1/1 2/2/2 4/3/3 3/4/4
f 3/4/5 4/3/6 6/5/7 5/6/8
f 5/6/9 6/5/10 8/7/11 7/8/12
f 7/8/13 8/7/14 2/2/15 1/1/16
f 2/2/17 8/7/18 6/5/19 4/3/20
f 7/8/21 1/1/22 3/4/23 5/6/24
f 9/9/25 10/10/26 12/11/27 11/12/28
f 11/12/29 12/11/30 14/13/31 13/14/32
f 13/14/33 14/13/34 16/15/35 15/16/36
f 15/16/37 16/15/38 10/10/39 9/9/40
f 10/10/41 16/15/42 14/13/43 12/11/44
f 15/16/45 9/9/46 11/12/47 13/14/48
s 1
f 17/17/49 18/18/50 52/19/51 49/20/52
s off
f 19/21/53 20/22/54 22/23/55 21/24/56
s 2
f 50/25/57 51/26/58 24/27/59 23/28/60
s off
f 23/29/61 24/30/62 18/31/63 17/32/64
s 3
f 18/33/65 24/34/66 51/35/67 52/36/68
s 4
f 23/37/69 17/38/70 49/39/71 50/40/72
f 26/41/73 25/42/74 19/43/75 21/44/76
s 2
f 21/45/77 22/46/78 27/47/79 26/48/80
s 3
f 28/49/81 27/50/82 22/51/83 20/52/84
s 1
f 25/53/85 28/54/86 20/55/87 19/56/88
s 4
f 30/57/89 29/58/90 25/42/74 26/41/73
s 2
f 26/48/80 27/47/79 31/59/91 30/60/92
s 3
f 32/61/93 31/62/94 27/50/82 28/49/81
s 1
f 29/63/95 32/64/96 28/54/86 25/53/85
s 4
f 34/65/97 33/66/98 29/58/90 30/57/89
s 2
f 30/60/92 31/59/91 35/67/99 34/68/100
s 3
f 36/69/101 35/70/102 31/62/94 32/61/93
s 1
f 33/71/103 36/72/104 32/64/96 29/63/95
s 4
f 38/73/105 37/74/106 33/66/98 34/65/97
s 2
f 34/68/100 35/67/99 39/75/107 38/76/108
s 3
f 40/77/109 39/78/110 35/70/102 36/69/101
s 1
f 37/79/111 40/80/112 36/72/104 33/71/103
s 4
f 42/81/113 41/82/114 37/74/106 38/73/105
s 2
f 38/76/108 39/75/107 43/83/115 42/84/116
s 3
f 44/85/117 43/86/118 39/78/110 40/77/109
s 1
f 41/87/119 44/88/120 40/80/112 37/79/111
s 4
f 46/89/121 45/90/122 41/82/114 42/81/113
s 2
f 42/84/116 43/83/115 47/91/123 46/92/124
s 3
f 48/93/125 47/94/126 43/86/118 44/85/117
s 1
f 45/95/127 48/96/128 44/88/120 41/87/119
s 4
f 50/40/72 49/39/71 45/90/122 46/89/121
s 2
f 46/92/124 47/91/123 51/26/58 50/25/57
s 3
f 52/36/68 51/35/67 47/94/126 48/93/125
s 1
f 49/20/52 52/19/51 48/96/128 45/95/127
s off
f 53/97/129 54/98/130 56/99/131 55/100/132
f 55/100/133 56/99/134 58/101/135 57/102/136
f 57/102/137 58/101/138 60/103/139 59/104/140
f 59/104/141 60/103/142 54/98/143 53/97/144
f 54/98/145 60/103/146 58/101/147 56/99/148
f 59/104/149 53/97/150 55/100/151 57/102/152
f 61/105/153 62/106/154 64/107/155 63/108/156
f 63/108/157 64/107/158 66/109/159 65/110/160
f 65/110/161 66/109/162 68/111/163 67/112/164
f 67/112/165 68/111/166 62/106/167 61/105/168
f 62/106/169 68/111/170 66/109/171 64/107/172
f 67/112/173 61/105/174 63/108/175 65/110/176
f 69/113/177 70/114/178 72/115/179 71/116/180
f 71/116/181 72/115/182 74/117/183 73/118/184
f 73/118/185 74/117/186 76/119/187 75/120/188
f 75/120/189 76/119/190 70/114/191 69/113/192
f 70/114/193 76/119/194 74/117/195 72/115/196
f 75/120/197 69/113/198 71/116/199 73/118/200
f 77/121/201 78/122/202 80/123/203 79/124/204
f 79/124/205 80/123/206 82/125/207 81/126/208
f 81/126/209 82/125/210 84/127/211 83/128/212
f 83/128/213 84/127/214 78/122/215 77/121/216
f 78/122/217 84/127/218 82/125/219 80/123/220
f 83/128/221 77/121/222 79/124/223 81/126/224
