# This file uses centimeters as units for non-parametric coordinates.

mtllib Bench.mtl
g default
v -0.372958 0.000000 1.000000
v 0.000000 0.000000 1.000000
v -0.372958 0.302378 1.000000
v 0.000000 0.302378 1.000000
v -0.372958 0.302378 0.885043
v 0.000000 0.302378 0.885043
v -0.372958 0.000000 0.885043
v 0.000000 0.000000 0.885043
v -0.499946 0.302378 1.175149
v 0.090908 0.302378 1.175149
v -0.499946 0.395631 1.175149
v 0.090908 0.395631 1.175149
v -0.499946 0.395631 -1.164777
v 0.090908 0.395631 -1.164777
v -0.499946 0.302378 -1.164777
v 0.090908 0.302378 -1.164777
v -0.499946 0.395631 -0.384802
v -0.499946 0.302378 -0.721860
v 0.090908 0.302378 -0.231929
v 0.090908 0.395631 -0.691726
v -0.499946 0.395631 0.636302
v -0.499946 0.302378 0.176658
v 0.090908 0.302378 0.395174
v 0.090908 0.395631 0.758451
v -0.372958 0.000000 -0.884850
v 0.000000 0.000000 -0.884850
v -0.372958 0.302378 -0.884850
v 0.000000 0.302378 -0.884850
v -0.372958 0.302378 -0.999807
v 0.000000 0.302378 -0.999807
v -0.372958 0.000000 -0.999807
v 0.000000 0.000000 -0.999807
v -0.499946 0.395631 -0.852241
v -0.499946 0.302378 -0.987300
v 0.090908 0.302378 -0.790985
v 0.090908 0.395631 -0.975225
v -0.499946 0.395631 -0.190108
v -0.499946 0.302378 -0.185662
v 0.090908 0.302378 0.142300
v 0.090908 0.395631 0.173680
v -0.499946 0.395631 1.135154
v -0.499946 0.302378 0.862688
v 0.090908 0.302378 0.931069
v 0.090908 0.395631 0.781809
vt 0.105175 0.011448
vt 0.197170 0.011448
vt 0.105175 0.103444
vt 0.197170 0.103444
vt 0.105175 0.195440
vt 0.197170 0.195440
vt 0.105175 0.287436
vt 0.197170 0.287436
vt 0.105175 0.379432
vt 0.197170 0.379432
vt 0.289166 0.011448
vt 0.289166 0.103444
vt 0.013179 0.011448
vt 0.013179 0.103444
vt 0.222452 0.984791
vt 0.034955 0.814494
vt 0.061833 0.784901
vt 0.249330 0.955199
vt 0.249650 0.953952
vt 0.062497 0.784439
vt 0.919778 0.211307
vt 0.733422 0.042080
vt 0.197170 0.287436
vt 0.105175 0.287436
vt 0.105175 0.348766
vt 0.197170 0.348766
vt 0.197170 0.379432
vt 0.105175 0.379432
vt 0.032959 0.757685
vt 0.256730 0.510627
vt 0.565651 0.664434
vt 0.279188 0.980706
vt 0.704273 0.016512
vt 0.603593 0.563177
vt 0.950502 0.239533
vt 0.823431 0.379828
vt 0.197170 0.318101
vt 0.105175 0.318101
vt 0.182045 0.652450
vt 0.946487 0.181894
vt 0.598094 0.193105
vt 0.436643 0.311992
vt 0.760131 0.012667
vt 0.733811 0.043266
vt 0.105175 0.011448
vt 0.197170 0.011448
vt 0.197170 0.103444
vt 0.105175 0.103444
vt 0.197170 0.195440
vt 0.105175 0.195440
vt 0.197170 0.287436
vt 0.105175 0.287436
vt 0.197170 0.379432
vt 0.105175 0.379432
vt 0.289166 0.011448
vt 0.289166 0.103444
vt 0.013179 0.011448
vt 0.013179 0.103444
vt 0.697193 0.459837
vt 0.920964 0.212780
vt 0.831299 0.311775
vt 0.899585 0.295749
vt 0.105175 0.299723
vt 0.197170 0.299723
vt 0.597033 0.134911
vt 0.679429 0.103307
vt 0.641336 0.521506
vt 0.669599 0.549669
vt 0.105175 0.336401
vt 0.197170 0.336401
vt 0.329278 0.430529
vt 0.349814 0.467223
vt 0.360410 0.831666
vt 0.368832 0.881734
vt 0.105175 0.369835
vt 0.197170 0.369835
vt 0.102984 0.680372
vt 0.099907 0.743135
vn 0.000000 0.000000 1.000000
vn 0.000000 0.000000 1.000000
vn 0.000000 0.000000 1.000000
vn 0.000000 0.000000 1.000000
vn 0.000000 1.000000 0.000000
vn 0.000000 1.000000 0.000000
vn 0.000000 1.000000 0.000000
vn 0.000000 1.000000 0.000000
vn 0.000000 0.000000 -1.000000
vn 0.000000 0.000000 -1.000000
vn 0.000000 0.000000 -1.000000
vn 0.000000 0.000000 -1.000000
vn 0.000000 -1.000000 0.000000
vn 0.000000 -1.000000 0.000000
vn 0.000000 -1.000000 0.000000
vn 0.000000 -1.000000 0.000000
vn 1.000000 0.000000 0.000000
vn 1.000000 0.000000 0.000000
vn 1.000000 0.000000 0.000000
vn 1.000000 0.000000 0.000000
vn -1.000000 0.000000 0.000000
vn -1.000000 0.000000 0.000000
vn -1.000000 0.000000 0.000000
vn -1.000000 0.000000 0.000000
vn 0.000000 0.000000 1.000000
vn 0.000000 0.000000 1.000000
vn 0.000000 0.000000 1.000000
vn 0.000000 0.000000 1.000000
vn 0.000000 1.000000 0.000000
vn 0.000000 1.000000 0.000000
vn 0.000000 1.000000 0.000000
vn 0.000000 1.000000 0.000000
vn 0.000000 0.000000 -1.000000
vn 0.000000 0.000000 -1.000000
vn 0.000000 0.000000 -1.000000
vn 0.000000 0.000000 -1.000000
vn 0.000000 -1.000000 0.000000
vn 0.000000 -1.000000 0.000000
vn 0.000000 -1.000000 0.000000
vn 0.000000 -1.000000 0.000000
vn 1.000000 -0.000000 0.000000
vn 1.000000 -0.000000 0.000000
vn 1.000000 -0.000000 0.000000
vn 1.000000 -0.000000 0.000000
vn -1.000000 0.000001 0.000000
vn -1.000000 0.000000 0.000000
vn -1.000000 0.000000 0.000000
vn -1.000000 0.000000 0.000000
vn -1.000000 0.000000 0.000000
vn -1.000000 0.000000 0.000000
vn -1.000000 0.000000 0.000000
vn -1.000000 0.000000 0.000000
vn 0.000000 -1.000000 0.000000
vn 0.000000 -1.000000 0.000000
vn 0.000000 -1.000000 0.000000
vn 0.000000 -1.000000 0.000000
vn 1.000000 0.000000 0.000000
vn 1.000000 0.000000 0.000000
vn 1.000000 0.000000 0.000000
vn 1.000000 0.000000 0.000000
vn 0.000000 1.000000 0.000000
vn 0.000000 1.000000 0.000000
vn 0.000000 1.000000 0.000000
vn 0.000000 1.000000 0.000000
vn -1.000000 0.000000 0.000000
vn -1.000000 0.000000 0.000000
vn -1.000000 0.000001 0.000000
vn -1.000000 0.000000 0.000000
vn 0.000000 -1.000000 0.000000
vn 0.000000 -1.000000 0.000000
vn 0.000000 -1.000000 0.000000
vn 0.000000 -1.000000 0.000000
vn 1.000000 -0.000000 0.000000
vn 1.000000 -0.000000 0.000000
vn 1.000000 0.000000 0.000000
vn 1.000000 0.000000 0.000000
vn 0.000000 1.000000 0.000000
vn 0.000000 1.000000 0.000000
vn 0.000000 1.000000 0.000000
vn 0.000000 1.000000 0.000000
vn 0.000000 0.000000 1.000000
vn 0.000000 0.000000 1.000000
vn 0.000000 0.000000 1.000000
vn 0.000000 0.000000 1.000000
vn 0.000000 1.000000 0.000000
vn 0.000000 1.000000 0.000000
vn 0.000000 1.000000 0.000000
vn 0.000000 1.000000 0.000000
vn 0.000000 0.000000 -1.000000
vn 0.000000 0.000000 -1.000000
vn 0.000000 0.000000 -1.000000
vn 0.000000 0.000000 -1.000000
vn 0.000000 -1.000000 0.000000
vn 0.000000 -1.000000 0.000000
vn 0.000000 -1.000000 0.000000
vn 0.000000 -1.000000 0.000000
vn 1.000000 0.000000 0.000000
vn 1.000000 0.000000 0.000000
vn 1.000000 0.000000 0.000000
vn 1.000000 0.000000 0.000000
vn -1.000000 0.000000 0.000000
vn -1.000000 0.000000 0.000000
vn -1.000000 0.000000 0.000000
vn -1.000000 0.000000 0.000000
vn -1.000000 0.000000 0.000000
vn -1.000000 0.000000 0.000000
vn 0.000000 -1.000000 0.000000
vn 0.000000 -1.000000 0.000000
vn 1.000000 0.000000 0.000000
vn 1.000000 0.000000 0.000000
vn 0.000000 1.000000 0.000000
vn 0.000000 1.000000 0.000000
s off
g polySurface1
usemtl lambert2SG
f 1/1/1 2/2/2 4/4/3 3/3/4
f 3/3/5 4/4/6 6/6/7 5/5/8
f 5/5/9 6/6/10 8/8/11 7/7/12
f 7/7/13 8/8/14 2/10/15 1/9/16
f 2/2/17 8/11/18 6/12/19 4/4/20
f 7/13/21 1/1/22 3/3/23 5/14/24
f 9/15/25 10/16/26 12/17/27 11/18/28
s 1
f 11/19/29 12/20/30 44/78/31 41/73/32
s off
f 13/21/33 14/22/34 16/43/35 15/40/36
s 2
f 42/75/37 43/76/38 10/27/39 9/28/40
s 3
f 10/29/41 43/77/42 44/78/43 12/20/44
s 4
f 42/74/45 9/32/46 11/19/47 41/73/48
f 34/62/49 18/36/50 17/59/51 33/61/52
s 2
f 34/63/53 35/64/54 19/37/55 18/38/56
s 3
f 20/41/57 19/42/58 35/65/59 36/66/60
s 1
f 17/59/61 20/41/62 36/66/63 33/61/64
s 4
f 38/68/65 22/31/66 21/34/67 37/67/68
s 2
f 38/69/69 39/70/70 23/26/71 22/25/72
s 3
f 24/39/73 23/30/74 39/71/75 40/72/76
s 1
f 21/34/77 24/39/78 40/72/79 37/67/80
s off
f 25/45/81 26/46/82 28/47/83 27/48/84
f 27/48/85 28/47/86 30/49/87 29/50/88
f 29/50/89 30/49/90 32/51/91 31/52/92
f 31/52/93 32/51/94 26/53/95 25/54/96
f 26/46/97 32/55/98 30/56/99 28/47/100
f 31/57/101 25/45/102 27/48/103 29/58/104
s 4
f 15/35/105 34/62/49 33/61/52 13/60/106
s 2
f 15/24/107 16/23/108 35/64/54 34/63/53
s 3
f 36/66/60 35/65/59 16/33/109 14/44/110
s 1
f 33/61/64 36/66/63 14/44/111 13/60/112
s 4
f 18/36/50 38/68/65 37/67/68 17/59/51
s 2
f 18/38/56 19/37/55 39/70/70 38/69/69
s 3
f 40/72/76 39/71/75 19/42/58 20/41/57
s 1
f 37/67/80 40/72/79 20/41/62 17/59/61
s 4
f 22/31/66 42/74/45 41/73/48 21/34/67
s 2
f 22/25/72 23/26/71 43/76/38 42/75/37
s 3
f 44/78/43 43/77/42 23/30/74 24/39/73
s 1
f 41/73/32 44/78/31 24/39/78 21/34/77
