# This file uses centimeters as units for non-parametric coordinates.

mtllib DRSpaceCapsuleExhibit.mtl
g default
v 5.979849 5.141940 -0.240725
v 5.767230 4.328994 -1.466955
v 5.092604 3.481711 -2.498104
v 4.022005 2.683027 -3.233238
v 2.845992 1.749687 -3.507113
v 1.582021 0.910501 -3.341957
v 0.353817 0.247610 -2.753942
v -0.718392 -0.174094 -1.800627
v -1.529655 -0.313336 -0.575329
v -2.000558 -0.156484 0.802012
v -2.085000 0.281111 2.196573
v -1.774721 0.956613 3.471843
v -1.100096 1.803896 4.502993
v -0.127158 2.740024 5.189083
v 1.048854 3.673364 5.462960
v 2.312825 4.512550 5.297804
v 3.541029 5.175439 4.709790
v 4.613238 5.597144 3.756475
v 5.424500 5.736386 2.531177
v 5.895403 5.579534 1.153836
v -0.852316 7.668074 -0.834701
v -0.891220 7.583375 -0.994602
v -0.975807 7.477137 -1.123893
v -1.097801 7.359761 -1.209920
v -1.245257 7.242733 -1.244259
v -1.403741 7.137510 -1.223551
v -1.557740 7.054394 -1.149823
v -1.692180 7.001516 -1.030290
v -1.793901 6.984058 -0.876655
v -1.852945 7.003725 -0.703956
v -1.863533 7.058593 -0.529098
v -1.824629 7.143293 -0.369197
v -1.740040 7.249529 -0.239905
v -1.618047 7.366907 -0.153879
v -1.470592 7.483934 -0.119539
v -1.312107 7.589157 -0.140247
v -1.158109 7.672274 -0.213976
v -1.023668 7.725150 -0.333508
v -0.921948 7.742608 -0.487143
v -0.862904 7.722941 -0.659842
v -1.357925 7.363333 -0.681899
v -1.268903 7.536028 -0.104836
v -1.431579 7.428024 -0.083581
v -1.582934 7.307902 -0.118829
v -1.708152 7.187421 -0.207130
v -1.794978 7.078374 -0.339840
v -1.834911 6.991435 -0.503970
v -1.824043 6.935117 -0.683452
v -1.763438 6.914930 -0.860719
v -1.659027 6.932850 -1.018416
v -1.521031 6.987123 -1.141109
v -1.362959 7.072439 -1.216788
v -1.200284 7.180444 -1.238044
v -1.048930 7.300567 -1.202796
v -0.826049 7.283604 -1.065453
v -0.739224 7.392650 -0.932742
v -0.796952 7.617033 -0.817655
v -0.807820 7.673351 -0.638172
v -0.868425 7.693539 -0.460906
v -0.972836 7.675618 -0.303207
v -1.110831 7.621343 -0.180514
v 6.149814 4.898718 -0.153699
v 5.839676 4.223562 -1.428281
v 5.165374 3.376709 -2.458874
v 4.192914 2.441052 -3.144597
v 3.017482 1.508177 -3.418327
v 1.754139 0.669404 -3.253262
v 0.526549 0.006836 -2.665568
v -0.545119 -0.414668 -1.712771
v -1.355968 -0.553854 -0.488137
v -1.826625 -0.397094 0.888459
v -1.911013 0.040272 2.282266
v -1.600877 0.715425 3.556847
v -0.926577 1.562280 4.587442
v 0.045885 2.497937 5.273162
v 1.221316 3.430812 5.546893
v 2.484658 4.269584 5.381828
v 3.712247 4.932153 4.794135
v 4.783915 5.353657 3.841337
v 5.594764 5.492841 2.616704
v 6.065422 5.336081 1.240109
v 6.621198 4.226464 0.086701
v 6.311373 3.552073 -1.186366
v 5.637787 2.706165 -2.215737
v 4.666373 1.771542 -2.900648
v 3.492220 0.839690 -3.174058
v 2.230259 0.001827 -3.009195
v 1.004022 -0.660032 -2.422205
v -0.066457 -1.081099 -1.470546
v -0.876395 -1.220161 -0.247372
v -1.346511 -1.063601 1.127584
v -1.430780 -0.626742 2.519732
v -1.120958 0.047651 3.792799
v -0.447374 0.893561 4.822170
v 0.527740 1.818160 5.506889
v 1.692007 2.762377 5.780278
v 2.960153 3.597897 5.615627
v 4.186389 4.259756 5.028638
v 5.256871 4.680823 4.076979
v 6.066810 4.819881 2.853806
v 6.536926 4.663321 1.478851
v 6.105866 3.499200 0.410379
v 5.853578 2.947037 -0.634618
v 5.302665 2.253436 -1.481302
v 4.505871 1.485829 -2.045774
v 3.541077 0.719836 -2.271232
v 2.503821 0.031493 -2.134837
v 1.497008 -0.511098 -1.650647
v 0.619674 -0.855048 -0.867612
v -0.043086 -0.967652 0.136525
v -0.427768 -0.838784 1.263703
v -0.497572 -0.481195 2.404922
v -0.245350 0.070833 3.449856
v 0.305265 0.763201 4.295889
v 1.105111 1.525097 4.860537
v 2.063367 2.299525 5.087056
v 3.103437 2.986155 4.950740
v 4.111092 3.528961 4.466359
v 4.988522 3.873050 3.683281
v 5.651359 3.985734 2.679033
v 6.036076 3.856868 1.551717
v 6.105866 3.499200 0.410379
v 5.853578 2.947037 -0.634618
v 2.783326 1.551775 1.395626
v 5.302665 2.253436 -1.481302
v 4.505871 1.485829 -2.045774
v 3.541077 0.719836 -2.271232
v 2.503821 0.031493 -2.134837
v 1.497008 -0.511098 -1.650647
v 0.619674 -0.855048 -0.867612
v -0.043086 -0.967652 0.136525
v -0.427768 -0.838784 1.263703
v -0.497572 -0.481195 2.404922
v -0.245350 0.070833 3.449856
v 0.305265 0.763201 4.295889
v 1.105111 1.525097 4.860537
v 2.063367 2.299525 5.087056
v 3.103437 2.986155 4.950740
v 4.111092 3.528961 4.466359
v 4.988522 3.873050 3.683281
v 5.651359 3.985734 2.679033
v 6.036076 3.856868 1.551717
vt 0.648603 0.107966
vt 0.626409 0.064408
vt 0.591842 0.029841
vt 0.548284 0.007647
vt 0.500000 -0.000000
vt 0.451716 0.007647
vt 0.408159 0.029841
vt 0.373591 0.064409
vt 0.351397 0.107966
vt 0.343750 0.156250
vt 0.351397 0.204534
vt 0.373591 0.248091
vt 0.408159 0.282659
vt 0.451716 0.304853
vt 0.500000 0.312500
vt 0.548284 0.304853
vt 0.591841 0.282659
vt 0.626409 0.248091
vt 0.648603 0.204534
vt 0.656250 0.156250
vt 0.375000 0.312500
vt 0.387500 0.312500
vt 0.400000 0.312500
vt 0.412500 0.312500
vt 0.425000 0.312500
vt 0.437500 0.312500
vt 0.450000 0.312500
vt 0.462500 0.312500
vt 0.475000 0.312500
vt 0.487500 0.312500
vt 0.500000 0.312500
vt 0.512500 0.312500
vt 0.525000 0.312500
vt 0.537500 0.312500
vt 0.550000 0.312500
vt 0.562500 0.312500
vt 0.575000 0.312500
vt 0.587500 0.312500
vt 0.600000 0.312500
vt 0.612500 0.312500
vt 0.625000 0.312500
vt 0.375000 0.688440
vt 0.387500 0.688440
vt 0.400000 0.688440
vt 0.412500 0.688440
vt 0.425000 0.688440
vt 0.437500 0.688440
vt 0.450000 0.688440
vt 0.462500 0.688440
vt 0.475000 0.688440
vt 0.487500 0.688440
vt 0.500000 0.688440
vt 0.512500 0.688440
vt 0.525000 0.688440
vt 0.537500 0.688440
vt 0.550000 0.688440
vt 0.562500 0.688440
vt 0.575000 0.688440
vt 0.587500 0.688440
vt 0.600000 0.688440
vt 0.612500 0.688440
vt 0.625000 0.688440
vt 0.648603 0.795466
vt 0.626409 0.751908
vt 0.591842 0.717341
vt 0.548284 0.695147
vt 0.500000 0.687500
vt 0.451716 0.695147
vt 0.408159 0.717341
vt 0.373591 0.751909
vt 0.351397 0.795466
vt 0.343750 0.843750
vt 0.351397 0.892034
vt 0.373591 0.935591
vt 0.408159 0.970159
vt 0.451716 0.992353
vt 0.500000 1.000000
vt 0.548284 0.992353
vt 0.591841 0.970159
vt 0.626409 0.935591
vt 0.648603 0.892034
vt 0.656250 0.843750
vt 0.500000 0.150000
vt 0.500000 0.837500
vt 0.562500 0.625751
vt 0.550000 0.625751
vt 0.537500 0.625751
vt 0.525000 0.625751
vt 0.512500 0.625751
vt 0.500000 0.625751
vt 0.487500 0.625751
vt 0.475000 0.625751
vt 0.462500 0.625751
vt 0.450000 0.625751
vt 0.437500 0.625751
vt 0.425000 0.625751
vt 0.412500 0.625751
vt 0.400000 0.625751
vt 0.387500 0.625751
vt 0.625000 0.625751
vt 0.375000 0.625751
vt 0.612500 0.625751
vt 0.600000 0.625751
vt 0.587500 0.625751
vt 0.575000 0.625751
vt 0.626409 0.064408
vt 0.648603 0.107966
vt 0.591842 0.029841
vt 0.548284 0.007647
vt 0.500000 -0.000000
vt 0.451716 0.007647
vt 0.408159 0.029841
vt 0.373591 0.064409
vt 0.351397 0.107966
vt 0.343750 0.156250
vt 0.351397 0.204534
vt 0.373591 0.248091
vt 0.408159 0.282659
vt 0.451716 0.304853
vt 0.500000 0.312500
vt 0.548284 0.304853
vt 0.591841 0.282659
vt 0.626409 0.248091
vt 0.648603 0.204534
vt 0.656250 0.156250
vt 0.626409 0.064408
vt 0.648603 0.107966
vt 0.591842 0.029841
vt 0.548284 0.007647
vt 0.500000 -0.000000
vt 0.451716 0.007647
vt 0.408159 0.029841
vt 0.373591 0.064409
vt 0.351397 0.107966
vt 0.343750 0.156250
vt 0.351397 0.204534
vt 0.373591 0.248091
vt 0.408159 0.282659
vt 0.451716 0.304853
vt 0.500000 0.312500
vt 0.548284 0.304853
vt 0.591841 0.282659
vt 0.626409 0.248091
vt 0.648603 0.204534
vt 0.656250 0.156250
vt 0.626409 0.064408
vt 0.648603 0.107966
vt 0.591842 0.029841
vt 0.548284 0.007647
vt 0.500000 -0.000000
vt 0.451716 0.007647
vt 0.408159 0.029841
vt 0.373591 0.064409
vt 0.351397 0.107966
vt 0.343750 0.156250
vt 0.351397 0.204534
vt 0.373591 0.248091
vt 0.408159 0.282659
vt 0.451716 0.304853
vt 0.500000 0.312500
vt 0.548284 0.304853
vt 0.591841 0.282659
vt 0.626409 0.248091
vt 0.648603 0.204534
vt 0.656250 0.156250
vt 0.626409 0.064408
vt 0.648603 0.107966
vt 0.591842 0.029841
vt 0.548284 0.007647
vt 0.500000 -0.000000
vt 0.451716 0.007647
vt 0.408159 0.029841
vt 0.373591 0.064409
vt 0.351397 0.107966
vt 0.343750 0.156250
vt 0.351397 0.204534
vt 0.373591 0.248091
vt 0.408159 0.282659
vt 0.451716 0.304853
vt 0.500000 0.312500
vt 0.548284 0.304853
vt 0.591841 0.282659
vt 0.626409 0.248091
vt 0.648603 0.204534
vt 0.656250 0.156250
vn 0.335579 0.831885 -0.441989
vn 0.281223 0.699164 -0.657330
vn 0.616133 0.478965 -0.625278
vn 0.636510 0.664816 -0.390991
vn 0.221443 0.618616 -0.753842
vn 0.511583 0.344257 -0.787254
vn 0.066709 0.468971 -0.880691
vn 0.295893 0.220289 -0.929473
vn -0.159204 0.277270 -0.947510
vn 0.003716 0.056122 -0.998417
vn -0.364396 0.143198 -0.920169
vn -0.232564 -0.099264 -0.967502
vn -0.568663 0.038439 -0.821672
vn -0.468061 -0.222584 -0.855205
vn -0.752729 -0.027231 -0.657767
vn -0.681366 -0.301880 -0.666789
vn -0.896210 -0.046405 -0.441195
vn -0.848620 -0.326975 -0.415850
vn -0.981046 -0.016032 -0.193112
vn -0.947715 -0.292717 -0.127098
vn -0.996407 0.060846 0.058916
vn -0.965182 -0.202206 0.165944
vn -0.941911 0.175272 0.286501
vn -0.900882 -0.066908 0.428877
vn -0.826722 0.314669 0.466384
vn -0.766580 0.096956 0.634787
vn -0.665602 0.465613 0.583248
vn -0.580161 0.272810 0.767455
vn -0.475057 0.615362 0.629008
vn -0.360456 0.445936 0.819276
vn -0.271581 0.751850 0.600805
vn -0.125457 0.603128 0.787716
vn -0.071875 0.863028 0.500017
vn 0.106611 0.731278 0.673696
vn 0.106414 0.936828 0.333212
vn 0.315529 0.816746 0.483081
vn 0.245106 0.962743 0.114235
vn 0.479117 0.847000 0.230299
vn 0.328083 0.934984 -0.134780
vn 0.576784 0.814751 -0.059169
vn 0.546765 -0.786904 0.286058
vn 0.546049 -0.788646 0.282609
vn 0.556230 -0.782721 0.279206
vn 0.548398 -0.784749 0.288840
vn 0.550786 -0.782393 0.290681
vn 0.553695 -0.780068 0.291403
vn 0.556840 -0.778001 0.290936
vn 0.559911 -0.776394 0.289330
vn 0.562610 -0.775402 0.286742
vn 0.564674 -0.775122 0.283426
vn 0.565902 -0.775577 0.279704
vn 0.566176 -0.776726 0.275939
vn 0.565398 -0.778571 0.272310
vn 0.562473 -0.782207 0.267912
vn 0.563284 -0.782002 0.266803
vn 0.560701 -0.783431 0.268051
vn 0.554326 -0.787969 0.268009
vn 0.552240 -0.789011 0.269244
vn 0.549625 -0.789971 0.271767
vn 0.547553 -0.790259 0.275094
vn 0.546321 -0.789802 0.278831
vn -0.556173 0.782733 -0.279287
vn -0.556174 0.782730 -0.279292
vn -0.556172 0.782733 -0.279289
vn -0.556171 0.782733 -0.279290
vn -0.556169 0.782736 -0.279286
vn -0.556174 0.782732 -0.279288
vn -0.556172 0.782733 -0.279289
vn -0.556173 0.782733 -0.279286
vn -0.556174 0.782732 -0.279288
vn -0.556171 0.782733 -0.279291
vn -0.556172 0.782733 -0.279287
vn -0.556173 0.782731 -0.279290
vn -0.556171 0.782732 -0.279291
vn -0.556171 0.782734 -0.279288
vn -0.556172 0.782733 -0.279289
vn -0.556172 0.782733 -0.279289
vn -0.556174 0.782732 -0.279288
vn -0.556172 0.782732 -0.279290
vn -0.556170 0.782733 -0.279290
vn -0.556172 0.782733 -0.279288
vn -0.556172 0.782734 -0.279286
vn -0.056864 0.521295 0.851480
vn -0.300148 0.358964 0.883774
vn -0.527240 0.179593 0.830521
vn -0.719870 -0.003308 0.694101
vn -0.858752 -0.174343 0.481819
vn -0.925308 -0.315806 0.209932
vn -0.907169 -0.410181 -0.093783
vn -0.804453 -0.445171 -0.393291
vn -0.631319 -0.417790 -0.653367
vn -0.410854 -0.334083 -0.848285
vn -0.167663 -0.205304 -0.964230
vn 0.076479 -0.044184 -0.996092
vn 0.374407 0.118524 -0.919658
vn 0.588445 0.243157 -0.771108
vn 0.704343 0.390181 -0.593009
vn 0.732307 0.578848 -0.358694
vn 0.673944 0.738414 -0.023333
vn 0.572191 0.772047 0.276658
vn 0.401533 0.741183 0.537977
vn 0.184024 0.653319 0.734377
vn 0.768605 0.332138 -0.546746
vn 0.832664 0.482782 -0.271279
vn 0.831772 0.483956 -0.271924
vn 0.766178 0.335313 -0.548212
vn 0.627350 0.154393 -0.763279
vn 0.625175 0.157898 -0.764346
vn 0.428801 -0.029915 -0.902903
vn 0.428034 -0.028518 -0.903313
vn 0.196773 -0.212158 -0.957220
vn 0.196309 -0.211504 -0.957460
vn -0.052036 -0.377286 -0.924634
vn -0.052493 -0.376630 -0.924875
vn -0.299329 -0.510586 -0.806042
vn -0.299778 -0.509935 -0.806287
vn -0.523364 -0.598473 -0.606564
vn -0.523810 -0.597834 -0.606809
vn -0.699430 -0.628475 -0.340319
vn -0.699879 -0.627846 -0.340557
vn -0.804139 -0.593477 -0.033834
vn -0.804591 -0.592851 -0.034058
vn -0.823008 -0.496195 0.276493
vn -0.823461 -0.495562 0.276279
vn -0.755806 -0.349664 0.553618
vn -0.756258 -0.349019 0.553407
vn -0.614968 -0.172721 0.769403
vn -0.615255 -0.172157 0.769301
vn -0.419157 0.015685 0.907778
vn -0.419649 0.015985 0.907546
vn -0.187694 0.199380 0.961779
vn -0.188423 0.199921 0.961524
vn 0.061083 0.364554 0.929177
vn 0.060595 0.365340 0.928900
vn 0.308289 0.497976 0.810541
vn 0.307818 0.498620 0.810325
vn 0.532215 0.586016 0.611009
vn 0.531753 0.586656 0.610798
vn 0.708192 0.616143 0.344720
vn 0.707742 0.616780 0.344506
vn 0.812867 0.581195 0.038218
vn 0.812423 0.581829 0.037993
vn 0.830878 0.485128 -0.272567
vn 0.763744 0.338472 -0.549665
vn 0.622996 0.161389 -0.765395
vn 0.427266 -0.027122 -0.903719
vn 0.195844 -0.210850 -0.957699
vn -0.052949 -0.375974 -0.925116
vn -0.300226 -0.509285 -0.806531
vn -0.524256 -0.597194 -0.607054
vn -0.700327 -0.627217 -0.340795
vn -0.805043 -0.592225 -0.034283
vn -0.823914 -0.494928 0.276065
vn -0.756710 -0.348374 0.553197
vn -0.615541 -0.171594 0.769198
vn -0.420141 0.016286 0.907313
vn -0.189151 0.200461 0.961268
vn 0.060107 0.366126 0.928622
vn 0.307347 0.499263 0.810107
vn 0.531290 0.587295 0.610586
vn 0.707291 0.617416 0.344292
vn 0.811980 0.582463 0.037769
vn 0.812891 -0.581240 0.036979
vn 0.836980 -0.526579 0.148926
vn 0.836980 -0.526579 0.148926
vn 0.812891 -0.581240 0.036979
vn 0.758919 -0.648970 -0.053671
vn 0.758919 -0.648970 -0.053671
vn 0.680676 -0.723679 -0.113879
vn 0.680676 -0.723679 -0.113879
vn 0.586165 -0.798440 -0.137494
vn 0.586165 -0.798440 -0.137494
vn 0.484866 -0.866019 -0.122135
vn 0.484866 -0.866019 -0.122135
vn 0.386677 -0.919594 -0.069486
vn 0.386677 -0.919594 -0.069486
vn 0.300897 -0.953539 0.014970
vn 0.300897 -0.953539 0.014970
vn 0.235431 -0.964116 0.122688
vn 0.235431 -0.964116 0.122688
vn 0.196233 -0.949960 0.243041
vn 0.196233 -0.949960 0.243041
vn 0.186939 -0.912300 0.364367
vn 0.186939 -0.912300 0.364367
vn 0.208451 -0.854927 0.475025
vn 0.208451 -0.854927 0.475025
vn 0.258314 -0.785312 0.562636
vn 0.258314 -0.785312 0.562636
vn 0.337243 -0.705924 0.622847
vn 0.337243 -0.705924 0.622847
vn 0.430388 -0.628156 0.648218
vn 0.430388 -0.628156 0.648218
vn 0.529878 -0.563910 0.633430
vn 0.529878 -0.563910 0.633430
vn 0.631659 -0.512685 0.581517
vn 0.631659 -0.512685 0.581517
vn 0.720502 -0.482181 0.498376
vn 0.720502 -0.482181 0.498376
vn 0.788429 -0.474508 0.391436
vn 0.788429 -0.474508 0.391436
vn 0.828587 -0.489867 0.271063
vn 0.828587 -0.489867 0.271063
vn 0.000000 0.000000 0.000000
vn 0.000000 0.000000 0.000000
vn 0.000000 0.000000 0.000000
vn 0.000000 0.000000 0.000000
vn 0.000000 0.000000 0.000000
vn 0.000000 0.000000 0.000000
vn 0.000000 0.000000 0.000000
vn 0.000000 0.000000 0.000000
vn 0.000000 0.000000 0.000000
vn 0.000000 0.000000 0.000000
vn 0.000000 0.000000 0.000000
vn 0.000000 0.000000 0.000000
vn 0.000000 0.000000 0.000000
vn 0.000000 0.000000 0.000000
vn 0.000000 0.000000 0.000000
vn 0.000000 0.000000 0.000000
vn 0.000000 0.000000 0.000000
vn 0.000000 0.000000 0.000000
vn 0.000000 0.000000 0.000000
vn 0.000000 0.000000 0.000000
vn 0.000000 0.000000 0.000000
vn 0.000000 0.000000 0.000000
vn 0.000000 0.000000 0.000000
vn 0.000000 0.000000 0.000000
vn 0.000000 0.000000 0.000000
vn 0.000000 0.000000 0.000000
vn 0.000000 0.000000 0.000000
vn 0.000000 0.000000 0.000000
vn 0.000000 0.000000 0.000000
vn 0.000000 0.000000 0.000000
vn 0.000000 0.000000 0.000000
vn 0.000000 0.000000 0.000000
vn 0.000000 0.000000 0.000000
vn 0.000000 0.000000 0.000000
vn 0.000000 0.000000 0.000000
vn 0.000000 0.000000 0.000000
vn 0.000000 0.000000 0.000000
vn 0.000000 0.000000 0.000000
vn 0.000000 0.000000 0.000000
vn 0.000000 0.000000 0.000000
vn 0.000000 0.000000 0.000000
vn 0.000000 0.000000 0.000000
vn 0.000000 0.000000 0.000000
vn 0.000000 0.000000 0.000000
vn 0.000000 0.000000 0.000000
vn 0.000000 0.000000 0.000000
vn 0.000000 0.000000 0.000000
vn 0.000000 0.000000 0.000000
vn 0.000000 0.000000 0.000000
vn 0.000000 0.000000 0.000000
vn 0.000000 0.000000 0.000000
vn 0.000000 0.000000 0.000000
vn 0.000000 0.000000 0.000000
vn 0.000000 0.000000 0.000000
vn 0.000000 0.000000 0.000000
vn 0.000000 0.000000 0.000000
vn 0.000000 0.000000 0.000000
vn 0.000000 0.000000 0.000000
vn 0.000000 0.000000 0.000000
vn 0.000000 0.000000 0.000000
vn 0.000000 0.000000 0.000000
vn 0.000000 0.000000 0.000000
vn 0.000000 0.000000 0.000000
vn 0.000000 0.000000 0.000000
vn 0.000000 0.000000 0.000000
vn 0.000000 0.000000 0.000000
vn 0.000000 0.000000 0.000000
vn 0.000000 0.000000 0.000000
vn 0.000000 0.000000 0.000000
vn 0.000000 0.000000 0.000000
vn 0.000000 0.000000 0.000000
vn 0.000000 0.000000 0.000000
vn 0.000000 0.000000 0.000000
vn 0.000000 0.000000 0.000000
vn 0.000000 0.000000 0.000000
vn 0.000000 0.000000 0.000000
vn 0.000000 0.000000 0.000000
vn 0.000000 0.000000 0.000000
vn 0.000000 0.000000 0.000000
vn 0.000000 0.000000 0.000000
s 1
g Capsule
usemtl initialShadingGroup
f 1/21/1 2/22/2 56/99/3 57/101/4
f 2/22/2 3/23/5 55/98/6 56/99/3
f 3/23/5 4/24/7 54/97/8 55/98/6
f 4/24/7 5/25/9 53/96/10 54/97/8
f 5/25/9 6/26/11 52/95/12 53/96/10
f 6/26/11 7/27/13 51/94/14 52/95/12
f 7/27/13 8/28/15 50/93/16 51/94/14
f 8/28/15 9/29/17 49/92/18 50/93/16
f 9/29/17 10/30/19 48/91/20 49/92/18
f 10/30/19 11/31/21 47/90/22 48/91/20
f 11/31/21 12/32/23 46/89/24 47/90/22
f 12/32/23 13/33/25 45/88/26 46/89/24
f 13/33/25 14/34/27 44/87/28 45/88/26
f 14/34/27 15/35/29 43/86/30 44/87/28
f 15/35/29 16/36/31 42/85/32 43/86/30
f 16/36/31 17/37/33 61/105/34 42/85/32
f 17/37/33 18/38/35 60/104/36 61/105/34
f 18/38/35 19/39/37 59/103/38 60/104/36
f 19/39/37 20/40/39 58/102/40 59/103/38
f 20/40/39 1/41/1 57/100/4 58/102/40
s 2
f 123/166/41 122/167/42 124/83/43
f 125/168/44 123/166/41 124/83/43
f 126/169/45 125/168/44 124/83/43
f 127/170/46 126/169/45 124/83/43
f 128/171/47 127/170/46 124/83/43
f 129/172/48 128/171/47 124/83/43
f 130/173/49 129/172/48 124/83/43
f 131/174/50 130/173/49 124/83/43
f 132/175/51 131/174/50 124/83/43
f 133/176/52 132/175/51 124/83/43
f 134/177/53 133/176/52 124/83/43
f 135/178/54 134/177/53 124/83/43
f 136/179/55 135/178/54 124/83/43
f 137/180/56 136/179/55 124/83/43
f 138/181/57 137/180/56 124/83/43
f 139/182/58 138/181/57 124/83/43
f 140/183/59 139/182/58 124/83/43
f 141/184/60 140/183/59 124/83/43
f 142/185/61 141/184/60 124/83/43
f 122/167/42 142/185/61 124/83/43
s 3
f 21/81/62 22/80/63 41/84/64
f 22/80/63 23/79/65 41/84/64
f 23/79/65 24/78/66 41/84/64
f 24/78/66 25/77/67 41/84/64
f 25/77/67 26/76/68 41/84/64
f 26/76/68 27/75/69 41/84/64
f 27/75/69 28/74/70 41/84/64
f 28/74/70 29/73/71 41/84/64
f 29/73/71 30/72/72 41/84/64
f 30/72/72 31/71/73 41/84/64
f 31/71/73 32/70/74 41/84/64
f 32/70/74 33/69/75 41/84/64
f 33/69/75 34/68/76 41/84/64
f 34/68/76 35/67/77 41/84/64
f 35/67/77 36/66/78 41/84/64
f 36/66/78 37/65/79 41/84/64
f 37/65/79 38/64/80 41/84/64
f 38/64/80 39/63/81 41/84/64
f 39/63/81 40/82/82 41/84/64
f 40/82/82 21/81/62 41/84/64
s 1
f 43/86/30 42/85/32 36/57/83 35/56/84
f 44/87/28 43/86/30 35/56/84 34/55/85
f 45/88/26 44/87/28 34/55/85 33/54/86
f 46/89/24 45/88/26 33/54/86 32/53/87
f 47/90/22 46/89/24 32/53/87 31/52/88
f 48/91/20 47/90/22 31/52/88 30/51/89
f 49/92/18 48/91/20 30/51/89 29/50/90
f 50/93/16 49/92/18 29/50/90 28/49/91
f 51/94/14 50/93/16 28/49/91 27/48/92
f 52/95/12 51/94/14 27/48/92 26/47/93
f 53/96/10 52/95/12 26/47/93 25/46/94
f 54/97/8 53/96/10 25/46/94 24/45/95
f 55/98/6 54/97/8 24/45/95 23/44/96
f 56/99/3 55/98/6 23/44/96 22/43/97
f 57/101/4 56/99/3 22/43/97 21/42/98
f 58/102/40 57/100/4 21/62/98 40/61/99
f 59/103/38 58/102/40 40/61/99 39/60/100
f 60/104/36 59/103/38 39/60/100 38/59/101
f 61/105/34 60/104/36 38/59/101 37/58/102
f 42/85/32 61/105/34 37/58/102 36/57/83
s 4
f 2/2/103 1/1/104 62/107/105 63/106/106
f 3/3/107 2/2/103 63/106/106 64/108/108
f 4/4/109 3/3/107 64/108/108 65/109/110
f 5/5/111 4/4/109 65/109/110 66/110/112
f 6/6/113 5/5/111 66/110/112 67/111/114
f 7/7/115 6/6/113 67/111/114 68/112/116
f 8/8/117 7/7/115 68/112/116 69/113/118
f 9/9/119 8/8/117 69/113/118 70/114/120
f 10/10/121 9/9/119 70/114/120 71/115/122
f 11/11/123 10/10/121 71/115/122 72/116/124
f 12/12/125 11/11/123 72/116/124 73/117/126
f 13/13/127 12/12/125 73/117/126 74/118/128
f 14/14/129 13/13/127 74/118/128 75/119/130
f 15/15/131 14/14/129 75/119/130 76/120/132
f 16/16/133 15/15/131 76/120/132 77/121/134
f 17/17/135 16/16/133 77/121/134 78/122/136
f 18/18/137 17/17/135 78/122/136 79/123/138
f 19/19/139 18/18/137 79/123/138 80/124/140
f 20/20/141 19/19/139 80/124/140 81/125/142
f 1/1/104 20/20/141 81/125/142 62/107/105
f 63/106/106 62/107/105 82/127/143 83/126/144
f 64/108/108 63/106/106 83/126/144 84/128/145
f 65/109/110 64/108/108 84/128/145 85/129/146
f 66/110/112 65/109/110 85/129/146 86/130/147
f 67/111/114 66/110/112 86/130/147 87/131/148
f 68/112/116 67/111/114 87/131/148 88/132/149
f 69/113/118 68/112/116 88/132/149 89/133/150
f 70/114/120 69/113/118 89/133/150 90/134/151
f 71/115/122 70/114/120 90/134/151 91/135/152
f 72/116/124 71/115/122 91/135/152 92/136/153
f 73/117/126 72/116/124 92/136/153 93/137/154
f 74/118/128 73/117/126 93/137/154 94/138/155
f 75/119/130 74/118/128 94/138/155 95/139/156
f 76/120/132 75/119/130 95/139/156 96/140/157
f 77/121/134 76/120/132 96/140/157 97/141/158
f 78/122/136 77/121/134 97/141/158 98/142/159
f 79/123/138 78/122/136 98/142/159 99/143/160
f 80/124/140 79/123/138 99/143/160 100/144/161
f 81/125/142 80/124/140 100/144/161 101/145/162
f 62/107/105 81/125/142 101/145/162 82/127/143
s 5
f 83/126/163 82/127/164 102/147/165 103/146/166
f 84/128/167 83/126/163 103/146/166 104/148/168
f 85/129/169 84/128/167 104/148/168 105/149/170
f 86/130/171 85/129/169 105/149/170 106/150/172
f 87/131/173 86/130/171 106/150/172 107/151/174
f 88/132/175 87/131/173 107/151/174 108/152/176
f 89/133/177 88/132/175 108/152/176 109/153/178
f 90/134/179 89/133/177 109/153/178 110/154/180
f 91/135/181 90/134/179 110/154/180 111/155/182
f 92/136/183 91/135/181 111/155/182 112/156/184
f 93/137/185 92/136/183 112/156/184 113/157/186
f 94/138/187 93/137/185 113/157/186 114/158/188
f 95/139/189 94/138/187 114/158/188 115/159/190
f 96/140/191 95/139/189 115/159/190 116/160/192
f 97/141/193 96/140/191 116/160/192 117/161/194
f 98/142/195 97/141/193 117/161/194 118/162/196
f 99/143/197 98/142/195 118/162/196 119/163/198
f 100/144/199 99/143/197 119/163/198 120/164/200
f 101/145/201 100/144/199 120/164/200 121/165/202
f 82/127/164 101/145/201 121/165/202 102/147/165
s off
f 103/146/203 102/147/204 122/167/205 123/166/206
f 104/148/207 103/146/208 123/166/209 125/168/210
f 105/149/211 104/148/212 125/168/213 126/169/214
f 106/150/215 105/149/216 126/169/217 127/170/218
f 107/151/219 106/150/220 127/170/221 128/171/222
f 108/152/223 107/151/224 128/171/225 129/172/226
f 109/153/227 108/152/228 129/172/229 130/173/230
f 110/154/231 109/153/232 130/173/233 131/174/234
f 111/155/235 110/154/236 131/174/237 132/175/238
f 112/156/239 111/155/240 132/175/241 133/176/242
f 113/157/243 112/156/244 133/176/245 134/177/246
f 114/158/247 113/157/248 134/177/249 135/178/250
f 115/159/251 114/158/252 135/178/253 136/179/254
f 116/160/255 115/159/256 136/179/257 137/180/258
f 117/161/259 116/160/260 137/180/261 138/181/262
f 118/162/263 117/161/264 138/181/265 139/182/266
f 119/163/267 118/162/268 139/182/269 140/183/270
f 120/164/271 119/163/272 140/183/273 141/184/274
f 121/165/275 120/164/276 141/184/277 142/185/278
f 102/147/279 121/165/280 142/185/281 122/167/282
