# This file uses centimeters as units for non-parametric coordinates.

mtllib FrontDesk.mtl
g default
v 0.000000 0.000000 1.000000
v 1.000000 0.000000 1.000000
v 0.000000 1.261684 1.000000
v 1.000000 1.085979 1.000000
v 0.000000 1.261684 -3.000000
v 1.000000 1.042712 -3.000000
v 0.000000 0.000000 -3.000000
v 1.000000 0.000000 -3.000000
v 0.635499 1.261684 1.000000
v 0.114222 1.261684 -3.000000
v 0.114222 0.000000 -3.000000
v 0.114222 0.000000 1.000000
v 1.000000 1.261684 -2.905444
v 0.114222 1.261684 -2.905444
v 0.000000 1.146603 -2.905444
v 0.000000 0.000000 -2.905444
v 1.000000 0.000000 -2.905444
v 1.000000 1.261684 0.905445
v 0.114222 1.261684 0.905445
v 0.000000 1.261684 0.731535
v 0.000000 0.000000 0.905445
v 1.000000 0.000000 0.905445
v 0.000000 1.605049 1.000000
v 0.114222 1.605049 1.000000
v 0.114222 1.605049 0.905445
v 0.000000 1.605049 0.648699
v 1.000000 1.377125 1.000000
v 1.000000 1.377125 0.905445
v 1.000000 1.377125 -2.905444
v 0.114222 1.605049 -2.905444
v 1.000000 1.377125 -3.000000
v 0.114222 1.605049 -3.000000
v 0.000000 1.605049 -2.905444
v 0.000000 1.605049 -3.000000
v 0.000000 1.179954 -2.396739
v 0.000000 0.000000 -2.600018
v 1.000000 0.000000 -2.600018
v 1.000000 1.261684 -2.296555
v 0.114222 1.261684 -2.600018
v 0.114222 1.605049 -2.600018
v 0.000000 1.605049 -2.600018
v 0.000000 1.451953 -1.996959
v 0.000000 0.000000 -1.996959
v 1.000000 0.000000 -1.996959
v 1.000000 1.261684 -2.252155
v 0.114222 1.261684 -1.728416
v 0.114222 1.605049 -1.996959
v 0.000000 1.605049 -1.996959
v 0.000000 1.261684 -0.872790
v 0.000000 0.000000 -1.309707
v 1.000000 0.000000 -1.309707
v 1.000000 1.261684 -1.028578
v 0.114222 1.261684 -1.309707
v 0.114222 1.605049 -1.015345
v 0.000000 1.605049 -1.377876
v 0.000000 1.261684 -0.272423
v 0.000000 0.000000 -0.478505
v 1.000000 0.000000 -0.478505
v 1.000000 1.261684 -0.168382
v 0.114222 1.261684 -0.478505
v 0.114222 1.605049 -0.216541
v 0.000000 1.605049 -0.478505
v 0.000000 1.261684 0.598043
v 0.000000 0.000000 0.450795
v 1.000000 0.000000 0.450795
v 1.000000 1.261684 0.706042
v 0.114222 1.261684 0.450795
v 0.114222 1.605049 0.187264
v 0.000000 1.605049 0.450795
v 0.114222 0.423842 -3.000000
v 0.000000 0.423842 -3.000000
v 0.000000 0.423842 -2.905444
v 0.000000 0.423842 -2.304643
v 0.000000 0.721698 -1.996959
v 0.000000 0.192668 -1.309707
v 0.000000 0.187908 -0.120172
v 0.000000 0.661346 0.450795
v 0.000000 0.423842 0.905445
v 0.000000 0.423842 1.000000
v 0.114222 0.423842 1.000000
v 1.000000 0.160039 1.000000
v 1.000000 0.423842 0.591093
v 1.000000 0.423842 0.450795
v 1.000000 0.261131 -0.678649
v 1.000000 0.650720 -1.309707
v 1.000000 0.279416 -1.830081
v 1.000000 0.423842 -2.380566
v 1.000000 0.423842 -2.630194
v 1.000000 0.178711 -3.000000
v 0.114222 0.979996 -3.000000
v 0.000000 0.979996 -3.000000
v 0.000000 0.731084 -2.762415
v 0.000000 0.979996 -2.248852
v 0.000000 1.025171 -1.616771
v 0.000000 0.756714 -1.309707
v 0.000000 0.609784 -0.478505
v 0.000000 0.979996 0.016113
v 0.000000 0.847151 0.704185
v 0.000000 0.695885 1.000000
v 0.591971 0.665651 1.000000
v 1.000000 0.808638 1.000000
v 1.000000 0.979996 0.690065
v 1.000000 0.693634 0.450795
v 1.000000 0.668451 -0.478505
v 1.000000 0.979996 -1.309707
v 1.000000 0.979996 -1.996959
v 1.000000 0.715004 -2.600018
v 1.000000 0.979996 -2.624089
v 1.000000 0.685851 -3.000000
vt 0.037761 0.375816
vt 0.239244 0.305626
vt 0.240449 0.552820
vt 0.014916 0.602585
vt 0.000000 0.750653
vt 0.039257 0.743769
vt 0.069257 0.753666
vt 0.107606 0.784940
vt 0.745723 0.899483
vt 0.772922 0.896643
vt 0.769783 0.824597
vt 0.742962 0.827888
vt 0.390631 0.320756
vt 0.466963 0.447117
vt 0.410346 0.535731
vt 0.387060 0.441413
vt 0.116605 0.477488
vt 0.095446 0.635301
vt 0.383116 0.574663
vt 0.409053 0.588547
vt 0.984330 0.720612
vt 0.992285 0.814155
vt 0.766804 0.983794
vt 0.991870 0.900519
vt 1.000000 0.904871
vt 0.776863 0.987112
vt 0.738919 0.986097
vt 0.749189 0.989369
vt 0.715239 0.752606
vt 0.734493 0.865615
vt 0.989196 0.868547
vt 0.957772 0.775344
vt 0.082175 0.606289
vt 0.461403 0.565087
vt 0.208611 0.659436
vt 0.266946 0.818886
vt 0.162621 0.802469
vt 0.282613 0.608933
vt 0.132783 0.650470
vt 0.521987 0.371146
vt 0.762988 0.892467
vt 0.657422 0.787202
vt 0.676789 0.849452
vt 0.932522 0.835962
vt 0.949868 0.701691
vt 0.729489 0.878386
vt 0.732855 0.972594
vt 0.704270 0.975056
vt 0.573523 0.760310
vt 0.627686 0.905973
vt 0.928061 0.833397
vt 0.895720 0.733846
vt 0.620184 0.832439
vt 0.658506 0.948065
vt 0.628446 0.950896
vt 0.527916 0.659813
vt 0.455193 0.781452
vt 0.782862 0.749913
vt 0.815655 0.680304
vt 0.558977 0.806711
vt 0.511363 0.899521
vt 0.538363 0.922193
vt 0.388153 0.538637
vt 0.340393 0.734814
vt 0.646149 0.671309
vt 0.693101 0.492838
vt 0.415647 0.746463
vt 0.359036 0.849267
vt 0.378566 0.871276
vt 0.737718 0.691906
vt 0.763823 0.687797
vt 0.759480 0.588120
vt 0.733896 0.592796
vt 0.724222 0.586017
vt 0.727893 0.685949
vt 0.691688 0.563218
vt 0.660763 0.645245
vt 0.621045 0.513713
vt 0.624222 0.701391
vt 0.528208 0.448655
vt 0.528136 0.500780
vt 0.393467 0.354231
vt 0.323351 0.364435
vt 0.203020 0.220770
vt 0.187485 0.444456
vt 0.089075 0.140920
vt 0.074930 0.290028
vt 0.063248 0.122822
vt 0.048046 0.273726
vt 0.098499 0.109969
vt 0.084276 0.262141
vt 0.398346 0.060092
vt 0.400125 0.000000
vt 0.422924 0.021999
vt 0.492130 0.244221
vt 0.522257 0.269594
vt 0.522661 0.118236
vt 0.719058 0.385402
vt 0.686328 0.276161
vt 0.810153 0.577494
vt 0.799891 0.385738
vt 0.864456 0.519614
vt 0.877087 0.460226
vt 0.923305 0.607357
vt 0.935263 0.516361
vt 0.946533 0.626920
vt 0.961894 0.542057
vt 0.973489 0.593144
vt 0.969793 0.549679
vn 0.000000 0.000000 1.000000
vn 0.000000 0.000000 1.000000
vn 0.000000 0.000000 1.000000
vn 0.000000 0.000000 1.000000
vn 0.000000 1.000000 0.000000
vn 0.193592 0.981082 0.000000
vn 0.150220 0.988653 0.000000
vn 0.000000 1.000000 0.000000
vn 0.000000 0.000000 -1.000000
vn 0.000000 0.000000 -1.000000
vn 0.000000 0.000000 -1.000000
vn 0.000000 0.000000 -1.000000
vn 1.000000 0.000000 0.000000
vn 1.000000 0.000000 0.000000
vn 1.000000 0.000000 0.000000
vn 1.000000 0.000000 0.000000
vn -1.000000 0.000000 0.000000
vn -1.000000 0.000000 0.000000
vn -1.000000 0.000000 0.000000
vn -1.000000 0.000000 0.000000
vn 0.249198 0.968453 0.000000
vn 0.249198 0.968453 0.000000
vn 0.000000 0.000000 -1.000000
vn 0.000000 0.000000 -1.000000
vn 0.000000 0.000000 1.000000
vn 0.000000 0.000000 1.000000
vn 0.164235 0.986421 0.000000
vn 0.249197 0.968453 0.000000
vn 0.249197 0.968453 0.000000
vn 0.222225 0.974995 0.000000
vn 0.000000 1.000000 0.000000
vn 0.000000 1.000000 0.000000
vn -1.000000 0.000000 0.000000
vn -1.000000 0.000000 0.000000
vn -1.000000 0.000000 0.000000
vn -1.000000 0.000000 0.000000
vn 1.000000 0.000000 0.000000
vn 1.000000 0.000000 0.000000
vn 1.000000 0.000000 0.000000
vn 1.000000 0.000000 0.000000
vn 0.000000 1.000000 0.000000
vn 0.000000 1.000000 0.000000
vn 0.000000 1.000000 0.000000
vn 0.000000 1.000000 0.000000
vn 0.000000 1.000000 0.000000
vn 0.000000 1.000000 0.000000
vn -1.000000 0.000000 0.000000
vn -1.000000 0.000000 0.000000
vn 1.000000 0.000000 0.000000
vn 1.000000 0.000000 0.000000
vn 0.000000 0.000000 1.000000
vn 0.000000 0.000000 1.000000
vn -1.000000 0.000000 0.000000
vn -1.000000 0.000000 0.000000
vn 0.000000 0.000000 1.000000
vn 1.000000 0.000000 0.000000
vn 1.000000 0.000000 0.000000
vn -0.000000 0.000000 -1.000000
vn -0.000000 0.000000 -1.000000
vn -0.000000 0.000000 -1.000000
vn -0.000000 0.000000 -1.000000
vn 0.000000 0.000000 1.000000
vn 0.000000 0.000000 1.000000
vn 0.000000 0.000000 1.000000
vn 0.000000 0.000000 1.000000
vn 1.000000 0.000000 0.000000
vn 1.000000 0.000000 0.000000
vn 0.000000 0.000000 -1.000000
vn 0.000000 0.000000 -1.000000
vn 0.000000 0.000000 -1.000000
vn -1.000000 0.000000 0.000000
vn -1.000000 0.000000 0.000000
vn 1.000000 0.000000 0.000000
vn 1.000000 0.000000 0.000000
vn 1.000000 0.000000 0.000000
vn 1.000000 0.000000 0.000000
vn -1.000000 0.000000 0.000000
vn -1.000000 0.000000 0.000000
vn -1.000000 0.000000 0.000000
vn 1.000000 0.000000 0.000000
vn 1.000000 0.000000 0.000000
vn 0.000000 1.000000 0.000000
vn 0.000000 1.000000 0.000000
vn 0.000000 1.000000 0.000000
vn 0.000000 1.000000 0.000000
vn 1.000000 0.000000 0.000000
vn 1.000000 0.000000 0.000000
vn 1.000000 0.000000 0.000000
vn 1.000000 0.000000 0.000000
vn 0.000000 1.000000 0.000000
vn 0.000000 1.000000 0.000000
vn -1.000000 0.000000 0.000000
vn -1.000000 0.000000 0.000000
vn -1.000000 0.000000 0.000000
vn 1.000000 0.000000 0.000000
vn 1.000000 0.000000 0.000000
vn 0.000000 1.000000 0.000000
vn 0.000000 1.000000 0.000000
vn 1.000000 0.000000 0.000000
vn 1.000000 0.000000 0.000000
vn 0.000000 1.000000 0.000000
vn 0.000000 1.000000 0.000000
vn -1.000000 0.000000 0.000000
vn -1.000000 0.000000 0.000000
vn -1.000000 0.000000 0.000000
vn 1.000000 0.000000 0.000000
vn 1.000000 0.000000 0.000000
vn 0.000000 1.000000 0.000000
vn 0.000000 1.000000 0.000000
vn 1.000000 -0.000000 0.000000
vn 1.000000 -0.000000 0.000000
vn 0.000000 1.000000 0.000000
vn 0.000000 1.000000 0.000000
vn -1.000000 0.000000 0.000000
vn -1.000000 0.000000 0.000000
vn -1.000000 0.000000 0.000000
vn 1.000000 0.000000 0.000000
vn 1.000000 0.000000 0.000000
vn 0.000000 1.000000 0.000000
vn 0.000000 1.000000 0.000000
vn 1.000000 -0.000000 0.000000
vn 1.000000 -0.000000 0.000000
vn 0.000000 1.000000 0.000000
vn 0.000000 1.000000 0.000000
vn -1.000000 0.000000 0.000000
vn 0.000000 0.000000 -1.000000
vn 0.000000 0.000000 -1.000000
vn 0.000000 0.000000 -1.000000
vn 0.000000 0.000000 -1.000000
vn -1.000000 0.000000 0.000000
vn -1.000000 0.000000 0.000000
vn -1.000000 0.000000 0.000000
vn -1.000000 0.000000 0.000000
vn -1.000000 0.000000 0.000000
vn -1.000000 0.000000 0.000000
vn -1.000000 0.000000 0.000000
vn -1.000000 0.000000 0.000000
vn -1.000000 0.000000 0.000000
vn -1.000000 0.000000 0.000000
vn -1.000000 0.000000 0.000000
vn -1.000000 0.000000 0.000000
vn -1.000000 0.000000 0.000000
vn -1.000000 0.000000 0.000000
vn -1.000000 0.000000 0.000000
vn -1.000000 0.000000 0.000000
vn -1.000000 0.000000 0.000000
vn -1.000000 0.000000 0.000000
vn 0.000000 0.000000 1.000000
vn 0.000000 0.000000 1.000000
vn 0.000000 0.000000 1.000000
vn 0.000000 0.000000 1.000000
vn 0.000000 0.000000 1.000000
vn 0.000000 0.000000 1.000000
vn 1.000000 0.000000 0.000000
vn 1.000000 0.000000 0.000000
vn 1.000000 0.000000 0.000000
vn 1.000000 0.000000 0.000000
vn 1.000000 0.000000 0.000000
vn 1.000000 0.000000 0.000000
vn 1.000000 0.000000 0.000000
vn 1.000000 0.000000 0.000000
vn 1.000000 0.000000 0.000000
vn 1.000000 0.000000 0.000000
vn 1.000000 0.000000 0.000000
vn 1.000000 0.000000 0.000000
vn 1.000000 0.000000 0.000000
vn 1.000000 0.000000 0.000000
vn 1.000000 0.000000 0.000000
vn 1.000000 0.000000 0.000000
vn 1.000000 0.000000 0.000000
vn 1.000000 0.000000 0.000000
vn 0.000000 0.000000 -1.000000
vn 0.000000 0.000000 -1.000000
s 1
g Main_desk
usemtl lambert2SG
f 99/1/1 100/2/2 9/3/3 3/4/4
s 2
f 23/5/5 24/6/6 25/7/7 26/8/8
s 3
f 5/9/9 10/10/10 90/11/11 91/12/12
s 4
f 101/13/13 102/14/14 18/15/15 4/16/16
s 5
f 98/17/17 99/1/18 3/4/19 20/18/20
s 2
f 24/6/6 27/19/21 28/20/22 25/7/7
s 3
f 109/21/23 90/11/11 10/10/10 6/22/24
s 1
f 9/3/3 100/2/2 101/13/25 4/16/26
s 2
f 30/23/27 29/24/28 31/25/29 32/26/30
f 33/27/31 30/23/27 32/26/30 34/28/32
s 5
f 91/12/33 92/29/34 15/30/35 5/9/36
s 4
f 13/31/37 108/32/38 109/21/39 6/22/40
s 9
f 19/33/41 18/15/42 66/34/43 67/35/44
s 2
f 26/8/8 25/7/7 68/36/45 69/37/46
s 5
f 97/38/47 98/17/17 20/18/20 63/39/48
s 4
f 18/15/15 102/14/14 103/40/49 66/34/50
s 1
f 3/4/4 9/3/3 24/6/51 23/5/52
s 5
f 20/18/20 3/4/19 23/5/53 26/8/54
s 1
f 9/3/3 4/16/26 27/19/55 24/6/51
s 4
f 4/16/16 18/15/15 28/20/56 27/19/57
s off
f 18/15/58 19/33/59 25/7/60 28/20/61
f 14/41/62 13/31/63 29/24/64 30/23/65
s 4
f 13/31/37 6/22/40 31/25/66 29/24/67
s 3
f 6/22/24 10/10/10 32/26/68 31/25/69
f 10/10/10 5/9/9 34/28/70 32/26/68
s 5
f 5/9/36 15/30/35 33/27/71 34/28/72
s 10
f 19/33/73 67/35/74 68/36/75 25/7/76
s 5
f 69/37/77 63/39/48 20/18/20 26/8/54
f 92/29/34 93/42/78 35/43/79 15/30/35
s 4
f 38/44/80 107/45/81 108/32/38 13/31/37
s 9
f 39/46/82 38/44/83 13/31/84 14/41/85
s 10
f 40/47/86 39/46/87 14/41/88 30/23/89
s 2
f 41/48/90 40/47/91 30/23/27 33/27/31
s 5
f 15/30/35 35/43/79 41/48/92 33/27/71
f 93/42/78 94/49/93 42/50/94 35/43/79
s 4
f 45/51/95 106/52/96 107/45/81 38/44/80
s 9
f 46/53/97 45/51/98 38/44/83 39/46/82
s 10
f 47/54/99 46/53/100 39/46/87 40/47/86
s 2
f 48/55/101 47/54/102 40/47/91 41/48/90
s 5
f 41/48/92 35/43/79 42/50/94 48/55/103
f 94/49/93 95/56/104 49/57/105 42/50/94
s 4
f 52/58/106 105/59/107 106/52/96 45/51/95
s 9
f 53/60/108 52/58/109 45/51/98 46/53/97
s 10
f 54/61/110 53/60/111 46/53/100 47/54/99
s 2
f 55/62/112 54/61/113 47/54/102 48/55/101
s 5
f 48/55/103 42/50/94 49/57/105 55/62/114
f 95/56/104 96/63/115 56/64/116 49/57/105
s 4
f 59/65/117 104/66/118 105/59/107 52/58/106
s 9
f 60/67/119 59/65/120 52/58/109 53/60/108
s 10
f 61/68/121 60/67/122 53/60/111 54/61/110
s 2
f 62/69/123 61/68/124 54/61/113 55/62/112
s 5
f 55/62/114 49/57/105 56/64/116 62/69/125
f 96/63/115 97/38/47 63/39/48 56/64/116
s 4
f 66/34/50 103/40/49 104/66/118 59/65/117
s 9
f 67/35/44 66/34/43 59/65/120 60/67/119
s 10
f 68/36/75 67/35/74 60/67/122 61/68/121
s 2
f 69/37/46 68/36/45 61/68/124 62/69/123
s 5
f 62/69/125 56/64/116 63/39/48 69/37/77
s 3
f 71/70/126 70/71/127 11/72/128 7/73/129
s 5
f 7/73/130 16/74/131 72/75/132 71/70/133
f 16/74/131 36/76/134 73/77/135 72/75/132
f 36/76/134 43/78/136 74/79/137 73/77/135
f 43/78/136 50/80/138 75/81/139 74/79/137
f 50/80/138 57/82/140 76/83/141 75/81/139
f 57/82/140 64/84/142 77/85/143 76/83/141
f 64/84/142 21/86/144 78/87/145 77/85/143
f 21/86/144 1/88/146 79/89/147 78/87/145
s 1
f 1/88/148 12/90/149 80/91/150 79/89/151
f 81/92/152 80/91/150 12/90/149 2/93/153
s 4
f 2/93/154 22/94/155 82/95/156 81/92/157
f 83/96/158 82/95/156 22/94/155 65/97/159
f 84/98/160 83/96/158 65/97/159 58/99/161
f 85/100/162 84/98/160 58/99/161 51/101/163
f 86/102/164 85/100/162 51/101/163 44/103/165
f 87/104/166 86/102/164 44/103/165 37/105/167
f 88/106/168 87/104/166 37/105/167 17/107/169
f 89/108/170 88/106/168 17/107/169 8/109/171
s 3
f 11/72/128 70/71/127 89/108/172 8/109/173
f 91/12/12 90/11/11 70/71/127 71/70/126
s 5
f 71/70/133 72/75/132 92/29/34 91/12/33
f 72/75/132 73/77/135 93/42/78 92/29/34
f 73/77/135 74/79/137 94/49/93 93/42/78
f 74/79/137 75/81/139 95/56/104 94/49/93
f 75/81/139 76/83/141 96/63/115 95/56/104
f 76/83/141 77/85/143 97/38/47 96/63/115
f 77/85/143 78/87/145 98/17/17 97/38/47
f 78/87/145 79/89/147 99/1/18 98/17/17
s 1
f 79/89/151 80/91/150 100/2/2 99/1/1
f 101/13/25 100/2/2 80/91/150 81/92/152
s 4
f 81/92/157 82/95/156 102/14/14 101/13/13
f 103/40/49 102/14/14 82/95/156 83/96/158
f 104/66/118 103/40/49 83/96/158 84/98/160
f 105/59/107 104/66/118 84/98/160 85/100/162
f 106/52/96 105/59/107 85/100/162 86/102/164
f 107/45/81 106/52/96 86/102/164 87/104/166
f 108/32/38 107/45/81 87/104/166 88/106/168
f 109/21/39 108/32/38 88/106/168 89/108/170
s 3
f 89/108/172 70/71/127 90/11/11 109/21/23
