# This file uses centimeters as units for non-parametric coordinates.

mtllib Plaque.mtl
g default
v -0.414956 0.058163 0.510351
v -0.397920 0.017036 0.510351
v -0.356793 -0.000000 0.510351
v -0.356793 0.017036 0.551479
v -0.356793 0.058163 0.568514
v -0.397920 0.058163 0.551479
v 0.339194 -0.000000 0.543765
v 0.380321 0.017036 0.543765
v 0.397357 0.058163 0.543765
v 0.380321 0.058163 0.584893
v 0.339194 0.058163 0.601928
v 0.339194 0.017036 0.584893
v -0.356793 0.169701 0.510351
v -0.397920 0.152666 0.510351
v -0.414956 0.111538 0.510351
v -0.397920 0.111538 0.551479
v -0.356793 0.111538 0.568514
v -0.356793 0.152666 0.551479
v 0.397357 0.111538 0.543765
v 0.380321 0.152666 0.543765
v 0.339194 0.169701 0.543765
v 0.339194 0.152666 0.584893
v 0.339194 0.111538 0.601928
v 0.380321 0.111538 0.584893
v -0.372785 0.111538 -0.598742
v -0.413912 0.111538 -0.581706
v -0.430948 0.111538 -0.540579
v -0.413912 0.152666 -0.540579
v -0.372785 0.169701 -0.540579
v -0.372785 0.152666 -0.581706
v 0.428758 0.111538 -0.562618
v 0.411722 0.111538 -0.603746
v 0.370595 0.111538 -0.620781
v 0.370595 0.152666 -0.603746
v 0.370595 0.169701 -0.562618
v 0.411722 0.152666 -0.562618
v -0.372785 -0.000000 -0.540579
v -0.413912 0.017036 -0.540579
v -0.430948 0.058163 -0.540579
v -0.413912 0.058163 -0.581706
v -0.372785 0.058163 -0.598742
v -0.372785 0.017036 -0.581706
v 0.428758 0.058163 -0.562618
v 0.411722 0.017036 -0.562618
v 0.370595 -0.000000 -0.562618
v 0.370595 0.017036 -0.603746
v 0.370595 0.058163 -0.620781
v 0.411722 0.058163 -0.603746
v -0.389889 0.025066 0.543448
v 0.372291 0.025066 0.576862
v -0.389889 0.144635 0.543448
v 0.372291 0.144635 0.576862
v -0.405882 0.144635 -0.573676
v 0.403691 0.144635 -0.595715
v -0.405882 0.025066 -0.573676
v 0.403691 0.025066 -0.595715
v -0.325524 0.169701 0.375637
v 0.341146 0.169701 0.375637
v 0.411722 0.152666 0.375637
v 0.428758 0.111538 0.346378
v 0.428758 0.058163 0.375637
v 0.411722 0.017036 0.375637
v 0.370595 -0.000000 0.375637
v -0.372785 -0.000000 0.375637
v -0.413912 0.017036 0.375637
v -0.430948 0.058163 0.375637
v -0.430948 0.111538 0.375637
v -0.413912 0.152666 0.375637
v -0.312601 0.169701 0.155994
v 0.370595 0.169701 0.155994
v 0.411722 0.152666 0.155994
v 0.428758 0.111538 0.155994
v 0.428758 0.058163 0.155994
v 0.411722 0.017036 0.155994
v 0.370595 -0.000000 0.155994
v -0.388538 -0.000000 0.155994
v -0.429666 0.017036 0.155994
v -0.446701 0.058163 0.155994
v -0.446701 0.111538 0.155994
v -0.429666 0.152666 0.190044
v -0.355111 0.169701 -0.087177
v 0.344616 0.169701 -0.087177
v 0.385743 0.152666 -0.087177
v 0.402779 0.111538 -0.087177
v 0.402779 0.058163 -0.087177
v 0.385743 0.017036 -0.087177
v 0.344616 -0.000000 -0.087177
v -0.355111 -0.000000 -0.073476
v -0.396238 0.017036 -0.087177
v -0.413274 0.058163 -0.087177
v -0.413274 0.111538 -0.087177
v -0.396238 0.152666 -0.049797
v -0.372785 0.169701 -0.317316
v 0.370595 0.169701 -0.317316
v 0.411722 0.152666 -0.317316
v 0.428758 0.111538 -0.300052
v 0.428758 0.058163 -0.317316
v 0.411722 0.017036 -0.317316
v 0.370595 -0.000000 -0.317316
v -0.372785 -0.000000 -0.354524
v -0.413912 0.017036 -0.317316
v -0.430948 0.058163 -0.317316
v -0.430948 0.111538 -0.317316
v -0.413912 0.152666 -0.317316
v 0.154989 0.169701 0.531566
v 0.138282 0.169701 0.337129
v 0.094629 0.169701 0.122000
v 0.186341 0.169701 -0.087177
v 0.154989 0.169701 -0.368712
v 0.154989 0.169701 -0.543818
v 0.154989 0.152666 -0.584945
v 0.154989 0.111538 -0.601981
v 0.154989 0.058163 -0.601981
v 0.154989 0.017036 -0.584945
v 0.184635 -0.000000 -0.543818
v 0.154989 -0.000000 -0.284365
v 0.154989 -0.000000 -0.087177
v 0.154989 -0.000000 0.155994
v 0.154989 -0.000000 0.338578
v 0.154989 -0.000000 0.531566
v 0.154989 0.017036 0.572694
v 0.154989 0.058163 0.589729
v 0.154989 0.111538 0.589729
v 0.154989 0.152666 0.572694
v -0.092245 0.169701 0.543765
v -0.144320 0.169701 0.375637
v -0.144320 0.169701 0.155994
v -0.144320 0.169701 -0.087177
v -0.096873 0.169701 -0.272979
v -0.144320 0.169701 -0.562618
v -0.144320 0.152666 -0.603746
v -0.144320 0.111538 -0.620781
v -0.144320 0.058163 -0.620781
v -0.144320 0.017036 -0.603746
v -0.144320 -0.000000 -0.562618
v -0.109776 -0.000000 -0.317316
v -0.098954 -0.000000 -0.087177
v -0.175663 -0.000000 0.120427
v -0.197240 -0.000000 0.375637
v -0.144320 -0.000000 0.543765
v -0.144320 0.017036 0.584893
v -0.144320 0.058163 0.601928
v -0.144320 0.111538 0.601928
v -0.144320 0.152666 0.584893
vt 0.227190 0.906028
vt 0.394877 0.906028
vt 0.420232 0.725983
vt 0.227190 0.753292
vt 0.394877 0.051282
vt 0.394877 0.051282
vt 0.227190 0.051282
vt 0.227190 0.051282
vt 0.184500 0.725983
vt 0.184500 0.906028
vt 0.184500 0.906028
vt 0.184500 0.725983
vt 0.815500 0.906028
vt 0.815500 0.906028
vt 0.815500 0.713312
vt 0.815500 0.725983
vt 0.429702 0.693440
vt 0.394877 0.906028
vt 0.227190 0.906028
vt 0.227190 0.725983
vt 0.394877 0.948718
vt 0.394877 0.948718
vt 0.227190 0.948718
vt 0.227190 0.948718
vt 0.197003 0.725983
vt 0.197003 0.906028
vt 0.227190 0.063786
vt 0.394877 0.063786
vt 0.227190 0.093972
vt 0.394877 0.093972
vt 0.184500 0.093972
vt 0.197003 0.063786
vt 0.197003 0.063786
vt 0.184500 0.093972
vt 0.802997 0.725983
vt 0.802997 0.906028
vt 0.772810 0.725983
vt 0.772810 0.906028
vt 0.772810 0.051282
vt 0.802997 0.063786
vt 0.802997 0.063786
vt 0.772810 0.051282
vt 0.815500 0.093972
vt 0.815500 0.093972
vt 0.197003 0.725983
vt 0.197003 0.906028
vt 0.227190 0.093972
vt 0.227190 0.063786
vt 0.394877 0.063786
vt 0.433098 0.093972
vt 0.772810 0.725983
vt 0.802997 0.725983
vt 0.802997 0.906028
vt 0.772810 0.906028
vt 0.197003 0.936214
vt 0.197003 0.936214
vt 0.227190 0.936214
vt 0.394877 0.936214
vt 0.772810 0.948718
vt 0.802997 0.936214
vt 0.802997 0.936214
vt 0.772810 0.948718
vt 0.227190 0.936214
vt 0.394877 0.936214
vt 0.197003 0.093972
vt 0.202898 0.069680
vt 0.772810 0.063786
vt 0.772810 0.093972
vt 0.802997 0.093972
vt 0.797102 0.069680
vt 0.197003 0.093972
vt 0.202898 0.069680
vt 0.802997 0.093972
vt 0.797102 0.069680
vt 0.772810 0.093972
vt 0.772810 0.063786
vt 0.202898 0.930320
vt 0.797102 0.930320
vt 0.772810 0.936214
vt 0.202898 0.930320
vt 0.797102 0.930320
vt 0.772810 0.936214
vt 0.394877 0.217374
vt 0.261878 0.217374
vt 0.802997 0.217374
vt 0.751195 0.217374
vt 0.815500 0.238849
vt 0.815500 0.217374
vt 0.802997 0.217374
vt 0.772810 0.217374
vt 0.227190 0.217374
vt 0.356035 0.217374
vt 0.197003 0.217374
vt 0.184500 0.217374
vt 0.184500 0.217374
vt 0.197003 0.217374
vt 0.394877 0.378586
vt 0.271363 0.378586
vt 0.802997 0.378586
vt 0.772810 0.378586
vt 0.815500 0.378586
vt 0.815500 0.378586
vt 0.802997 0.378586
vt 0.772810 0.378586
vt 0.227190 0.378586
vt 0.371872 0.404691
vt 0.197003 0.378586
vt 0.184500 0.378586
vt 0.184500 0.378586
vt 0.197003 0.353594
vt 0.394877 0.557067
vt 0.227190 0.557067
vt 0.802997 0.557067
vt 0.772810 0.557067
vt 0.815500 0.557067
vt 0.815500 0.557067
vt 0.802997 0.557067
vt 0.772810 0.557067
vt 0.227190 0.547011
vt 0.428174 0.557067
vt 0.197003 0.557067
vt 0.184500 0.557067
vt 0.184500 0.557067
vt 0.197003 0.529631
vt 0.602299 0.245638
vt 0.614562 0.093972
vt 0.570259 0.403536
vt 0.637573 0.557067
vt 0.614562 0.763706
vt 0.614562 0.906028
vt 0.614562 0.936214
vt 0.614562 0.948718
vt 0.614562 0.948718
vt 0.614562 0.936214
vt 0.636321 0.906028
vt 0.614562 0.701797
vt 0.614562 0.557067
vt 0.614562 0.378586
vt 0.614562 0.244574
vt 0.614562 0.093972
vt 0.614562 0.063786
vt 0.614562 0.051282
vt 0.614562 0.051282
vt 0.614562 0.063786
vn -0.057546 -0.996811 -0.055292
vn -0.000459 -0.997728 -0.067375
vn 0.000000 -1.000000 0.000000
vn -0.056871 -0.998381 0.001335
vn -0.040198 -0.175154 0.983720
vn -0.040198 0.175154 0.983720
vn -0.186122 0.171417 0.967458
vn -0.186123 -0.171417 0.967458
vn -0.984183 0.173130 0.037547
vn -0.983676 0.171271 -0.055204
vn -0.983676 -0.171271 -0.055204
vn -0.983586 -0.176354 0.038187
vn 0.984355 -0.168938 -0.050051
vn 0.983868 0.171944 -0.049379
vn 0.982284 0.175446 0.065847
vn 0.982844 -0.178361 0.046958
vn 0.000000 1.000000 0.000000
vn -0.000443 0.997919 -0.064483
vn -0.052643 0.997501 -0.047114
vn -0.061122 0.998128 0.002336
vn -0.005904 0.175563 -0.984451
vn -0.005904 -0.175563 -0.984451
vn -0.134570 -0.172066 -0.975851
vn -0.134570 0.172066 -0.975851
vn -0.377772 -0.925687 0.019806
vn -0.378653 -0.924426 -0.045368
vn -0.923270 -0.382431 0.036318
vn -0.924451 -0.378975 -0.042043
vn -0.169614 -0.373547 0.911972
vn -0.039482 -0.382385 0.923159
vn -0.093543 -0.921167 0.377759
vn -0.064429 -0.994483 0.082782
vn -0.003637 -0.996655 0.081646
vn -0.014547 -0.923782 0.382643
vn -0.970481 -0.168184 0.172859
vn -0.920582 -0.126694 0.369428
vn -0.920582 0.126694 0.369428
vn -0.970481 0.168184 0.172859
vn -0.369429 -0.126694 0.920582
vn -0.369428 0.126694 0.920582
vn 0.922672 -0.382183 0.051118
vn 0.924466 -0.379296 -0.038683
vn 0.382606 -0.923692 0.020170
vn 0.074981 -0.997176 0.004232
vn 0.063626 -0.996143 -0.060428
vn 0.379297 -0.924466 -0.038683
vn 0.011026 -0.169120 0.985534
vn 0.369429 -0.126694 0.920582
vn 0.369429 0.126694 0.920582
vn 0.011026 0.169120 0.985534
vn 0.920582 -0.126694 0.369429
vn 0.967581 -0.142246 0.208695
vn 0.964665 0.169246 0.201932
vn 0.920582 0.126694 0.369429
vn -0.928842 0.368817 0.035036
vn -0.924451 0.378975 -0.042043
vn -0.377264 0.926002 0.013859
vn -0.378975 0.924451 -0.042043
vn -0.068272 0.994653 0.077495
vn -0.079092 0.931764 0.354345
vn -0.034103 0.930792 0.363956
vn 0.000280 0.995872 0.090769
vn -0.169614 0.373547 0.911972
vn -0.039482 0.382385 0.923159
vn 0.075629 0.997127 0.004269
vn 0.382606 0.923692 0.020170
vn 0.379296 0.924466 -0.038683
vn 0.067601 0.995400 -0.067893
vn 0.920285 0.389326 0.038744
vn 0.924469 0.379408 -0.037509
vn -0.920582 0.126694 -0.369428
vn -0.920582 -0.126694 -0.369428
vn -0.369429 0.126694 -0.920582
vn -0.369428 -0.126694 -0.920582
vn -0.119769 0.376578 -0.918610
vn -0.005958 0.382676 -0.923863
vn -0.071909 0.922782 -0.378553
vn -0.002040 0.923878 -0.382682
vn -0.016016 0.169504 -0.985399
vn 0.369429 0.126694 -0.920582
vn 0.369429 -0.126694 -0.920582
vn -0.016016 -0.169504 -0.985399
vn 0.920582 0.126694 -0.369429
vn 0.920582 -0.126694 -0.369429
vn -0.071909 -0.922782 -0.378553
vn -0.002006 -0.922146 -0.386838
vn -0.119769 -0.376578 -0.918610
vn -0.005958 -0.382676 -0.923863
vn -0.915077 -0.372895 0.153568
vn -0.881547 -0.333823 0.333823
vn -0.375945 -0.921412 0.098314
vn -0.333824 -0.881546 0.333824
vn -0.333823 -0.333824 0.881546
vn 0.029795 -0.925167 0.378389
vn 0.051241 -0.995728 0.076808
vn 0.376432 -0.919877 0.110114
vn 0.333824 -0.881546 0.333824
vn 0.907532 -0.370769 0.197272
vn 0.881546 -0.333823 0.333823
vn -0.003639 -0.378747 0.925493
vn 0.333823 -0.333824 0.881546
vn -0.266605 0.963322 0.030532
vn -0.333824 0.881546 0.333823
vn -0.915077 0.372895 0.153568
vn -0.881547 0.333823 0.333823
vn -0.333823 0.333824 0.881546
vn 0.925131 0.330178 0.187392
vn 0.881546 0.333824 0.333824
vn 0.298027 0.952378 0.064472
vn 0.059125 0.995310 0.076571
vn 0.029795 0.925167 0.378389
vn 0.333824 0.881546 0.333823
vn -0.003639 0.378747 0.925493
vn 0.333823 0.333824 0.881546
vn -0.333823 0.333824 -0.881546
vn -0.881546 0.333824 -0.333823
vn -0.333823 0.881546 -0.333823
vn 0.881546 0.333824 -0.333824
vn -0.028264 0.379117 -0.924917
vn 0.333823 0.333824 -0.881546
vn 0.016337 0.925256 -0.378991
vn 0.333824 0.881546 -0.333823
vn -0.333824 -0.881546 -0.333824
vn -0.881546 -0.333824 -0.333823
vn -0.333823 -0.333824 -0.881546
vn 0.881546 -0.333824 -0.333824
vn 0.016955 -0.929065 -0.369528
vn 0.333824 -0.881546 -0.333824
vn -0.028264 -0.379117 -0.924917
vn 0.333823 -0.333824 -0.881546
vn 0.000000 1.000000 -0.000000
vn -0.053011 0.998594 -0.000827
vn 0.291664 0.956236 0.023341
vn 0.057592 0.998329 0.004706
vn 0.982939 0.176791 0.050747
vn 0.931451 0.347909 0.106578
vn 0.982504 -0.160774 0.094004
vn 0.921176 -0.381564 0.076449
vn 0.075370 -0.997135 0.006461
vn 0.382523 -0.923492 0.028978
vn -0.067412 -0.997706 0.006122
vn 0.000000 -1.000000 -0.000000
vn -0.382465 -0.923352 0.033791
vn -0.980356 -0.176712 0.087609
vn -0.920696 -0.381364 0.082953
vn -0.982390 0.163903 0.089699
vn -0.926411 0.366175 0.087632
vn -0.188424 0.982083 -0.003112
vn 0.000000 1.000000 0.000000
vn -0.055471 0.998460 0.000793
vn 0.332288 0.943151 -0.007148
vn 0.071487 0.997440 -0.001693
vn 0.982802 0.175751 -0.056673
vn 0.922527 0.382123 -0.054099
vn 0.982278 -0.178916 -0.055844
vn 0.922609 -0.382157 -0.052416
vn 0.074535 -0.997209 -0.004304
vn 0.382601 -0.923679 -0.020817
vn -0.075588 -0.997134 -0.003092
vn 0.000000 -1.000000 -0.000000
vn -0.378773 -0.925386 -0.013861
vn -0.983908 -0.174759 -0.037218
vn -0.923281 -0.382435 -0.035999
vn -0.976803 0.206699 -0.055960
vn -0.917349 0.398065 0.003783
vn -0.180655 0.983544 0.002196
vn 0.000000 1.000000 0.000000
vn -0.070696 0.997490 0.003864
vn 0.382683 0.923880 0.000069
vn 0.061513 0.998106 -0.000013
vn 0.983631 0.180194 0.000086
vn 0.920020 0.391872 -0.000077
vn 0.982455 -0.186500 0.000034
vn 0.923880 -0.382683 -0.000075
vn 0.064360 -0.997927 -0.000013
vn 0.382684 -0.923879 0.000069
vn -0.054927 -0.998487 -0.002786
vn 0.000000 -1.000000 0.000000
vn -0.375840 -0.926667 -0.005671
vn -0.983145 -0.179813 -0.033052
vn -0.923464 -0.382511 -0.029999
vn -0.981958 0.188676 -0.012626
vn -0.895321 0.439766 -0.070762
vn -0.239428 0.970880 0.008084
vn 0.000000 1.000000 0.000000
vn 0.000020 0.997381 0.072330
vn 0.000000 1.000000 0.000000
vn 0.000000 1.000000 -0.000000
vn 0.000000 1.000000 -0.000000
vn 0.000034 0.998090 -0.061778
vn -0.000191 0.923880 -0.382683
vn -0.000091 0.179114 -0.983828
vn 0.000202 0.382683 -0.923880
vn -0.000091 -0.179114 -0.983828
vn 0.000202 -0.382683 -0.923880
vn -0.001560 -0.998660 -0.051725
vn 0.009178 -0.922667 -0.385489
vn 0.000000 -1.000000 0.000000
vn 0.000000 -1.000000 -0.000000
vn 0.000000 -1.000000 -0.000000
vn 0.000000 -1.000000 0.000000
vn 0.000026 -0.997727 0.067394
vn -0.000140 -0.923880 0.382683
vn -0.000066 -0.178590 0.983924
vn 0.000146 -0.382683 0.923880
vn -0.000066 0.178590 0.983924
vn 0.000146 0.382683 0.923880
vn -0.000150 0.921559 0.388238
s 1
g Plaque
usemtl lambert2SG
f 37/1/1 135/2/2 136/3/3 100/4/4
s 2
f 142/5/5 143/6/6 17/7/7 5/8/8
s 3
f 103/9/9 27/10/10 39/11/11 102/12/12
s 4
f 43/13/13 31/14/14 96/15/15 97/16/16
s 5
f 129/17/17 130/18/18 29/19/19 93/20/20
s 6
f 132/21/21 133/22/22 41/23/23 25/24/24
s 1
f 100/4/4 101/25/25 38/26/26 37/1/1
s 3
f 101/25/27 102/12/12 39/11/11 38/26/28
s 2
f 5/8/8 4/27/29 141/28/30 142/5/5
s 1
f 4/27/31 3/29/32 140/30/33 141/28/34
s 3
f 1/31/35 6/32/36 16/33/37 15/34/38
s 2
f 6/32/39 5/8/8 17/7/7 16/33/40
s 4
f 97/16/16 98/35/41 44/36/42 43/13/13
s 1
f 98/35/43 99/37/44 45/38/45 44/36/46
s 2
f 11/39/47 10/40/48 24/41/49 23/42/50
s 4
f 10/40/51 9/43/52 19/44/53 24/41/54
s 3
f 103/9/9 104/45/55 28/46/56 27/10/10
s 5
f 104/45/57 93/20/20 29/19/19 28/46/58
f 13/47/59 18/48/60 144/49/61 125/50/62
s 2
f 18/48/63 17/7/7 143/6/6 144/49/64
s 5
f 94/51/65 95/52/66 36/53/67 35/54/68
s 4
f 95/52/69 96/15/15 31/14/14 36/53/70
s 3
f 27/10/10 26/55/71 40/56/72 39/11/11
s 6
f 26/55/73 25/24/24 41/23/23 40/56/74
f 25/24/24 30/57/75 131/58/76 132/21/21
s 5
f 30/57/77 29/19/19 130/18/18 131/58/78
s 6
f 33/59/79 32/60/80 48/61/81 47/62/82
s 4
f 32/60/83 31/14/14 43/13/13 48/61/84
s 1
f 37/1/1 42/63/85 134/64/86 135/2/2
s 6
f 42/63/87 41/23/23 133/22/22 134/64/88
s 3
f 6/32/36 1/31/35 2/65/89 49/66/90
s 1
f 2/65/91 3/29/32 4/27/31 49/66/92
s 2
f 4/27/29 5/8/8 6/32/39 49/66/93
s 1
f 12/67/94 7/68/95 8/69/96 50/70/97
s 4
f 8/69/98 9/43/52 10/40/51 50/70/99
s 2
f 10/40/48 11/39/47 12/67/100 50/70/101
s 5
f 18/48/60 13/47/59 14/71/102 51/72/103
s 3
f 14/71/104 15/34/38 16/33/37 51/72/105
s 2
f 16/33/40 17/7/7 18/48/63 51/72/106
s 4
f 24/41/54 19/44/53 20/73/107 52/74/108
s 5
f 20/73/109 21/75/110 22/76/111 52/74/112
s 2
f 22/76/113 23/42/50 24/41/49 52/74/114
s 6
f 30/57/75 25/24/24 26/55/73 53/77/115
s 3
f 26/55/71 27/10/10 28/46/56 53/77/116
s 5
f 28/46/58 29/19/19 30/57/77 53/77/117
s 4
f 36/53/70 31/14/14 32/60/83 54/78/118
s 6
f 32/60/80 33/59/79 34/79/119 54/78/120
s 5
f 34/79/121 35/54/68 36/53/67 54/78/122
s 1
f 42/63/85 37/1/1 38/26/26 55/80/123
s 3
f 38/26/28 39/11/11 40/56/72 55/80/124
s 6
f 40/56/74 41/23/23 42/63/87 55/80/125
s 4
f 48/61/84 43/13/13 44/36/42 56/81/126
s 1
f 44/36/46 45/38/45 46/82/127 56/81/128
s 6
f 46/82/129 47/62/82 48/61/81 56/81/130
s 5
f 125/50/62 126/83/131 57/84/132 13/47/59
f 21/75/110 20/73/109 59/85/133 58/86/134
s 4
f 20/73/107 19/44/53 60/87/135 59/85/136
f 61/88/137 60/87/135 19/44/53 9/43/52
f 9/43/52 8/69/98 62/89/138 61/88/137
s 1
f 8/69/96 7/68/95 63/90/139 62/89/140
f 64/91/141 139/92/142 140/30/33 3/29/32
f 3/29/32 2/65/91 65/93/143 64/91/141
s 3
f 2/65/89 1/31/35 66/94/144 65/93/145
f 15/34/38 67/95/146 66/94/144 1/31/35
f 15/34/38 14/71/104 68/96/147 67/95/146
s 5
f 14/71/102 13/47/59 57/84/132 68/96/148
f 126/83/131 127/97/149 69/98/150 57/84/132
f 58/86/134 59/85/133 71/99/151 70/100/152
s 4
f 59/85/136 60/87/135 72/101/153 71/99/154
f 73/102/155 72/101/153 60/87/135 61/88/137
f 61/88/137 62/89/138 74/103/156 73/102/155
s 1
f 62/89/140 63/90/139 75/104/157 74/103/158
f 76/105/159 138/106/160 139/92/142 64/91/141
f 64/91/141 65/93/143 77/107/161 76/105/159
s 3
f 65/93/145 66/94/144 78/108/162 77/107/163
f 67/95/146 79/109/164 78/108/162 66/94/144
f 67/95/146 68/96/147 80/110/165 79/109/164
s 5
f 68/96/148 57/84/132 69/98/150 80/110/166
f 127/97/149 128/111/167 81/112/168 69/98/150
f 70/100/152 71/99/151 83/113/169 82/114/170
s 4
f 71/99/154 72/101/153 84/115/171 83/113/172
f 85/116/173 84/115/171 72/101/153 73/102/155
f 73/102/155 74/103/156 86/117/174 85/116/173
s 1
f 74/103/158 75/104/157 87/118/175 86/117/176
f 88/119/177 137/120/178 138/106/160 76/105/159
f 76/105/159 77/107/161 89/121/179 88/119/177
s 3
f 77/107/163 78/108/162 90/122/180 89/121/181
f 79/109/164 91/123/182 90/122/180 78/108/162
f 79/109/164 80/110/165 92/124/183 91/123/182
s 5
f 80/110/166 69/98/150 81/112/168 92/124/184
f 128/111/167 129/17/17 93/20/20 81/112/168
f 82/114/170 83/113/169 95/52/66 94/51/65
s 4
f 83/113/172 84/115/171 96/15/15 95/52/69
f 97/16/16 96/15/15 84/115/171 85/116/173
f 85/116/173 86/117/174 98/35/41 97/16/16
s 1
f 86/117/176 87/118/175 99/37/44 98/35/43
f 100/4/4 136/3/3 137/120/178 88/119/177
f 88/119/177 89/121/179 101/25/25 100/4/4
s 3
f 89/121/181 90/122/180 102/12/12 101/25/27
f 91/123/182 103/9/9 102/12/12 90/122/180
f 91/123/182 92/124/183 104/45/55 103/9/9
s 5
f 92/124/184 81/112/168 93/20/20 104/45/57
f 21/75/110 58/86/134 106/125/185 105/126/186
f 58/86/134 70/100/152 107/127/187 106/125/185
f 70/100/152 82/114/170 108/128/188 107/127/187
f 82/114/170 94/51/65 109/129/189 108/128/188
f 94/51/65 35/54/68 110/130/190 109/129/189
f 111/131/191 110/130/190 35/54/68 34/79/121
s 6
f 112/132/192 111/131/193 34/79/119 33/59/79
f 33/59/79 47/62/82 113/133/194 112/132/192
f 114/134/195 113/133/194 47/62/82 46/82/129
s 1
f 115/135/196 114/134/197 46/82/127 45/38/45
f 116/136/198 115/135/196 45/38/45 99/37/44
f 117/137/199 116/136/198 99/37/44 87/118/175
f 118/138/200 117/137/199 87/118/175 75/104/157
f 119/139/201 118/138/200 75/104/157 63/90/139
f 120/140/202 119/139/201 63/90/139 7/68/95
f 121/141/203 120/140/202 7/68/95 12/67/94
s 2
f 122/142/204 121/141/205 12/67/100 11/39/47
f 11/39/47 23/42/50 123/143/206 122/142/204
f 124/144/207 123/143/206 23/42/50 22/76/113
s 5
f 105/126/186 124/144/208 22/76/111 21/75/110
f 105/126/186 106/125/185 126/83/131 125/50/62
f 106/125/185 107/127/187 127/97/149 126/83/131
f 107/127/187 108/128/188 128/111/167 127/97/149
f 108/128/188 109/129/189 129/17/17 128/111/167
f 109/129/189 110/130/190 130/18/18 129/17/17
f 131/58/78 130/18/18 110/130/190 111/131/191
s 6
f 132/21/21 131/58/76 111/131/193 112/132/192
f 112/132/192 113/133/194 133/22/22 132/21/21
f 134/64/88 133/22/22 113/133/194 114/134/195
s 1
f 135/2/2 134/64/86 114/134/197 115/135/196
f 136/3/3 135/2/2 115/135/196 116/136/198
f 137/120/178 136/3/3 116/136/198 117/137/199
f 138/106/160 137/120/178 117/137/199 118/138/200
f 139/92/142 138/106/160 118/138/200 119/139/201
f 140/30/33 139/92/142 119/139/201 120/140/202
f 141/28/34 140/30/33 120/140/202 121/141/203
s 2
f 142/5/5 141/28/30 121/141/205 122/142/204
f 122/142/204 123/143/206 143/6/6 142/5/5
f 144/49/64 143/6/6 123/143/206 124/144/207
s 5
f 125/50/62 144/49/61 124/144/208 105/126/186
