# This file uses centimeters as units for non-parametric coordinates.

mtllib Pole.mtl
g default
v 0.014682 0.955713 -0.025431
v -0.014682 0.955713 -0.025431
v -0.029365 0.955713 -0.000000
v -0.014682 0.955713 0.025431
v 0.014682 0.955713 0.025431
v 0.029365 0.955713 0.000000
v 0.025431 0.977210 -0.044047
v -0.025431 0.977210 -0.044047
v -0.050861 0.977210 -0.000000
v -0.025431 0.977210 0.044047
v 0.025431 0.977210 0.044047
v 0.050861 0.977210 0.000000
v 0.029365 1.006575 -0.050861
v -0.029365 1.006575 -0.050861
v -0.058730 1.006575 -0.000000
v -0.029365 1.006575 0.050861
v 0.029365 1.006575 0.050861
v 0.058730 1.006575 0.000000
v 0.025431 1.035939 -0.044047
v -0.025431 1.035939 -0.044047
v -0.050861 1.035939 -0.000000
v -0.025431 1.035939 0.044047
v 0.025431 1.035939 0.044047
v 0.050861 1.035939 0.000000
v 0.014682 1.057436 -0.025431
v -0.014682 1.057436 -0.025431
v -0.029365 1.057436 -0.000000
v -0.014682 1.057436 0.025431
v 0.014682 1.057436 0.025431
v 0.029365 1.057436 0.000000
v -0.000000 0.947845 0.000000
v -0.000000 1.065304 0.000000
v 0.011554 0.000000 -0.035560
v -0.030249 0.000000 -0.021977
v -0.030249 0.000000 0.021977
v 0.011554 0.000000 0.035560
v 0.037390 0.000000 -0.000000
v 0.011554 0.973877 -0.035560
v -0.030249 0.973877 -0.021977
v -0.030249 0.973877 0.021977
v 0.011554 0.973877 0.035560
v 0.037390 0.973877 0.000000
v -0.000000 0.973877 0.000000
v 0.121643 0.000000 -0.121406
v -0.000255 0.000000 -0.171897
v -0.122153 0.000000 -0.121406
v -0.172645 0.000000 0.000493
v -0.122153 0.000000 0.122391
v -0.000255 0.000000 0.172883
v 0.121643 0.000000 0.122391
v 0.172135 0.000000 0.000493
v 0.121643 0.030813 -0.121406
v -0.000255 0.030813 -0.171897
v -0.122153 0.030813 -0.121406
v -0.172645 0.030813 0.000493
v -0.122153 0.030813 0.122391
v -0.000255 0.030813 0.172883
v 0.121643 0.030813 0.122391
v 0.172135 0.030813 0.000493
v -0.000255 0.030813 0.000493
vt 0.207798 0.791474
vt 0.213483 0.816544
vt 0.212293 0.843539
vt 0.202258 0.799757
vt 0.198507 0.820639
vt 0.186338 0.850054
vt 0.178121 0.800254
vt 0.151183 0.814581
vt 0.172246 0.775481
vt 0.140584 0.771693
vt 0.186942 0.770795
vt 0.165680 0.763378
vt 0.195053 0.865655
vt 0.183006 0.814753
vt 0.165277 0.872678
vt 0.124594 0.831234
vt 0.111806 0.781531
vt 0.140403 0.772064
vt 0.165978 0.876656
vt 0.155036 0.832417
vt 0.140511 0.882571
vt 0.104988 0.846106
vt 0.093501 0.802770
vt 0.118057 0.794989
vt 0.132953 0.873154
vt 0.126364 0.847629
vt 0.118476 0.876662
vt 0.097715 0.855274
vt 0.090948 0.830051
vt 0.105115 0.825913
vt 0.198791 0.791785
vt 0.105342 0.855973
vt 0.765203 0.415565
vt 0.757341 0.443498
vt 0.200154 0.838366
vt 0.201540 0.807214
vt 0.728457 0.437047
vt 0.169692 0.823922
vt 0.718084 0.405573
vt 0.151874 0.784428
vt 0.740561 0.391889
vt 0.171113 0.773382
vt 0.178749 0.805552
vt 0.822531 0.345086
vt 0.860609 0.444543
vt 0.847646 0.454364
vt 0.809064 0.354178
vt 0.826588 0.523832
vt 0.813847 0.533923
vt 0.747057 0.537700
vt 0.734202 0.547495
vt 0.669089 0.484872
vt 0.655881 0.494068
vt 0.632347 0.395410
vt 0.618692 0.404019
vt 0.657344 0.315128
vt 0.643370 0.323414
vt 0.735530 0.291281
vt 0.721613 0.299724
vt 0.728135 0.428084
vn 0.000000 -0.654655 -0.755928
vn 0.000000 -0.654655 -0.755928
vn 0.000000 -0.654655 -0.755928
vn 0.000000 -0.654655 -0.755928
vn -0.654653 -0.654654 -0.377965
vn -0.654653 -0.654654 -0.377965
vn -0.654653 -0.654654 -0.377965
vn -0.654653 -0.654654 -0.377965
vn -0.654653 -0.654654 0.377965
vn -0.654653 -0.654654 0.377965
vn -0.654653 -0.654654 0.377965
vn -0.654653 -0.654654 0.377965
vn -0.000000 -0.654654 0.755929
vn -0.000000 -0.654654 0.755929
vn -0.000000 -0.654654 0.755929
vn -0.000000 -0.654654 0.755929
vn 0.654653 -0.654654 0.377965
vn 0.654653 -0.654654 0.377965
vn 0.654653 -0.654654 0.377965
vn 0.654653 -0.654654 0.377965
vn 0.654654 -0.654654 -0.377963
vn 0.654654 -0.654654 -0.377963
vn 0.654654 -0.654654 -0.377963
vn 0.654654 -0.654654 -0.377963
vn 0.000000 -0.226044 -0.974117
vn 0.000000 -0.226044 -0.974117
vn 0.000000 -0.226044 -0.974117
vn 0.000000 -0.226044 -0.974117
vn -0.843610 -0.226045 -0.487058
vn -0.843610 -0.226045 -0.487058
vn -0.843610 -0.226045 -0.487058
vn -0.843610 -0.226045 -0.487058
vn -0.843610 -0.226045 0.487058
vn -0.843610 -0.226045 0.487058
vn -0.843610 -0.226045 0.487058
vn -0.843610 -0.226045 0.487058
vn -0.000000 -0.226044 0.974117
vn -0.000000 -0.226044 0.974117
vn -0.000000 -0.226044 0.974117
vn -0.000000 -0.226044 0.974117
vn 0.843610 -0.226045 0.487059
vn 0.843610 -0.226045 0.487059
vn 0.843610 -0.226045 0.487059
vn 0.843610 -0.226045 0.487059
vn 0.843610 -0.226045 -0.487058
vn 0.843610 -0.226045 -0.487058
vn 0.843610 -0.226045 -0.487058
vn 0.843610 -0.226045 -0.487058
vn 0.000000 0.226045 -0.974117
vn 0.000000 0.226045 -0.974117
vn 0.000000 0.226045 -0.974117
vn 0.000000 0.226045 -0.974117
vn -0.843610 0.226045 -0.487059
vn -0.843610 0.226045 -0.487059
vn -0.843610 0.226045 -0.487059
vn -0.843610 0.226045 -0.487059
vn -0.843611 0.226045 0.487057
vn -0.843611 0.226045 0.487057
vn -0.843611 0.226045 0.487057
vn -0.843611 0.226045 0.487057
vn -0.000000 0.226045 0.974117
vn -0.000000 0.226045 0.974117
vn -0.000000 0.226045 0.974117
vn -0.000000 0.226045 0.974117
vn 0.843610 0.226044 0.487059
vn 0.843610 0.226044 0.487059
vn 0.843610 0.226044 0.487059
vn 0.843610 0.226044 0.487059
vn 0.843611 0.226045 -0.487057
vn 0.843611 0.226045 -0.487057
vn 0.843611 0.226045 -0.487057
vn 0.843611 0.226045 -0.487057
vn 0.000000 0.654654 -0.755929
vn 0.000000 0.654654 -0.755929
vn 0.000000 0.654654 -0.755929
vn 0.000000 0.654654 -0.755929
vn -0.654653 0.654654 -0.377965
vn -0.654653 0.654654 -0.377965
vn -0.654653 0.654654 -0.377965
vn -0.654653 0.654654 -0.377965
vn -0.654653 0.654654 0.377965
vn -0.654653 0.654654 0.377965
vn -0.654653 0.654654 0.377965
vn -0.654653 0.654654 0.377965
vn -0.000000 0.654654 0.755929
vn -0.000000 0.654654 0.755929
vn -0.000000 0.654654 0.755929
vn -0.000000 0.654654 0.755929
vn 0.654654 0.654654 0.377964
vn 0.654654 0.654654 0.377964
vn 0.654654 0.654654 0.377964
vn 0.654654 0.654654 0.377964
vn 0.654653 0.654653 -0.377967
vn 0.654653 0.654653 -0.377967
vn 0.654653 0.654653 -0.377967
vn 0.654653 0.654653 -0.377967
vn 0.000000 -0.955319 -0.295576
vn 0.000000 -0.955319 -0.295576
vn 0.000000 -0.955319 -0.295576
vn -0.255977 -0.955318 -0.147793
vn -0.255977 -0.955318 -0.147793
vn -0.255977 -0.955318 -0.147793
vn -0.255977 -0.955319 0.147790
vn -0.255977 -0.955319 0.147790
vn -0.255977 -0.955319 0.147790
vn -0.000000 -0.955319 0.295578
vn -0.000000 -0.955319 0.295578
vn -0.000000 -0.955319 0.295578
vn 0.255977 -0.955319 0.147788
vn 0.255977 -0.955319 0.147788
vn 0.255977 -0.955319 0.147788
vn 0.255977 -0.955319 -0.147790
vn 0.255977 -0.955319 -0.147790
vn 0.255977 -0.955319 -0.147790
vn 0.000000 0.955321 -0.295572
vn 0.000000 0.955321 -0.295572
vn 0.000000 0.955321 -0.295572
vn -0.255977 0.955318 -0.147793
vn -0.255977 0.955318 -0.147793
vn -0.255977 0.955318 -0.147793
vn -0.255977 0.955318 0.147793
vn -0.255977 0.955318 0.147793
vn -0.255977 0.955318 0.147793
vn -0.000000 0.955320 0.295574
vn -0.000000 0.955320 0.295574
vn -0.000000 0.955320 0.295574
vn 0.255977 0.955319 0.147790
vn 0.255977 0.955319 0.147790
vn 0.255977 0.955319 0.147790
vn 0.255977 0.955318 -0.147793
vn 0.255977 0.955318 -0.147793
vn 0.255977 0.955318 -0.147793
vn -0.309017 0.000000 -0.951057
vn -0.309017 0.000000 -0.951057
vn -0.309017 0.000000 -0.951057
vn -0.309017 0.000000 -0.951057
vn -1.000000 0.000000 -0.000000
vn -1.000000 0.000000 -0.000000
vn -1.000000 0.000000 -0.000000
vn -1.000000 0.000000 -0.000000
vn -0.309017 0.000000 0.951057
vn -0.309017 0.000000 0.951057
vn -0.309017 0.000000 0.951057
vn -0.309017 0.000000 0.951057
vn 0.809017 0.000000 0.587785
vn 0.809017 0.000000 0.587785
vn 0.809017 0.000000 0.587785
vn 0.809017 0.000000 0.587785
vn 0.809017 0.000000 -0.587785
vn 0.809017 0.000000 -0.587785
vn 0.809017 0.000000 -0.587785
vn 0.809017 0.000000 -0.587785
vn 0.000000 1.000000 0.000001
vn 0.000000 1.000000 0.000001
vn 0.000000 1.000000 -0.000001
vn 0.000000 1.000000 -0.000003
vn 0.000000 1.000000 -0.000004
vn 0.000000 1.000000 -0.000001
vn 0.382683 -0.000000 -0.923880
vn 0.382683 -0.000000 -0.923880
vn 0.382683 -0.000000 -0.923880
vn 0.382683 -0.000000 -0.923880
vn -0.382683 -0.000000 -0.923880
vn -0.382683 -0.000000 -0.923880
vn -0.382683 -0.000000 -0.923880
vn -0.382683 -0.000000 -0.923880
vn -0.923880 0.000000 -0.382683
vn -0.923880 0.000000 -0.382683
vn -0.923880 0.000000 -0.382683
vn -0.923880 0.000000 -0.382683
vn -0.923880 0.000001 0.382683
vn -0.923880 0.000001 0.382683
vn -0.923880 0.000001 0.382683
vn -0.923880 0.000001 0.382683
vn -0.382684 0.000000 0.923880
vn -0.382684 0.000000 0.923880
vn -0.382684 0.000000 0.923880
vn -0.382684 0.000000 0.923880
vn 0.382683 0.000000 0.923880
vn 0.382683 0.000000 0.923880
vn 0.382683 0.000000 0.923880
vn 0.382683 0.000000 0.923880
vn 0.923880 0.000000 0.382684
vn 0.923880 0.000000 0.382684
vn 0.923880 0.000000 0.382683
vn 0.923880 0.000000 0.382684
vn 0.923880 -0.000001 -0.382684
vn 0.923880 -0.000001 -0.382684
vn 0.923880 -0.000001 -0.382684
vn 0.923880 -0.000001 -0.382684
vn 0.000000 1.000000 0.000000
vn 0.000000 1.000000 -0.000000
vn 0.000000 1.000000 0.000000
vn 0.000000 1.000000 0.000000
vn 0.000000 1.000000 0.000000
vn 0.000000 1.000000 0.000000
vn 0.000000 1.000000 0.000000
vn 0.000000 1.000000 -0.000000
vn 0.000000 1.000000 -0.000000
s off
g Pole1
usemtl lambert2SG
f 1/1/1 2/2/2 8/3/3 7/4/4
f 2/2/5 3/5/6 9/6/7 8/3/8
f 3/5/9 4/7/10 10/8/11 9/6/12
f 4/7/13 5/9/14 11/10/15 10/8/16
f 5/9/17 6/11/18 12/12/19 11/10/20
f 6/11/21 1/1/22 7/4/23 12/12/24
f 7/4/25 8/3/26 14/13/27 13/14/28
f 8/3/29 9/6/30 15/15/31 14/13/32
f 9/6/33 10/8/34 16/16/35 15/15/36
f 10/8/37 11/10/38 17/17/39 16/16/40
f 11/10/41 12/12/42 18/18/43 17/17/44
f 12/12/45 7/4/46 13/14/47 18/18/48
f 13/14/49 14/13/50 20/19/51 19/20/52
f 14/13/53 15/15/54 21/21/55 20/19/56
f 15/15/57 16/16/58 22/22/59 21/21/60
f 16/16/61 17/17/62 23/23/63 22/22/64
f 17/17/65 18/18/66 24/24/67 23/23/68
f 18/18/69 13/14/70 19/20/71 24/24/72
f 19/20/73 20/19/74 26/25/75 25/26/76
f 20/19/77 21/21/78 27/27/79 26/25/80
f 21/21/81 22/22/82 28/28/83 27/27/84
f 22/22/85 23/23/86 29/29/87 28/28/88
f 23/23/89 24/24/90 30/30/91 29/29/92
f 24/24/93 19/20/94 25/26/95 30/30/96
f 2/2/97 1/1/98 31/31/99
f 3/5/100 2/2/101 31/31/102
f 4/7/103 3/5/104 31/31/105
f 5/9/106 4/7/107 31/31/108
f 6/11/109 5/9/110 31/31/111
f 1/1/112 6/11/113 31/31/114
f 25/26/115 26/25/116 32/32/117
f 26/25/118 27/27/119 32/32/120
f 27/27/121 28/28/122 32/32/123
f 28/28/124 29/29/125 32/32/126
f 29/29/127 30/30/128 32/32/129
f 30/30/130 25/26/131 32/32/132
f 33/33/133 34/34/134 39/35/135 38/36/136
f 34/34/137 35/37/138 40/38/139 39/35/140
f 35/37/141 36/39/142 41/40/143 40/38/144
f 36/39/145 37/41/146 42/42/147 41/40/148
f 37/41/149 33/33/150 38/36/151 42/42/152
s 1
f 38/36/153 39/35/154 43/43/155
f 39/35/154 40/38/156 43/43/155
f 40/38/156 41/40/157 43/43/155
f 41/40/157 42/42/158 43/43/155
f 42/42/158 38/36/153 43/43/155
s off
f 44/44/159 45/45/160 53/46/161 52/47/162
f 45/45/163 46/48/164 54/49/165 53/46/166
f 46/48/167 47/50/168 55/51/169 54/49/170
f 47/50/171 48/52/172 56/53/173 55/51/174
f 48/52/175 49/54/176 57/55/177 56/53/178
f 49/54/179 50/56/180 58/57/181 57/55/182
f 50/56/183 51/58/184 59/59/185 58/57/186
f 51/58/187 44/44/188 52/47/189 59/59/190
s 2
f 60/60/191 53/46/192 54/49/193 55/51/194
f 60/60/191 55/51/194 56/53/195 57/55/196
f 60/60/191 57/55/196 58/57/197 59/59/198
f 60/60/191 59/59/198 52/47/199 53/46/192
