# This file uses centimeters as units for non-parametric coordinates.

mtllib Pyramid.mtl
g default
v -0.009877 0.000000 -1.930300
v -1.938360 0.000000 -0.001817
v -0.009878 0.000000 1.926666
v 1.918605 -0.000000 -0.001817
v -0.009878 1.928483 -0.001817
v -0.009877 0.455598 -1.474701
v 0.954364 0.964241 -0.001817
v -0.009878 1.317968 0.608698
v 0.954364 0.000000 0.962424
v -0.581681 1.356679 -0.001817
v -0.974119 0.000000 -0.966058
v -1.260021 0.678340 -0.001817
v -0.974119 0.000000 0.962424
v -0.009878 1.681251 0.245414
v -0.856378 1.081982 -0.001817
v -1.364593 0.000000 -0.575584
v -0.454204 0.000000 -1.485973
v -0.273367 0.870821 -0.795989
v -0.817382 0.000000 -1.122795
v -0.488735 1.210209 -0.241233
v -0.009878 1.484457 -0.445842
v 1.462120 0.456485 -0.001817
v -0.009877 0.215687 -1.714613
v -0.368593 0.412259 -1.159325
v -0.661796 0.572930 -0.705451
v -0.788333 0.642271 -0.509573
v -1.123997 0.512225 -0.303955
v -1.617225 0.321135 -0.001817
v -0.517634 0.623944 0.794965
v -0.009878 0.271378 1.655288
v -0.880126 0.128474 0.927944
v -1.872237 0.066124 -0.001817
v -1.315053 0.105470 -0.519654
v -0.935864 0.132248 -0.872065
v -0.785346 0.117970 -1.036861
v -0.436576 0.084887 -1.418714
v -0.009877 0.044411 -1.885888
v 1.824612 0.093993 -0.001817
v 0.954364 0.198543 0.763881
v 0.447364 1.150231 0.319193
v 0.447364 0.236840 1.232584
v 0.447364 -0.000000 1.469424
v -1.179431 -0.000000 -0.760746
v -1.135242 0.118168 -0.686767
v -0.964826 0.573893 -0.401459
v -0.726117 1.212243 -0.001817
v -0.009878 1.798488 0.128178
v 0.595763 0.775077 -0.549582
v 0.914685 0.366932 -0.638805
v 1.142366 0.075554 -0.702502
v 1.201404 -0.000000 -0.719019
v -0.915829 0.000000 -1.024349
v -0.879887 0.126938 -0.933353
v -0.741274 0.616483 -0.582420
v -0.547114 1.302207 -0.090856
v -0.009878 1.763350 -0.166950
vt 0.760117 0.766251
vt 0.946346 0.495579
vt 0.948718 0.944800
vt 0.133655 0.866952
vt 0.500386 0.520362
vt 0.051282 0.944801
vt 0.336082 0.346858
vt 0.053643 0.495579
vt 0.674275 0.336408
vt 0.944000 0.051070
vt 0.180640 0.182712
vt 0.055979 0.051070
vt 0.499989 0.051070
vt 0.570803 0.445869
vt 0.273135 0.280386
vt 0.054589 0.315573
vt 0.052370 0.737797
vt 0.226934 0.627290
vt 0.053259 0.568600
vt 0.303178 0.431399
vt 0.389829 0.624847
vt 0.859432 0.860273
vt 0.090278 0.907946
vt 0.135011 0.685482
vt 0.171574 0.503647
vt 0.187354 0.425172
vt 0.158052 0.298915
vt 0.114995 0.113391
vt 0.582499 0.186153
vt 0.888462 0.109823
vt 0.516978 0.078885
vt 0.068131 0.063903
vt 0.075892 0.312143
vt 0.081175 0.481082
vt 0.077621 0.555226
vt 0.069386 0.727025
vt 0.059312 0.937212
vt 0.930333 0.927396
vt 0.908001 0.551312
vt 0.714981 0.540239
vt 0.897727 0.319177
vt 0.945112 0.261856
vt 0.054140 0.400932
vt 0.078397 0.392254
vt 0.171947 0.358786
vt 0.302985 0.311907
vt 0.537412 0.481194
vt 0.527136 0.803702
vt 0.573384 0.878002
vt 0.606401 0.931046
vt 0.614962 0.944801
vt 0.053500 0.522735
vt 0.079853 0.508656
vt 0.181485 0.454357
vt 0.323845 0.378299
vt 0.459270 0.559220
vn 0.577350 0.577350 0.577350
vn 0.577350 0.577350 0.577350
vn 0.577350 0.577350 0.577350
vn 0.577350 0.577350 0.577350
vn 0.577350 0.577350 -0.577350
vn 0.577350 0.577350 -0.577350
vn 0.577350 0.577350 -0.577350
vn 0.577350 0.577350 -0.577350
vn 0.577350 0.577350 -0.577350
vn 0.577350 0.577350 -0.577350
vn 0.577350 0.577350 -0.577350
vn 0.577350 0.577350 -0.577350
vn -0.577350 0.577350 -0.577350
vn -0.577350 0.577350 -0.577350
vn -0.577350 0.577350 -0.577350
vn -0.577350 0.577350 -0.577350
vn -0.577350 0.577350 -0.577350
vn -0.577350 0.577350 -0.577350
vn -0.577350 0.577350 -0.577350
vn -0.577350 0.577350 -0.577350
vn 0.577350 0.577350 0.577350
vn 0.577350 0.577350 0.577350
vn 0.577350 0.577350 0.577350
vn 0.577350 0.577350 0.577350
vn 0.577350 0.577350 0.577350
vn 0.577350 0.577350 0.577350
vn 0.577350 0.577350 0.577350
vn 0.577350 0.577350 0.577350
vn -0.577350 0.577350 -0.577350
vn -0.577350 0.577350 -0.577350
vn -0.577350 0.577350 -0.577350
vn -0.577350 0.577350 -0.577350
vn -0.577350 0.577350 0.577350
vn -0.577350 0.577350 0.577350
vn -0.577350 0.577350 0.577350
vn -0.577350 0.577350 0.577350
vn -0.577350 0.577350 0.577350
vn -0.577350 0.577350 0.577350
vn -0.577350 0.577350 0.577350
vn -0.577350 0.577350 0.577350
vn -0.577350 0.577350 0.577350
vn -0.577350 0.577350 0.577350
vn -0.577350 0.577350 0.577350
vn -0.577350 0.577350 0.577350
vn -0.577350 0.577350 0.577350
vn -0.577350 0.577350 0.577350
vn -0.577350 0.577350 0.577350
vn -0.577350 0.577350 0.577350
vn -0.577350 0.577350 -0.577350
vn -0.577350 0.577350 -0.577350
vn -0.577350 0.577350 -0.577350
vn -0.577350 0.577350 -0.577350
vn -0.577350 0.577350 -0.577350
vn -0.577350 0.577350 -0.577350
vn -0.577350 0.577350 -0.577350
vn -0.577350 0.577350 -0.577350
vn -0.577350 0.577350 -0.577350
vn -0.577350 0.577350 -0.577350
vn 0.577350 0.577350 -0.577350
vn 0.577350 0.577350 -0.577350
vn 0.577350 0.577350 -0.577350
vn 0.577351 0.577350 -0.577350
vn -0.577350 0.577350 -0.577350
vn -0.577350 0.577350 -0.577350
vn -0.577350 0.577350 -0.577350
vn -0.577350 0.577350 -0.577351
vn -0.577350 0.577350 -0.577350
vn -0.577350 0.577350 -0.577350
vn -0.577350 0.577351 -0.577350
vn -0.577350 0.577351 -0.577350
vn -0.577350 0.577351 -0.577350
vn -0.577350 0.577350 -0.577350
vn -0.577350 0.577350 -0.577350
vn -0.577350 0.577350 -0.577350
vn -0.577350 0.577350 -0.577350
vn -0.577350 0.577350 -0.577350
vn -0.577350 0.577351 -0.577350
vn -0.577350 0.577350 -0.577350
vn -0.577350 0.577350 0.577350
vn -0.577350 0.577350 0.577350
vn -0.577350 0.577350 0.577350
vn -0.577350 0.577350 0.577350
vn -0.577350 0.577350 0.577350
vn -0.577350 0.577350 0.577350
vn 0.577350 0.577350 0.577350
vn 0.577350 0.577350 0.577350
vn 0.577350 0.577350 0.577350
vn 0.577350 0.577350 0.577350
vn 0.577350 0.577350 0.577350
vn 0.577350 0.577350 0.577350
vn 0.577350 0.577350 0.577350
vn 0.577350 0.577350 0.577350
vn 0.577350 0.577350 0.577350
vn 0.577350 0.577350 -0.577350
vn 0.577350 0.577350 -0.577350
vn 0.577350 0.577350 -0.577350
vn 0.577351 0.577350 -0.577350
vn -0.577350 0.577350 -0.577350
vn -0.577350 0.577350 -0.577350
vn -0.577350 0.577350 -0.577350
vn -0.577350 0.577350 -0.577350
vn -0.577350 0.577350 -0.577351
vn -0.577350 0.577350 -0.577351
vn 0.577350 0.577350 -0.577350
vn 0.577350 0.577350 -0.577350
s 1
g Pyramid
usemtl lambert2SG
f 39/39/1 9/2/2 4/3/3 38/38/4
s 2
f 56/56/5 48/48/6 6/4/7 21/21/8
s 3
f 23/23/9 6/4/10 48/48/11 49/49/12
s 4
f 6/4/13 18/18/14 20/20/15 21/21/16
s 5
f 24/24/17 18/18/18 6/4/19 23/23/20
s 6
f 47/47/21 40/40/22 7/1/23 5/5/24
s 7
f 9/2/25 39/39/26 41/41/27 42/42/28
s 8
f 12/11/29 15/15/30 27/27/31 28/28/32
s 9
f 15/15/33 12/11/34 8/9/35 14/14/36
s 10
f 30/30/37 31/31/38 13/13/39 3/10/40
s 11
f 29/29/41 8/9/42 12/11/43 28/28/44
s 9
f 10/7/45 46/46/46 47/47/47 5/5/48
s 8
f 45/45/49 46/46/50 10/7/51 26/26/52
s 5
f 25/25/53 20/20/54 18/18/18 24/24/17
f 54/54/55 55/55/56 20/20/54 25/25/53
s 4
f 21/21/16 20/20/15 55/55/57 56/56/58
s 3
f 1/6/59 37/37/60 50/50/61 51/51/62
s 5
f 17/17/63 36/36/64 37/37/65 1/6/66
f 19/19/67 35/35/68 36/36/64 17/17/63
f 52/52/69 53/53/70 35/35/68 19/19/67
s 8
f 43/43/71 44/44/72 34/34/73 11/8/74
f 32/32/75 33/33/76 16/16/77 2/12/78
s 11
f 13/13/79 31/31/80 32/32/81 2/12/82
s 10
f 8/9/83 29/29/84 31/31/38 30/30/37
s 11
f 32/32/81 31/31/80 29/29/41 28/28/44
s 8
f 28/28/32 27/27/31 33/33/76 32/32/75
f 34/34/73 44/44/72 45/45/49 26/26/52
s 5
f 35/35/68 53/53/70 54/54/55 25/25/53
f 36/36/64 35/35/68 25/25/53 24/24/17
f 37/37/65 36/36/64 24/24/17 23/23/20
s 3
f 50/50/61 37/37/60 23/23/9 49/49/12
s 1
f 7/1/85 39/39/1 38/38/4 22/22/86
s 7
f 41/41/27 39/39/26 7/1/87 40/40/88
f 30/30/89 41/41/27 40/40/88 8/9/90
f 42/42/28 41/41/27 30/30/89 3/10/91
s 8
f 16/16/77 33/33/76 44/44/72 43/43/71
f 45/45/49 44/44/72 33/33/76 27/27/31
f 27/27/31 15/15/30 46/46/50 45/45/49
s 9
f 47/47/47 46/46/46 15/15/33 14/14/36
s 6
f 8/9/92 40/40/22 47/47/21 14/14/93
s 3
f 49/49/12 48/48/11 7/1/94 22/22/95
f 38/38/96 50/50/61 49/49/12 22/22/95
f 51/51/62 50/50/61 38/38/96 4/3/97
s 5
f 11/8/98 34/34/99 53/53/70 52/52/69
f 54/54/55 53/53/70 34/34/99 26/26/100
f 26/26/100 10/7/101 55/55/56 54/54/55
s 4
f 56/56/58 55/55/57 10/7/102 5/5/103
s 2
f 7/1/104 48/48/6 56/56/5 5/5/105
