# This file uses centimeters as units for non-parametric coordinates.

mtllib Tall_Display.mtl
g default
v -4.000000 -0.000000 4.000000
v 4.000000 -0.000000 4.000000
v -4.000000 8.706167 4.000000
v 4.000000 8.706167 4.000000
v -4.000000 8.706167 -4.000000
v 4.000000 8.706167 -4.000000
v -4.000000 -0.000000 -4.000000
v 4.000000 -0.000000 -4.000000
v -3.133333 9.054346 3.133333
v 3.133333 9.054346 3.133333
v 3.133333 9.054346 -3.133333
v -3.133333 9.054346 -3.133333
vt 0.502050 0.013230
vt 0.747026 0.013230
vt 0.747026 0.279831
vt 0.502050 0.279830
vt 0.528589 0.306370
vt 0.720487 0.306370
vt 0.720487 0.498267
vt 0.528589 0.498267
vt 0.992002 0.013230
vt 0.257074 0.013230
vt 0.747026 0.524806
vt 0.502050 0.524806
vt 0.257074 0.279830
vt 0.012098 0.279829
vt 0.012099 0.013229
vt 0.992002 0.279831
vn 0.000000 0.000000 1.000000
vn 0.000000 0.000000 1.000000
vn 0.000000 0.000000 1.000000
vn 0.000000 0.000000 1.000000
vn -0.063480 0.995962 0.063480
vn 0.063480 0.995962 0.063480
vn 0.063480 0.995962 -0.063480
vn -0.063480 0.995962 -0.063480
vn 0.000000 0.000000 -1.000000
vn 0.000000 0.000000 -1.000000
vn 0.000000 0.000000 -1.000000
vn 0.000000 0.000000 -1.000000
vn 1.000000 0.000000 0.000000
vn 1.000000 0.000000 0.000000
vn 1.000000 0.000000 0.000000
vn 1.000000 0.000000 0.000000
vn -1.000000 0.000000 0.000000
vn -1.000000 0.000000 0.000000
vn -1.000000 0.000000 0.000000
vn -1.000000 0.000000 0.000000
vn 0.000000 0.927917 0.372786
vn 0.000000 0.927917 0.372786
vn 0.372786 0.927917 0.000000
vn 0.372786 0.927917 0.000000
vn 0.000000 0.927917 -0.372786
vn 0.000000 0.927917 -0.372786
vn -0.372786 0.927917 0.000000
vn -0.372786 0.927917 0.000000
s off
g pCube1
usemtl phong1SG
f 1/1/1 2/2/2 4/3/3 3/4/4
s 1
f 9/5/5 10/6/6 11/7/7 12/8/8
s off
f 5/13/9 6/14/10 8/15/11 7/10/12
f 2/2/13 8/9/14 6/16/15 4/3/16
f 7/10/17 1/1/18 3/4/19 5/13/20
s 1
f 3/4/21 4/3/22 10/6/6 9/5/5
f 4/3/23 6/11/24 11/7/7 10/6/6
f 6/11/25 5/12/26 12/8/8 11/7/7
f 5/12/27 3/4/28 9/5/5 12/8/8
g default
v -4.000000 8.706166 4.000000
v 4.000000 8.706166 4.000000
v -4.000000 16.706166 4.000000
v 4.000000 16.706166 4.000000
v -4.000000 16.706166 -4.000000
v 4.000000 16.706166 -4.000000
v -4.000000 8.706166 -4.000000
v 4.000000 8.706166 -4.000000
v -3.898924 8.706166 3.898924
v 3.898924 8.706166 3.898924
v -3.898924 16.706166 3.898924
v 3.898924 16.706166 3.898924
v -3.898924 16.706166 -3.898924
v 3.898924 16.706166 -3.898924
v -3.898924 8.706166 -3.898924
v 3.898924 8.706166 -3.898924
v -3.898924 12.706166 3.898920
v 3.898924 12.706166 3.898920
v -3.898924 12.706166 -3.898920
v 3.898924 12.706166 -3.898920
vt 0.873071 0.879323
vt 0.975326 0.879323
vt 0.973952 0.980890
vt 0.873071 0.981577
vt 0.873071 0.981577
vt 0.973952 0.980890
vt 0.975326 0.879323
vt 0.873071 0.879323
vt 0.874363 0.879323
vt 0.972660 0.878636
vt 0.972660 0.980890
vt 0.874363 0.981577
vt 0.874363 0.981577
vt 0.972660 0.980890
vt 0.972660 0.878636
vt 0.874363 0.879323
vt 0.972660 0.929763
vt 0.874363 0.930450
vt 0.972660 0.929763
vt 0.874363 0.930450
vt 0.873052 0.878975
vt 0.975307 0.878975
vt 0.975307 0.981230
vt 0.873052 0.981230
vt 0.974506 0.981330
vt 0.872252 0.981330
vt 0.872252 0.879076
vt 0.974506 0.879076
vt 0.973952 0.878636
vt 0.973952 0.878636
vt 0.973952 0.980890
vt 0.973952 0.980890
vt 0.873071 0.879323
vt 0.873071 0.879323
vt 0.873071 0.981577
vt 0.873071 0.981577
vt 0.975326 0.879323
vt 0.873071 0.879323
vt 0.874363 0.879323
vt 0.974034 0.879323
vt 0.871698 0.980890
vt 0.973952 0.980890
vt 0.972660 0.980890
vt 0.872990 0.980890
vt 0.973952 0.980890
vt 0.871698 0.980890
vt 0.872990 0.980890
vt 0.972660 0.980890
vt 0.873071 0.879323
vt 0.975326 0.879323
vt 0.974034 0.879323
vt 0.874363 0.879323
vt 0.874363 0.981577
vt 0.874363 0.981577
vt 0.972660 0.980890
vt 0.972660 0.980890
vt 0.874363 0.879323
vt 0.874363 0.879323
vt 0.974034 0.879323
vt 0.974034 0.879323
vt 0.873954 0.930214
vt 0.873954 0.879087
vt 0.973624 0.879087
vt 0.973624 0.930214
vt 0.973624 0.981341
vt 0.873954 0.981341
vt 0.975304 0.931034
vt 0.975304 0.982161
vt 0.875633 0.982161
vt 0.875633 0.931034
vt 0.875633 0.879907
vt 0.975304 0.879907
vn 0.000000 0.000000 1.000000
vn 0.000000 0.000000 1.000000
vn 0.000000 0.000000 1.000000
vn 0.000000 0.000000 1.000000
vn 0.000000 0.000000 -1.000000
vn 0.000000 0.000000 -1.000000
vn 0.000000 0.000000 -1.000000
vn 0.000000 0.000000 -1.000000
vn 1.000000 0.000000 0.000000
vn 1.000000 0.000000 0.000000
vn 1.000000 0.000000 0.000000
vn 1.000000 0.000000 0.000000
vn -1.000000 0.000000 0.000000
vn -1.000000 0.000000 0.000000
vn -1.000000 0.000000 0.000000
vn -1.000000 0.000000 0.000000
vn 0.000000 -1.000000 0.000000
vn 0.000000 -1.000000 0.000000
vn 0.000000 -1.000000 0.000000
vn 0.000000 -1.000000 0.000000
vn 0.000000 1.000000 -0.000000
vn 0.000000 1.000000 -0.000000
vn 0.000000 1.000000 -0.000000
vn 0.000000 1.000000 -0.000000
vn 0.000000 1.000000 0.000000
vn 0.000000 1.000000 0.000000
vn 0.000000 1.000000 0.000000
vn 0.000000 1.000000 0.000000
vn 0.000000 -1.000000 -0.000000
vn 0.000000 -1.000000 -0.000000
vn 0.000000 -1.000000 -0.000000
vn 0.000000 -1.000000 -0.000000
vn 0.000000 0.000000 -1.000000
vn 0.000000 0.000000 -1.000000
vn 0.000000 0.000000 -1.000000
vn 0.000000 0.000000 -1.000000
vn 0.000000 0.000000 -1.000000
vn 0.000000 0.000000 -1.000000
vn 0.000000 0.000000 1.000000
vn 0.000000 0.000000 1.000000
vn 0.000000 0.000000 1.000000
vn 0.000000 0.000000 1.000000
vn 0.000000 0.000000 1.000000
vn 0.000000 0.000000 1.000000
vn 1.000000 0.000000 0.000000
vn 1.000000 0.000000 0.000000
vn 1.000000 0.000000 0.000000
vn 1.000000 0.000000 0.000000
vn 1.000000 0.000000 0.000000
vn 1.000000 0.000000 0.000000
vn -1.000000 0.000000 0.000000
vn -1.000000 0.000000 0.000000
vn -1.000000 0.000000 0.000000
vn -1.000000 0.000000 0.000000
vn -1.000000 0.000000 0.000000
vn -1.000000 0.000000 0.000000
s off
g pCube2
usemtl phong1SG
f 13/37/29 14/38/30 16/39/31 15/40/32
f 17/41/33 18/42/34 20/43/35 19/44/36
f 14/45/37 20/46/38 18/47/39 16/48/40
f 19/49/41 13/50/42 15/51/43 17/52/44
s 1
f 14/53/45 13/54/46 21/55/47 22/56/48
s 2
f 15/57/49 16/58/50 24/59/51 23/60/52
f 18/61/53 17/62/54 25/63/55 26/64/56
s 1
f 19/65/57 20/66/58 28/67/59 27/68/60
s 2
f 17/21/54 15/20/49 23/69/52 25/70/55
f 16/19/50 18/22/53 26/71/56 24/72/51
s 1
f 13/17/46 19/24/57 27/73/60 21/74/47
f 20/23/58 14/18/45 22/75/48 28/76/59
s off
f 30/77/61 22/78/62 21/79/63 29/80/64 23/81/65 24/82/66
f 32/83/67 26/84/68 25/85/69 31/86/70 27/87/71 28/88/72
f 29/34/73 21/25/74 27/32/75 31/36/76 25/29/77 23/28/78
f 32/35/79 28/31/80 22/26/81 30/33/82 24/27/83 26/30/84
g default
v -4.000000 16.706168 4.000000
v 4.000000 16.706168 4.000000
v -4.000000 17.525721 4.000000
v 4.000000 17.525721 4.000000
v -4.000000 17.525721 -4.000000
v 4.000000 17.525721 -4.000000
v -4.000000 16.706168 -4.000000
v 4.000000 16.706168 -4.000000
v -3.266666 17.866755 3.266666
v 3.266666 17.866755 3.266666
v 3.266666 17.866755 -3.266666
v -3.266666 17.866755 -3.266666
vt 0.076164 0.458912
vt 0.442641 0.458912
vt 0.442641 0.496456
vt 0.076164 0.496456
vt 0.109758 0.530049
vt 0.409047 0.530049
vt 0.409047 0.829339
vt 0.109758 0.829339
vt 0.038621 0.862933
vt 0.038621 0.496456
vt 0.442641 0.862933
vt 0.076164 0.862933
vt 0.480184 0.862933
vt 0.480184 0.496456
vt 0.442641 0.900476
vt 0.076164 0.900476
vn 0.000000 0.000000 1.000000
vn 0.000000 0.000000 1.000000
vn 0.000000 0.000000 1.000000
vn 0.000000 0.000000 1.000000
vn -0.062155 0.996129 0.062155
vn 0.062155 0.996129 0.062155
vn 0.062155 0.996129 -0.062155
vn -0.062155 0.996129 -0.062155
vn 0.000000 0.000000 -1.000000
vn 0.000000 0.000000 -1.000000
vn 0.000000 0.000000 -1.000000
vn 0.000000 0.000000 -1.000000
vn 1.000000 0.000000 0.000000
vn 1.000000 0.000000 0.000000
vn 1.000000 0.000000 0.000000
vn 1.000000 0.000000 0.000000
vn -1.000000 0.000000 0.000000
vn -1.000000 0.000000 0.000000
vn -1.000000 0.000000 0.000000
vn -1.000000 0.000000 0.000000
vn 0.000000 0.906745 0.421679
vn 0.000000 0.906745 0.421679
vn 0.421678 0.906745 0.000000
vn 0.421678 0.906745 0.000000
vn 0.000000 0.906745 -0.421679
vn 0.000000 0.906745 -0.421679
vn -0.421678 0.906745 0.000000
vn -0.421678 0.906745 0.000000
s off
g pCube3
usemtl phong1SG
f 33/89/85 34/90/86 36/91/87 35/92/88
s 1
f 41/93/89 42/94/90 43/95/91 44/96/92
s off
f 37/100/93 38/99/94 40/103/95 39/104/96
f 34/102/97 40/101/98 38/99/99 36/91/100
f 39/97/101 33/98/102 35/92/103 37/100/104
s 1
f 35/92/105 36/91/106 42/94/90 41/93/89
f 36/91/107 38/99/108 43/95/91 42/94/90
f 38/99/109 37/100/110 44/96/92 43/95/91
f 37/100/111 35/92/112 41/93/89 44/96/92
