# This file uses centimeters as units for non-parametric coordinates.

mtllib Kesh_sign_right.mtl
g default
v 0.388331 1.577691 -0.382620
v 0.477448 1.302287 -0.383566
v 0.318579 1.555120 -0.382620
v 0.407697 1.279716 -0.383566
v 0.319794 1.551368 0.824945
v 0.408911 1.275964 0.824000
v 0.389545 1.573938 0.824945
v 0.478663 1.298535 0.824000
v 0.432416 1.441454 -0.854425
v 0.362664 1.418883 -0.854425
v 0.535225 1.123738 -0.384179
v 0.465473 1.101167 -0.384179
v 0.330554 1.756240 -0.382008
v 0.260803 1.733669 -0.382008
v -0.293353 3.083716 0.947586
v 0.704479 -0.000000 0.947586
v -0.186896 3.118164 0.947586
v 0.810936 0.034447 0.947586
v -0.186896 3.118164 -0.943523
v 0.810936 0.034447 -0.943523
v -0.293353 3.083716 -0.943523
v 0.704479 -0.000000 -0.943523
v -0.067689 0.000000 0.180922
v 0.048050 0.000000 0.180922
v -0.067689 2.079446 0.180922
v 0.048050 2.079446 0.180922
v -0.067689 2.079446 -0.192197
v 0.048050 2.079446 -0.192197
v -0.067689 0.000000 -0.192197
v 0.048050 0.000000 -0.192197
v 0.067274 2.332616 0.686410
v 0.165960 2.027643 0.705532
v 0.126095 2.351650 0.686410
v 0.224781 2.046677 0.705532
v 0.113005 2.392102 -0.771378
v 0.224781 2.046677 -0.734206
v 0.054184 2.373068 -0.771378
v 0.165960 2.027643 -0.734206
v 0.224781 2.046677 -0.510360
v 0.126095 2.351650 -0.510360
v 0.067274 2.332616 -0.510360
v 0.165960 2.027643 -0.510360
v 0.204563 2.109156 -0.249341
v 0.111417 2.397010 -0.249341
v 0.052596 2.377976 -0.249341
v 0.145742 2.090122 -0.249341
v 0.206324 2.103714 0.011677
v 0.136362 2.319922 0.011677
v 0.077541 2.300889 0.011677
v 0.147503 2.084680 0.011677
v 0.194070 2.141584 0.272695
v 0.146581 2.288342 0.272695
v 0.087760 2.269308 0.272695
v 0.135249 2.122550 0.272695
v 0.208123 2.098154 0.533713
v 0.126095 2.351650 0.533713
v 0.067274 2.332616 0.533713
v 0.149302 2.079120 0.533713
v 0.191886 2.148335 0.794732
v 0.191886 2.148335 0.560193
v 0.183815 2.173276 0.272695
v 0.185833 2.167039 0.011677
v 0.181377 2.180808 -0.201572
v 0.198758 2.127095 -0.573803
v 0.191886 2.148335 -0.734523
v 0.133065 2.129301 -0.734523
v 0.139937 2.108062 -0.573803
v 0.122556 2.161774 -0.201572
v 0.127012 2.148005 0.011677
v 0.124994 2.154243 0.272695
v 0.133065 2.129301 0.560193
v 0.133065 2.129301 0.794732
v 0.158990 2.249992 0.676916
v 0.149640 2.278887 0.483620
v 0.162496 2.239160 0.329317
v 0.167737 2.222962 0.074285
v 0.145120 2.292855 -0.348342
v 0.158990 2.249992 -0.471361
v 0.158990 2.249992 -0.795356
v 0.100169 2.230958 -0.795356
v 0.100169 2.230958 -0.471361
v 0.086299 2.273821 -0.348342
v 0.108916 2.203929 0.074285
v 0.103675 2.220126 0.329317
v 0.090819 2.259853 0.483620
v 0.100169 2.230958 0.676916
v 0.168325 2.020333 -0.069117
v 0.227146 2.039366 -0.069117
v 0.178487 1.988929 -0.207317
v 0.237308 2.007963 -0.207317
v 0.017119 2.487613 -0.533230
v 0.023654 2.467417 -0.351167
v 0.082475 2.486451 -0.351167
v 0.075939 2.506647 -0.533230
v 0.041561 2.412078 0.580595
v 0.041561 2.412078 0.632047
v 0.100382 2.431112 0.632047
v 0.100382 2.431112 0.580595
v 0.037264 2.425358 0.227630
v 0.063474 2.344360 0.300333
v 0.101807 2.446244 0.227630
v 0.128017 2.365246 0.300333
v 0.118213 2.395545 0.039636
v 0.136696 2.338425 0.071864
v 0.053669 2.374659 0.039636
v 0.072153 2.317539 0.071864
vt 0.084130 0.136991
vt 0.152354 0.136991
vt 0.152354 0.421605
vt 0.084130 0.421605
vt 0.152354 0.421605
vt 0.084130 0.421605
vt 0.152354 0.136991
vt 0.084130 0.136991
vt 0.118242 0.025901
vt 0.196585 0.136991
vt 0.196585 0.136991
vt 0.118242 0.025901
vt 0.039899 0.136991
vt 0.039899 0.136991
vt 0.606853 0.457059
vt 0.606853 0.049051
vt 0.620939 0.049051
vt 0.620939 0.457059
vt 0.858999 0.049051
vt 0.858999 0.457059
vt 0.873084 0.049051
vt 0.873084 0.457059
vt 0.368793 0.457059
vt 0.368793 0.049051
vt 0.620939 0.034966
vt 0.858999 0.034966
vt 0.606853 0.471144
vt 0.368793 0.471144
vt 0.304072 0.805144
vt 0.304217 0.770914
vt 0.919215 0.773517
vt 0.919070 0.807747
vt 0.953445 0.773662
vt 0.919682 0.663167
vt 0.953912 0.663312
vt 0.919827 0.628937
vt 0.304684 0.660564
vt 0.304829 0.626334
vt 0.303605 0.915495
vt 0.269375 0.915350
vt 0.269842 0.804999
vt 0.918603 0.918098
vt 0.089675 0.478942
vt 0.124590 0.482044
vt 0.124590 0.482044
vt 0.089675 0.478942
vt 0.114666 0.545210
vt 0.089675 0.528840
vt 0.075781 0.955317
vt 0.124590 0.963152
vt 0.124590 0.963152
vt 0.075781 0.955317
vt 0.089675 0.528840
vt 0.114666 0.545210
vt 0.194421 0.472693
vt 0.176741 0.528840
vt 0.176741 0.528840
vt 0.194421 0.472693
vt 0.062383 0.513520
vt 0.062383 0.496707
vt 0.062383 0.496707
vt 0.062383 0.513520
vt 0.089675 0.870022
vt 0.124590 0.857278
vt 0.089675 0.870022
vt 0.124590 0.857278
vt 0.194421 0.870022
vt 0.194421 0.870022
vt 0.194421 0.943170
vt 0.194421 0.943170
vt 0.074095 0.784726
vt 0.109869 0.817078
vt 0.036439 0.877495
vt 0.043376 0.818001
vt 0.043376 0.818001
vt 0.036439 0.877495
vt 0.109869 0.817078
vt 0.074095 0.784726
vt 0.172962 0.784726
vt 0.172962 0.784726
vt 0.100572 0.699431
vt 0.133874 0.678972
vt 0.100572 0.699431
vt 0.133874 0.678972
vt 0.196932 0.725833
vt 0.196932 0.725833
vt 0.207718 0.770994
vt 0.207718 0.770994
vt 0.111418 0.614135
vt 0.128311 0.595633
vt 0.111418 0.614135
vt 0.128311 0.595633
vt 0.161824 0.614135
vt 0.161824 0.614135
vt 0.174831 0.699431
vt 0.174831 0.699431
vt 0.159506 0.443545
vt 0.159506 0.520187
vt 0.150939 0.614135
vt 0.153081 0.699431
vt 0.148352 0.769116
vt 0.166801 0.890754
vt 0.159506 0.943274
vt 0.159506 0.943274
vt 0.166801 0.890754
vt 0.148352 0.769116
vt 0.153081 0.699431
vt 0.150939 0.614135
vt 0.159506 0.520187
vt 0.159506 0.443545
vt 0.057821 0.628862
vt 0.085641 0.605104
vt 0.085641 0.605104
vt 0.057821 0.628862
vt 0.094853 0.679763
vt 0.075235 0.690294
vt 0.094853 0.679763
vt 0.075235 0.690294
vn -0.951428 -0.307871 0.000000
vn -0.951428 -0.307871 0.000000
vn -0.951428 -0.307871 -0.000000
vn -0.951428 -0.307871 -0.000000
vn 0.001006 -0.003108 0.999995
vn 0.001006 -0.003108 0.999995
vn 0.001006 -0.003108 0.999995
vn 0.001006 -0.003108 0.999995
vn 0.951428 0.307872 0.000000
vn 0.951428 0.307872 0.000000
vn 0.951428 0.307872 0.000000
vn 0.951428 0.307871 -0.000000
vn 0.307869 -0.951423 -0.003266
vn 0.307869 -0.951423 -0.003266
vn 0.307869 -0.951423 -0.003266
vn 0.307869 -0.951423 -0.003266
vn -0.307869 0.951423 0.003266
vn -0.307869 0.951423 0.003266
vn -0.307869 0.951423 0.003266
vn -0.307869 0.951423 0.003266
vn 0.951428 0.307871 0.000000
vn 0.251017 -0.775731 -0.578992
vn 0.251017 -0.775731 -0.578992
vn -0.001006 0.003107 -0.999995
vn -0.001006 0.003107 -0.999995
vn -0.951428 -0.307871 0.000000
vn -0.252177 0.779313 -0.573654
vn -0.252177 0.779313 -0.573654
vn 0.001006 -0.003107 0.999995
vn 0.001006 -0.003107 0.999995
vn 0.001006 -0.003107 0.999995
vn 0.001006 -0.003107 0.999995
vn -0.951428 -0.307871 0.000000
vn 0.951428 0.307872 0.000000
vn 0.001006 -0.003107 0.999995
vn 0.001006 -0.003107 0.999995
vn 0.001006 -0.003107 0.999995
vn 0.001006 -0.003107 0.999995
vn 0.951428 0.307871 -0.000000
vn -0.951428 -0.307872 0.000000
vn -0.000001 0.000000 1.000000
vn -0.000001 0.000000 1.000000
vn -0.000001 0.000000 1.000000
vn -0.000001 0.000000 1.000000
vn 0.951430 0.307865 0.000000
vn 0.951430 0.307865 0.000000
vn 0.951430 0.307865 0.000000
vn 0.951430 0.307865 0.000000
vn -0.000001 0.000000 -1.000000
vn -0.000001 0.000000 -1.000000
vn -0.000001 0.000000 -1.000000
vn -0.000001 0.000000 -1.000000
vn -0.951430 -0.307865 0.000000
vn -0.951430 -0.307865 0.000000
vn -0.951430 -0.307865 0.000000
vn -0.951430 -0.307865 0.000000
vn 0.307865 -0.951430 0.000000
vn 0.307865 -0.951430 0.000000
vn 0.307865 -0.951430 0.000000
vn 0.307865 -0.951430 0.000000
vn -0.307863 0.951431 0.000000
vn -0.307863 0.951431 0.000000
vn -0.307863 0.951431 0.000000
vn -0.307863 0.951431 0.000000
vn 0.000000 0.000000 1.000000
vn 0.000000 0.000000 1.000000
vn 0.000000 0.000000 1.000000
vn 0.000000 0.000000 1.000000
vn 0.000000 1.000000 0.000000
vn 0.000000 1.000000 0.000000
vn 0.000000 1.000000 0.000000
vn 0.000000 1.000000 0.000000
vn 0.000000 0.000000 -1.000000
vn 0.000000 0.000000 -1.000000
vn 0.000000 0.000000 -1.000000
vn 0.000000 0.000000 -1.000000
vn 0.000000 -1.000000 0.000000
vn 0.000000 -1.000000 0.000000
vn 0.000000 -1.000000 0.000000
vn 0.000000 -1.000000 0.000000
vn 1.000000 0.000000 0.000000
vn 1.000000 0.000000 0.000000
vn 1.000000 0.000000 0.000000
vn 1.000000 0.000000 0.000000
vn -1.000000 0.000000 0.000000
vn -1.000000 0.000000 0.000000
vn -1.000000 0.000000 0.000000
vn -1.000000 0.000000 0.000000
vn -0.074437 0.230034 0.970332
vn -0.112129 0.346516 0.931318
vn -0.112129 0.346516 0.931318
vn -0.074437 0.230034 0.970332
vn 0.951428 0.307872 0.000000
vn 0.951428 0.307871 0.000000
vn 0.951428 0.307871 -0.000000
vn 0.951428 0.307872 -0.000000
vn -0.048798 0.150801 -0.987359
vn 0.054876 -0.169585 -0.983987
vn 0.054876 -0.169585 -0.983987
vn -0.048798 0.150801 -0.987359
vn -0.951428 -0.307871 -0.000000
vn -0.951428 -0.307871 -0.000000
vn -0.951428 -0.307871 -0.000000
vn -0.951428 -0.307871 -0.000000
vn 0.293656 -0.907498 -0.300357
vn 0.299113 -0.924362 -0.236827
vn 0.299113 -0.924362 -0.236827
vn 0.293656 -0.907498 -0.300357
vn -0.307873 0.951427 0.000000
vn -0.307873 0.951427 0.000000
vn -0.307873 0.951427 0.000000
vn -0.307873 0.951427 0.000000
vn 0.951428 0.307872 0.000000
vn 0.951428 0.307871 0.000000
vn 0.951428 0.307871 0.000000
vn 0.951428 0.307872 0.000000
vn -0.303866 0.939051 0.160772
vn -0.303866 0.939051 0.160772
vn -0.303866 0.939051 0.160772
vn -0.303866 0.939051 0.160772
vn -0.951428 -0.307871 -0.000000
vn -0.951428 -0.307871 -0.000000
vn -0.951428 -0.307871 -0.000000
vn -0.951428 -0.307871 -0.000000
vn 0.305536 -0.944213 0.122924
vn 0.305536 -0.944213 0.122924
vn 0.307870 -0.951429 0.000000
vn 0.307870 -0.951429 0.000000
vn 0.951428 0.307871 0.000000
vn 0.951428 0.307871 0.000000
vn -0.305802 0.945026 0.115811
vn -0.305802 0.945026 0.115811
vn -0.305802 0.945026 0.115811
vn -0.305802 0.945026 0.115811
vn -0.951428 -0.307871 0.000000
vn -0.951428 -0.307871 -0.000000
vn 0.298567 -0.922675 0.243983
vn 0.298567 -0.922675 0.243983
vn 0.951428 0.307871 -0.000000
vn 0.951428 0.307871 0.000000
vn -0.294030 0.908658 0.296458
vn -0.300865 0.929779 0.212110
vn -0.300865 0.929779 0.212110
vn -0.294030 0.908658 0.296458
vn -0.951428 -0.307871 0.000000
vn -0.951428 -0.307871 0.000000
vn 0.299449 -0.925401 0.232301
vn 0.299449 -0.925401 0.232301
vn 0.299449 -0.925401 0.232301
vn 0.299449 -0.925401 0.232301
vn 0.951428 0.307871 -0.000000
vn 0.951428 0.307871 -0.000000
vn -0.307289 0.949625 -0.061522
vn -0.307289 0.949625 -0.061522
vn -0.951428 -0.307872 -0.000000
vn -0.951428 -0.307871 0.000000
vn 0.307852 -0.951372 -0.010902
vn 0.307852 -0.951372 -0.010902
vn 0.304351 -0.940556 0.150750
vn 0.304351 -0.940556 0.150750
vn -0.298332 0.921942 -0.247023
vn -0.298332 0.921942 -0.247023
vn 0.951428 0.307871 -0.000000
vn 0.951428 0.307871 -0.000000
vn 0.951428 0.307871 -0.000000
vn 0.951428 0.307871 -0.000000
vn 0.951428 0.307871 -0.000000
vn 0.951428 0.307871 0.000000
vn 0.951428 0.307871 0.000000
vn 0.951428 0.307872 0.000000
vn 0.951428 0.307871 0.000000
vn 0.951428 0.307872 -0.000000
vn 0.951428 0.307872 -0.000000
vn 0.951428 0.307872 -0.000000
vn 0.951428 0.307872 0.000000
vn 0.951428 0.307872 0.000000
vn 0.079228 -0.244839 -0.966321
vn 0.079228 -0.244839 -0.966321
vn 0.000912 -0.002819 -0.999996
vn 0.000912 -0.002819 -0.999996
vn -0.951428 -0.307872 -0.000000
vn -0.951428 -0.307872 0.000000
vn -0.951428 -0.307872 0.000000
vn -0.951428 -0.307872 -0.000000
vn -0.951428 -0.307871 0.000000
vn -0.951428 -0.307872 0.000000
vn -0.951428 -0.307872 0.000000
vn -0.951428 -0.307872 0.000000
vn -0.951428 -0.307872 -0.000000
vn -0.951428 -0.307871 -0.000000
vn -0.951428 -0.307872 -0.000000
vn -0.951428 -0.307872 -0.000000
vn -0.951428 -0.307872 0.000000
vn -0.951428 -0.307872 0.000000
vn -0.021312 0.065860 0.997601
vn -0.021312 0.065860 0.997601
vn 0.197305 -0.609737 0.767653
vn 0.197305 -0.609737 0.767653
vn 0.236073 -0.729552 0.641891
vn 0.236073 -0.729552 0.641891
vn 0.236073 -0.729552 0.641891
vn 0.236073 -0.729552 0.641891
vn -0.951428 -0.307872 0.000000
vn -0.951428 -0.307872 0.000000
vn 0.113135 -0.349624 -0.930034
vn 0.113135 -0.349624 -0.930034
vn 0.113135 -0.349624 -0.930034
vn 0.113135 -0.349624 -0.930034
vn 0.951428 0.307872 0.000000
vn 0.951428 0.307872 0.000000
vn -0.951428 -0.307872 -0.000001
vn -0.951428 -0.307872 -0.000001
vn -0.226209 0.699064 0.678335
vn -0.226209 0.699064 0.678335
vn -0.226209 0.699064 0.678335
vn -0.226209 0.699064 0.678335
vn 0.951428 0.307871 0.000000
vn 0.951428 0.307871 0.000000
vn 0.042801 -0.132268 -0.990289
vn 0.042801 -0.132268 -0.990289
vn 0.042801 -0.132268 -0.990289
vn 0.042801 -0.132268 -0.990289
vn -0.951428 -0.307872 0.000000
vn -0.951428 -0.307872 0.000000
vn -0.167952 0.519026 0.838096
vn -0.167952 0.519026 0.838096
vn 0.951428 0.307872 0.000000
vn 0.951428 0.307872 0.000000
vn -0.150699 0.465709 -0.872012
vn -0.150699 0.465709 -0.872012
vn -0.150699 0.465709 -0.872012
vn -0.150699 0.465709 -0.872012
vn -0.199935 0.617864 0.760441
vn -0.199935 0.617864 0.760441
vn -0.199935 0.617864 0.760441
vn -0.199935 0.617864 0.760441
vn 0.951428 0.307872 0.000000
vn 0.951428 0.307872 0.000000
vn 0.951428 0.307872 0.000000
vn 0.951428 0.307872 0.000000
vn 0.145615 -0.449998 -0.881078
vn 0.145615 -0.449998 -0.881078
vn 0.145615 -0.449998 -0.881078
vn 0.145615 -0.449998 -0.881078
vn -0.951428 -0.307872 0.000000
vn -0.951428 -0.307872 0.000000
vn -0.951428 -0.307872 0.000000
vn -0.951428 -0.307872 0.000000
vn 0.305556 -0.944267 0.122458
vn 0.305556 -0.944267 0.122458
vn 0.305556 -0.944267 0.122458
vn 0.305556 -0.944267 0.122458
vn -0.296203 0.915365 -0.272711
vn -0.296203 0.915365 -0.272711
vn -0.296203 0.915365 -0.272711
vn -0.296203 0.915365 -0.272711
s 1
g Kesh_sign_right
usemtl lambert2SG
f 3/1/1 4/2/2 6/3/3 5/4/4
s off
f 5/4/5 6/3/6 8/5/7 7/6/8
s 2
f 7/6/9 8/5/10 2/7/11 1/8/12
s off
f 2/7/13 8/5/14 6/3/15 4/2/16
f 7/6/17 1/8/18 3/1/19 5/4/20
s 2
f 1/8/12 2/7/11 9/9/21
s 3
f 11/10/22 12/11/23 10/12/24 9/9/25
s 1
f 4/2/2 3/1/1 10/12/26
s 3
f 14/13/27 13/14/28 9/9/25 10/12/24
s off
f 2/7/29 4/2/30 12/11/31 11/10/32
s 1
f 4/2/2 10/12/26 12/11/33
s 2
f 9/9/21 2/7/11 11/10/34
s off
f 3/1/35 1/8/36 13/14/37 14/13/38
s 2
f 1/8/12 9/9/21 13/14/39
s 1
f 10/12/26 3/1/1 14/13/40
s off
f 15/15/41 16/16/42 18/17/43 17/18/44
f 17/18/45 18/17/46 20/19/47 19/20/48
f 19/20/49 20/19/50 22/21/51 21/22/52
f 21/23/53 22/24/54 16/16/55 15/15/56
f 16/25/57 22/26/58 20/19/59 18/17/60
f 21/23/61 15/15/62 17/27/63 19/28/64
f 23/29/65 24/30/66 26/31/67 25/32/68
f 25/33/69 26/31/70 28/34/71 27/35/72
f 27/36/73 28/34/74 30/37/75 29/38/76
f 29/39/77 30/40/78 24/41/79 23/29/80
f 24/30/81 30/37/82 28/34/83 26/31/84
f 29/39/85 23/29/86 25/32/87 27/42/88
s 4
f 31/43/89 86/44/90 73/45/91 33/46/92
s 5
f 33/46/93 73/45/94 74/47/95 56/48/96
s 6
f 35/49/97 79/50/98 80/51/99 37/52/100
s 7
f 57/53/101 85/54/102 86/44/103 31/43/104
s 8
f 32/55/105 58/56/106 55/57/107 34/58/108
s off
f 95/59/109 96/60/110 97/61/111 98/62/112
s 5
f 40/63/113 78/64/114 79/50/115 35/49/116
s off
f 37/52/117 41/65/118 40/63/119 35/49/120
s 7
f 37/52/121 80/51/122 81/66/123 41/65/124
s 11
f 39/67/125 42/68/126 38/69/127 36/70/128
s 5
f 44/71/129 77/72/130 78/64/114 40/63/113
s off
f 91/73/131 92/74/132 93/75/133 94/76/134
s 7
f 41/65/124 81/66/123 82/77/135 45/78/136
s 11
f 43/79/137 46/80/138 42/68/126 39/67/125
s 5
f 48/81/139 76/82/140 77/72/130 44/71/129
s 12
f 45/78/141 49/83/142 48/81/143 44/71/144
s 7
f 45/78/136 82/77/135 83/84/145 49/83/146
s off
f 88/85/147 87/86/148 89/87/149 90/88/150
s 5
f 52/89/151 75/90/152 76/82/140 48/81/139
s 12
f 49/83/142 53/91/153 52/89/154 48/81/143
s 7
f 49/83/146 83/84/145 84/92/155 53/91/156
s 8
f 51/93/157 54/94/158 50/95/159 47/96/160
s 5
f 56/48/96 74/47/95 75/90/152 52/89/151
s 12
f 53/91/153 57/53/161 56/48/162 52/89/154
s 7
f 53/91/156 84/92/155 85/54/102 57/53/101
s 8
f 55/57/107 58/56/106 54/94/158 51/93/157
s 5
f 59/97/163 34/58/164 55/57/165 60/98/166
f 61/99/167 60/98/166 55/57/165 51/93/168
f 62/100/169 61/99/167 51/93/168 47/96/170
f 63/101/171 62/100/169 47/96/170 43/79/172
f 64/102/173 63/101/171 43/79/172 39/67/174
f 65/103/175 64/102/173 39/67/174 36/70/176
s 6
f 66/104/177 65/103/178 36/70/179 38/69/180
s 7
f 67/105/181 66/104/182 38/69/183 42/68/184
f 68/106/185 67/105/181 42/68/184 46/80/186
f 69/107/187 68/106/185 46/80/186 50/95/188
f 70/108/189 69/107/187 50/95/188 54/94/190
f 71/109/191 70/108/189 54/94/190 58/56/192
f 72/110/193 71/109/191 58/56/192 32/55/194
s 4
f 59/97/195 72/110/196 32/55/197 34/58/198
s 5
f 73/45/94 59/97/163 60/98/166 74/47/95
f 75/90/152 74/47/95 60/98/166 61/99/167
f 76/82/140 75/90/152 61/99/167 62/100/169
f 77/72/130 76/82/140 62/100/169 63/101/171
f 78/64/114 77/72/130 63/101/171 64/102/173
f 79/50/115 78/64/114 64/102/173 65/103/175
s 6
f 80/51/99 79/50/98 65/103/178 66/104/177
s 7
f 81/66/123 80/51/122 66/104/182 67/105/181
f 82/77/135 81/66/123 67/105/181 68/106/185
f 83/84/145 82/77/135 68/106/185 69/107/187
f 84/92/155 83/84/145 69/107/187 70/108/189
f 85/54/102 84/92/155 70/108/189 71/109/191
f 86/44/103 85/54/102 71/109/191 72/110/193
s 4
f 73/45/91 86/44/90 72/110/196 59/97/195
s off
f 47/96/199 50/95/200 87/86/201 88/85/202
s 7
f 50/95/188 46/80/186 89/87/203 87/86/204
s off
f 46/80/205 43/79/206 90/88/207 89/87/208
s 5
f 43/79/172 47/96/170 88/85/209 90/88/210
s 7
f 41/65/124 45/78/136 92/74/211 91/73/212
s off
f 45/78/213 44/71/214 93/75/215 92/74/216
s 5
f 44/71/129 40/63/113 94/76/217 93/75/218
s off
f 40/63/219 41/65/220 91/73/221 94/76/222
s 7
f 57/53/101 31/43/104 96/60/223 95/59/224
s 4
f 31/43/89 33/46/92 97/61/225 96/60/226
s 5
f 33/46/93 56/48/96 98/62/227 97/61/228
s off
f 56/48/229 57/53/230 95/59/231 98/62/232
f 99/111/233 100/112/234 102/113/235 101/114/236
f 101/114/237 102/113/238 104/115/239 103/116/240
f 103/116/241 104/115/242 106/117/243 105/118/244
f 105/118/245 106/117/246 100/112/247 99/111/248
f 100/112/249 106/117/250 104/115/251 102/113/252
f 105/118/253 99/111/254 101/114/255 103/116/256
