# This file uses centimeters as units for non-parametric coordinates.

mtllib Door_Large.mtl
g default
v 0.163098 0.000000 0.591278
v 0.285977 0.000000 0.591278
v 0.163098 2.567394 0.591278
v 0.285977 2.567394 0.591278
v 0.163098 2.567394 -1.021330
v 0.285977 2.567394 -1.021330
v 0.163098 0.000000 -1.021330
v 0.285977 0.000000 -1.021330
v 0.285977 2.567394 -0.874321
v 0.163098 2.567394 -0.737305
v 0.163098 0.000000 -0.737305
v 0.285977 0.000000 -0.544623
v 0.285977 2.567394 0.454960
v 0.163098 2.567394 0.307254
v 0.163098 0.000000 0.307254
v 0.285977 0.000000 0.486293
v 0.285977 1.806356 0.591278
v 0.163098 2.330467 0.591278
v 0.163098 2.330467 -1.021330
v 0.285977 1.916338 -1.021330
v 0.285977 2.330467 -0.737305
v 0.285977 2.330467 0.307254
v 0.285977 0.696494 0.591278
v 0.163098 0.236927 0.591278
v 0.163098 0.236927 -1.021330
v 0.285977 0.554113 -1.021330
v 0.285977 0.236927 -0.737305
v 0.285977 0.236927 0.307254
v 0.257259 2.190898 -0.667668
v 0.257259 2.190898 0.237617
v 0.257259 0.376497 -0.667668
v 0.257259 0.376497 0.237617
v 0.257259 2.145538 -0.645036
v 0.257259 2.145538 0.214985
v 0.257259 0.421857 -0.645036
v 0.257259 0.421857 0.214985
v 0.279763 2.088082 -0.616369
v 0.279763 2.088082 0.186317
v 0.279763 0.479313 -0.616369
v 0.279763 0.479313 0.186317
v 0.279763 1.283697 -0.215026
v 0.279763 2.088082 -0.207067
v 0.257259 2.145538 -0.337137
v 0.257259 2.190898 -0.068369
v 0.285977 2.330467 -0.204669
v 0.285977 2.567394 -0.423334
v 0.163098 2.567394 -0.204669
v 0.163098 0.000000 -0.204669
v 0.285977 0.000000 -0.204669
v 0.285977 0.236927 -0.418741
v 0.257259 0.376497 -0.206050
v 0.257259 0.421857 -0.006497
v 0.279763 0.479313 -0.207067
v 0.279763 1.140470 0.186317
v 0.257259 0.915407 0.214985
v 0.257259 1.448446 0.237617
v 0.285977 0.889672 0.307254
v 0.285977 1.242036 0.591278
v 0.163098 1.242036 0.591278
v 0.163098 1.242036 -1.021330
v 0.285977 1.242036 -1.021330
v 0.285977 1.574098 -0.737305
v 0.257259 1.102287 -0.667668
v 0.257259 1.346690 -0.645036
v 0.279763 1.586295 -0.616369
v 0.285977 1.192652 -0.801724
v 0.285977 0.843771 -0.801724
v 0.315273 1.192652 -0.801724
v 0.315273 0.843771 -0.801724
v 0.315273 1.192652 -0.981887
v 0.315273 0.843771 -0.981887
v 0.285977 1.192652 -0.981887
v 0.285977 0.843771 -0.981887
v 0.313511 1.167454 -0.869883
v 0.313511 0.877409 -0.869883
v 0.334800 1.167454 -0.869883
v 0.334800 0.877409 -0.869883
v 0.334800 1.167454 -0.911945
v 0.334800 0.877409 -0.911945
v 0.313511 1.167454 -0.911945
v 0.313511 0.877409 -0.911945
v 0.334800 0.903776 -0.869883
v 0.334800 0.903776 -0.911945
v 0.313511 0.903776 -0.911945
v 0.313511 0.903776 -0.869883
v 0.346626 0.930144 -0.869883
v 0.346626 0.930144 -0.911945
v 0.325337 0.930144 -0.911945
v 0.325337 0.930144 -0.869883
v 0.354227 0.956512 -0.869883
v 0.354227 0.956512 -0.911945
v 0.332939 0.956512 -0.911945
v 0.332939 0.956512 -0.869883
v 0.358732 0.982880 -0.869883
v 0.358732 0.982880 -0.911945
v 0.337444 0.982880 -0.911945
v 0.337444 0.982880 -0.869883
v 0.362115 1.009247 -0.869883
v 0.362115 1.009247 -0.911945
v 0.340826 1.009247 -0.911945
v 0.340826 1.009247 -0.869883
v 0.362115 1.035615 -0.869883
v 0.362115 1.035615 -0.911945
v 0.340826 1.035615 -0.911945
v 0.340826 1.035615 -0.869883
v 0.358732 1.061983 -0.869883
v 0.358732 1.061983 -0.911945
v 0.337444 1.061983 -0.911945
v 0.337444 1.061983 -0.869883
v 0.354227 1.088351 -0.869883
v 0.354227 1.088351 -0.911945
v 0.332939 1.088351 -0.911945
v 0.332939 1.088351 -0.869883
v 0.346626 1.114718 -0.869883
v 0.346626 1.114718 -0.911945
v 0.325337 1.114718 -0.911945
v 0.325337 1.114718 -0.869883
v 0.334800 1.141086 -0.869883
v 0.334800 1.141086 -0.911945
v 0.313511 1.141086 -0.911945
v 0.313511 1.141086 -0.869883
vt 0.061384 0.044863
vt 0.087520 0.023562
vt 0.078425 0.201486
vt 0.057861 0.102185
vt 0.011610 0.854659
vt 0.045654 0.842578
vt 0.091153 0.855770
vt 0.103935 0.880473
vt 0.401076 0.324715
vt 0.433747 0.384152
vt 0.423482 0.257459
vt 0.397375 0.272375
vt 0.129686 0.091113
vt 0.113359 0.041551
vt 0.154691 0.128036
vt 0.383903 0.958753
vt 0.449091 0.959553
vt 0.481117 0.968839
vt 0.447155 0.976438
vt 0.336241 0.196722
vt 0.346336 0.237814
vt 0.375904 0.275593
vt 0.342605 0.928678
vt 0.251525 0.921740
vt 0.242059 0.167204
vt 0.268384 0.149480
vt 0.313867 0.234212
vt 0.017556 0.757913
vt 0.060771 0.546848
vt 0.463744 0.754396
vt 0.441478 0.896159
vt 0.412856 0.866648
vt 0.140367 0.774591
vt 0.283917 0.823088
vt 0.070301 0.360416
vt 0.040851 0.378924
vt 0.418550 0.571872
vt 0.447952 0.559482
vt 0.397747 0.624967
vt 0.150899 0.299203
vt 0.154216 0.731815
vt 0.239346 0.762616
vt 0.368347 0.487141
vt 0.358182 0.303185
vt 0.164184 0.178089
vt 0.158775 0.478569
vt 0.264288 0.242639
vt 0.161039 0.717476
vt 0.307812 0.771831
vt 0.367333 0.552495
vt 0.354379 0.311175
vt 0.169368 0.192960
vt 0.167287 0.324043
vt 0.220597 0.225693
vt 0.175547 0.697199
vt 0.280860 0.737580
vt 0.370565 0.617026
vt 0.354569 0.318601
vt 0.181052 0.208443
vt 0.179017 0.389172
vt 0.270127 0.264992
vt 0.379045 0.775227
vt 0.276907 0.482842
vt 0.380553 0.798770
vt 0.386512 0.815863
vt 0.574126 0.603554
vt 0.576146 0.036816
vt 0.615329 0.016440
vt 0.617275 0.587350
vt 0.816717 0.148880
vt 0.837579 0.692098
vt 0.778165 0.166728
vt 0.795205 0.706111
vt 0.701084 0.585599
vt 0.700312 0.540092
vt 0.731542 0.528240
vt 0.732553 0.574013
vt 0.782117 0.554191
vt 0.783484 0.599381
vt 0.751026 0.565651
vt 0.752156 0.610580
vt 0.693170 0.119364
vt 0.740570 0.149732
vt 0.769472 0.136108
vt 0.722191 0.105305
vt 0.723067 0.144950
vt 0.770659 0.175340
vt 0.741552 0.188779
vt 0.693840 0.158821
vt 0.740495 0.177466
vt 0.788329 0.207670
vt 0.758780 0.221024
vt 0.710819 0.191254
vt 0.752298 0.213447
vt 0.800400 0.243362
vt 0.770483 0.256585
vt 0.722248 0.227105
vt 0.759879 0.252115
vt 0.808272 0.281660
vt 0.778042 0.294717
vt 0.729512 0.265604
vt 0.765963 0.292172
vt 0.814659 0.321307
vt 0.784133 0.334180
vt 0.735297 0.305475
vt 0.767199 0.335005
vt 0.816222 0.363643
vt 0.785468 0.376295
vt 0.736302 0.348082
vt 0.763474 0.380520
vt 0.812854 0.408577
vt 0.781941 0.420970
vt 0.732418 0.393333
vt 0.758046 0.427262
vt 0.807795 0.454698
vt 0.776747 0.466815
vt 0.726854 0.439791
vt 0.747968 0.476334
vt 0.798114 0.503075
vt 0.766997 0.514884
vt 0.716710 0.488547
vn 0.000000 0.000000 1.000000
vn 0.000000 0.000000 1.000000
vn 0.000001 0.000000 1.000000
vn 0.000000 0.000000 1.000000
vn 0.000000 1.000000 0.000000
vn 0.000000 1.000000 0.000000
vn 0.000000 1.000000 0.000000
vn 0.000000 1.000000 0.000000
vn -0.000000 0.000000 -1.000000
vn -0.000000 0.000000 -1.000000
vn -0.000000 0.000000 -1.000000
vn -0.000000 0.000000 -1.000000
vn 0.000000 -1.000000 0.000000
vn 0.000000 -1.000000 0.000000
vn 0.000000 -1.000000 0.000000
vn 0.000000 -1.000000 0.000000
vn 1.000000 -0.000000 0.000000
vn 1.000000 -0.000000 0.000000
vn 0.999612 0.023324 -0.015248
vn 1.000000 -0.000000 0.000000
vn 0.000000 1.000000 0.000000
vn 0.000000 1.000000 0.000000
vn 0.000000 1.000000 0.000000
vn 0.000000 1.000000 0.000000
vn 0.000000 -1.000000 0.000000
vn 0.000000 -1.000000 0.000000
vn 0.000000 -1.000000 0.000000
vn 0.000000 -1.000000 0.000000
vn 0.999706 0.015747 0.018462
vn 1.000000 0.000000 0.000000
vn 1.000000 0.000000 0.000000
vn 1.000000 0.000000 0.000000
vn 0.000000 1.000000 0.000000
vn 0.000000 1.000000 0.000000
vn 0.000000 -1.000000 0.000000
vn 0.000000 -1.000000 0.000000
vn 1.000000 -0.000000 0.000000
vn 0.997133 0.075667 0.000000
vn 0.000000 0.000000 1.000000
vn 0.000000 0.000000 1.000000
vn 0.000000 0.000000 1.000000
vn 0.000000 0.000000 1.000000
vn 0.000000 0.000000 -1.000000
vn 0.000000 0.000000 -1.000000
vn 0.000000 0.000000 -1.000000
vn 0.000000 0.000000 -1.000000
vn 1.000000 0.000000 0.000000
vn 0.999500 -0.025621 0.018515
vn 1.000000 0.000000 0.000000
vn 1.000000 0.000000 0.000000
vn 1.000000 -0.000000 0.000000
vn 0.999716 -0.015372 -0.018192
vn 0.997765 -0.066818 0.000000
vn 1.000000 -0.000000 0.000000
vn 1.000000 0.000000 0.000000
vn 1.000000 0.000000 0.000000
vn 0.000000 0.000000 1.000000
vn 0.000000 0.000000 1.000000
vn 0.000000 0.000000 -1.000000
vn 0.000000 0.000000 -1.000000
vn 0.995711 0.000000 0.092518
vn 1.000000 0.000000 0.000000
vn 0.995235 0.000000 -0.097501
vn 1.000000 0.000000 0.000000
vn 0.970704 -0.066217 -0.230976
vn 0.987912 -0.155016 0.000000
vn 0.950577 0.000000 0.310490
vn 0.971851 0.065495 0.226309
vn 0.978360 0.095311 -0.183650
vn 0.952885 0.000000 -0.303332
vn 0.988013 0.154369 0.000000
vn 0.995722 0.092397 0.000000
vn 0.980477 0.196633 0.000000
vn 1.000000 0.000000 0.000000
vn 0.995113 -0.098738 0.000000
vn 0.996813 -0.079771 0.000000
vn 1.000000 0.000000 0.000000
vn 0.978034 -0.208443 0.000000
vn 0.999279 0.037968 -0.000000
vn 0.999567 0.029426 0.000000
vn 0.786596 0.000000 -0.617468
vn 0.786596 0.000000 -0.617468
vn 0.786596 0.000000 -0.617468
vn 0.786596 0.000000 -0.617468
vn 0.786596 0.000000 0.617469
vn 0.786596 0.000000 0.617469
vn 0.786596 0.000000 0.617469
vn 0.786596 0.000000 0.617469
vn 0.999482 -0.032185 0.000000
vn 0.999673 -0.025568 -0.000000
vn 0.999565 0.029500 0.000000
vn 1.000000 0.000000 -0.000000
vn 0.999133 -0.041635 0.000000
vn 1.000000 0.000000 0.000000
vn 1.000000 0.000000 -0.000000
vn 0.997210 0.074642 0.000000
vn 0.977947 -0.088760 0.189055
vn 0.786596 0.000000 0.617469
vn 0.786596 0.000000 0.617469
vn 0.786596 0.000000 -0.617468
vn 0.786596 0.000000 -0.617468
vn 0.000000 0.000000 1.000000
vn 0.000000 0.000000 1.000000
vn 0.000000 0.000000 1.000000
vn 0.000000 0.000000 1.000000
vn 1.000000 0.000000 0.000000
vn 1.000000 0.000000 0.000000
vn 1.000000 0.000000 0.000000
vn 1.000000 0.000000 0.000000
vn 0.000000 0.000000 -1.000000
vn 0.000000 0.000000 -1.000000
vn 0.000000 0.000000 -1.000000
vn 0.000000 0.000000 -1.000000
vn 0.000000 -1.000000 0.000000
vn 0.000000 -1.000000 0.000000
vn 0.000000 -1.000000 0.000000
vn 0.000000 -1.000000 0.000000
vn 0.000000 1.000000 0.000000
vn 0.000000 1.000000 0.000000
vn 0.000000 1.000000 0.000000
vn 0.000000 1.000000 0.000000
vn 0.000000 0.000000 1.000000
vn 0.000000 0.000002 1.000000
vn 0.000000 0.000003 1.000000
vn 0.000000 0.000000 1.000000
vn 1.000000 0.000000 0.000000
vn 0.975765 0.218820 0.000000
vn 0.975765 0.218820 0.000000
vn 1.000000 0.000000 0.000000
vn 0.000000 0.000000 -1.000000
vn 0.000000 0.000000 -1.000000
vn 0.000000 0.000000 -1.000000
vn 0.000000 0.000000 -1.000000
vn -1.000000 0.000000 0.000000
vn -0.975765 -0.218820 0.000000
vn -0.975765 -0.218821 0.000000
vn -1.000000 0.000000 0.000000
vn 0.000000 -1.000000 0.000000
vn 0.000000 -1.000000 0.000000
vn 0.000000 -1.000000 0.000000
vn 0.000000 -1.000000 0.000000
vn 0.000000 1.000000 0.000000
vn 0.000000 1.000000 0.000000
vn 0.000000 1.000000 0.000000
vn 0.000000 1.000000 0.000000
vn 0.975765 -0.218820 0.000000
vn 1.000000 0.000000 0.000000
vn 1.000000 0.000000 0.000000
vn 0.975765 -0.218820 0.000000
vn 0.000000 0.000000 -1.000000
vn 0.000000 0.000000 -1.000000
vn 0.000000 0.000000 -1.000000
vn 0.000000 0.000000 -1.000000
vn -0.975765 0.218821 0.000000
vn -0.975765 0.218820 0.000000
vn -1.000000 0.000000 0.000000
vn -1.000000 0.000000 0.000000
vn 0.000000 -0.000003 1.000000
vn 0.000000 -0.000002 1.000000
vn 0.000000 0.000000 1.000000
vn 0.000000 0.000000 1.000000
vn 0.938353 -0.345680 0.000000
vn 0.938352 -0.345680 0.000000
vn 0.000000 0.000000 -1.000000
vn 0.000000 0.000000 -1.000000
vn -0.938352 0.345681 0.000000
vn -0.938352 0.345681 0.000000
vn 0.000000 0.000001 1.000000
vn 0.000000 -0.000001 1.000000
vn 0.974647 -0.223747 0.000000
vn 0.974647 -0.223747 0.000000
vn 0.000000 0.000000 -1.000000
vn 0.000000 0.000000 -1.000000
vn -0.974647 0.223747 0.000000
vn -0.974647 0.223747 0.000000
vn 0.000000 0.000002 1.000000
vn 0.000000 0.000003 1.000000
vn 0.988998 -0.147927 0.000000
vn 0.988998 -0.147927 0.000000
vn 0.000000 0.000000 -1.000000
vn 0.000000 0.000000 -1.000000
vn -0.988998 0.147926 0.000000
vn -0.988998 0.147926 0.000000
vn 0.000000 0.000000 1.000000
vn 0.000000 0.000000 1.000000
vn 0.997949 -0.064009 0.000000
vn 0.997949 -0.064009 0.000000
vn 0.000000 0.000000 -1.000000
vn 0.000000 0.000000 -1.000000
vn -0.997949 0.064009 0.000000
vn -0.997949 0.064009 0.000000
vn 0.000000 0.000000 1.000000
vn 0.000000 0.000000 1.000000
vn 0.997949 0.064009 0.000000
vn 0.997949 0.064009 0.000000
vn 0.000000 0.000000 -1.000000
vn 0.000000 0.000000 -1.000000
vn -0.997949 -0.064009 0.000000
vn -0.997949 -0.064009 0.000000
vn 0.000000 0.000000 1.000000
vn 0.000000 0.000000 1.000000
vn 0.988998 0.147927 0.000000
vn 0.988998 0.147927 0.000000
vn 0.000000 0.000000 -1.000000
vn 0.000000 0.000000 -1.000000
vn -0.988998 -0.147926 0.000000
vn -0.988998 -0.147926 0.000000
vn 0.000000 0.000000 1.000000
vn 0.000000 0.000000 1.000000
vn 0.974647 0.223747 0.000000
vn 0.974647 0.223747 0.000000
vn 0.000000 0.000000 -1.000000
vn 0.000000 0.000000 -1.000000
vn -0.974647 -0.223747 0.000000
vn -0.974647 -0.223747 0.000000
vn 0.000000 -0.000002 1.000000
vn 0.000000 -0.000003 1.000000
vn 0.938353 0.345680 0.000000
vn 0.938352 0.345680 0.000000
vn 0.000000 0.000000 -1.000000
vn 0.000000 0.000000 -1.000000
vn -0.938352 -0.345681 0.000000
vn -0.938352 -0.345681 0.000000
vn 0.000000 -0.000001 1.000000
vn 0.000000 0.000001 1.000000
s 1
g Door_Large
usemtl lambert2SG
f 1/1/1 2/2/2 23/3/3 24/4/4
s 2
f 3/5/5 4/6/6 13/7/7 14/8/8
s 3
f 25/9/9 26/10/10 8/11/11 7/12/12
s 4
f 15/13/13 16/14/14 2/2/15 1/1/16
s 5
f 2/2/17 16/14/18 28/15/19 23/3/20
s 2
f 10/16/21 9/17/22 6/18/23 5/19/24
s 4
f 7/12/25 8/11/26 12/20/27 11/21/28
s 5
f 27/22/29 12/20/30 8/11/31 26/10/32
s 2
f 14/8/8 13/7/7 46/23/33 47/24/34
s 4
f 48/25/35 49/26/36 16/14/14 15/13/13
s 5
f 28/15/19 16/14/18 49/26/37 50/27/38
s 1
f 18/28/39 17/29/40 4/6/41 3/5/42
s 3
f 5/19/43 6/18/44 20/30/45 19/31/46
s 5
f 9/17/47 21/32/48 20/30/49 6/18/50
f 13/7/51 22/33/52 45/34/53 46/23/54
f 17/29/55 22/33/52 13/7/51 4/6/56
s 1
f 24/4/4 23/3/3 58/35/57 59/36/58
s 3
f 60/37/59 61/38/60 26/10/10 25/9/9
s 5
f 62/39/61 27/22/29 26/10/32 61/38/62
f 23/3/20 28/15/19 57/40/63 58/35/64
f 45/34/53 22/33/52 30/41/65 44/42/66
f 27/22/29 62/39/61 63/43/67 31/44/68
f 57/40/63 28/15/19 32/45/69 56/46/70
f 28/15/19 50/27/38 51/47/71 32/45/69
f 44/42/66 30/41/65 34/48/72 43/49/73
f 31/44/68 63/43/67 64/50/74 35/51/75
f 56/46/70 32/45/69 36/52/76 55/53/77
f 32/45/69 51/47/71 52/54/78 36/52/76
f 43/49/73 34/48/72 38/55/79 42/56/80
s 13
f 35/51/81 64/50/82 65/57/83 39/58/84
s 14
f 55/53/85 36/52/86 40/59/87 54/60/88
s 5
f 36/52/76 52/54/78 53/61/89 40/59/90
f 37/62/91 42/56/80 38/55/79 41/63/92
f 39/58/93 65/57/94 37/62/91 41/63/92
f 38/55/79 54/60/95 40/59/90 41/63/92
f 40/59/90 53/61/89 39/58/93 41/63/92
f 33/64/96 43/49/73 42/56/80 37/62/91
f 29/65/97 44/42/66 43/49/73 33/64/96
f 21/32/48 45/34/53 44/42/66 29/65/97
f 46/23/54 45/34/53 21/32/48 9/17/47
s 2
f 47/24/34 46/23/33 9/17/22 10/16/21
s 4
f 11/21/28 12/20/27 49/26/36 48/25/35
s 5
f 50/27/38 49/26/37 12/20/30 27/22/29
f 51/47/71 50/27/38 27/22/29 31/44/68
f 52/54/78 51/47/71 31/44/68 35/51/75
f 53/61/89 52/54/78 35/51/75 39/58/93
s 14
f 34/48/98 55/53/85 54/60/88 38/55/99
s 5
f 30/41/65 56/46/70 55/53/77 34/48/72
f 22/33/52 57/40/63 56/46/70 30/41/65
f 58/35/64 57/40/63 22/33/52 17/29/55
s 1
f 59/36/58 58/35/57 17/29/40 18/28/39
s 3
f 19/31/46 20/30/45 61/38/60 60/37/59
s 5
f 21/32/48 62/39/61 61/38/62 20/30/49
f 63/43/67 62/39/61 21/32/48 29/65/97
f 64/50/74 63/43/67 29/65/97 33/64/96
s 13
f 65/57/83 64/50/82 33/64/100 37/62/101
s off
f 66/66/102 67/67/103 69/68/104 68/69/105
f 68/69/106 69/68/107 71/70/108 70/71/109
f 70/71/110 71/70/111 73/72/112 72/73/113
f 67/67/114 73/72/115 71/70/116 69/68/117
f 72/73/118 66/66/119 68/69/120 70/71/121
s 15
f 74/74/122 121/75/123 118/76/124 76/77/125
s 16
f 76/77/126 118/76/127 119/78/128 78/79/129
s 17
f 78/79/130 119/78/131 120/80/132 80/81/133
s 18
f 80/81/134 120/80/135 121/75/136 74/74/137
s off
f 75/82/138 81/83/139 79/84/140 77/85/141
f 80/81/142 74/74/143 76/77/144 78/79/145
s 16
f 82/86/146 77/85/147 79/84/148 83/87/149
s 17
f 84/88/150 83/87/151 79/84/152 81/83/153
s 18
f 85/89/154 84/88/155 81/83/156 75/82/157
s 15
f 82/86/158 85/89/159 75/82/160 77/85/161
s 16
f 86/90/162 82/86/146 83/87/149 87/91/163
s 17
f 88/92/164 87/91/165 83/87/151 84/88/150
s 18
f 89/93/166 88/92/167 84/88/155 85/89/154
s 15
f 86/90/168 89/93/169 85/89/159 82/86/158
s 16
f 90/94/170 86/90/162 87/91/163 91/95/171
s 17
f 92/96/172 91/95/173 87/91/165 88/92/164
s 18
f 93/97/174 92/96/175 88/92/167 89/93/166
s 15
f 90/94/176 93/97/177 89/93/169 86/90/168
s 16
f 94/98/178 90/94/170 91/95/171 95/99/179
s 17
f 96/100/180 95/99/181 91/95/173 92/96/172
s 18
f 97/101/182 96/100/183 92/96/175 93/97/174
s 15
f 94/98/184 97/101/185 93/97/177 90/94/176
s 16
f 98/102/186 94/98/178 95/99/179 99/103/187
s 17
f 100/104/188 99/103/189 95/99/181 96/100/180
s 18
f 101/105/190 100/104/191 96/100/183 97/101/182
s 15
f 98/102/192 101/105/193 97/101/185 94/98/184
s 16
f 102/106/194 98/102/186 99/103/187 103/107/195
s 17
f 104/108/196 103/107/197 99/103/189 100/104/188
s 18
f 105/109/198 104/108/199 100/104/191 101/105/190
s 15
f 102/106/200 105/109/201 101/105/193 98/102/192
s 16
f 106/110/202 102/106/194 103/107/195 107/111/203
s 17
f 108/112/204 107/111/205 103/107/197 104/108/196
s 18
f 109/113/206 108/112/207 104/108/199 105/109/198
s 15
f 106/110/208 109/113/209 105/109/201 102/106/200
s 16
f 110/114/210 106/110/202 107/111/203 111/115/211
s 17
f 112/116/212 111/115/213 107/111/205 108/112/204
s 18
f 113/117/214 112/116/215 108/112/207 109/113/206
s 15
f 110/114/216 113/117/217 109/113/209 106/110/208
s 16
f 114/118/218 110/114/210 111/115/211 115/119/219
s 17
f 116/120/220 115/119/221 111/115/213 112/116/212
s 18
f 117/121/222 116/120/223 112/116/215 113/117/214
s 15
f 114/118/224 117/121/225 113/117/217 110/114/216
s 16
f 118/76/127 114/118/218 115/119/219 119/78/128
s 17
f 120/80/132 119/78/131 115/119/221 116/120/220
s 18
f 121/75/136 120/80/135 116/120/223 117/121/222
s 15
f 118/76/124 121/75/123 117/121/225 114/118/224
