# This file uses centimeters as units for non-parametric coordinates.

mtllib Half_Display.mtl
g default
v 19.240490 6.118303 -9.515461
v -19.240490 6.118303 -9.515461
v 19.240490 9.638502 -2.053231
v -19.240490 9.638502 -2.053231
v 19.240490 5.914318 -9.515461
v -19.240490 5.914318 -9.515461
v -19.240490 9.434517 -2.053231
v 19.240490 9.434517 -2.053231
vt 0.960888 0.631263
vt 0.854472 0.631263
vt 0.854472 0.190200
vt 0.960888 0.190200
vt 0.910564 0.638384
vt 0.910564 0.197320
vt 0.913028 0.197320
vt 0.913028 0.638384
vt 0.918592 0.198264
vt 0.926584 0.304681
vt 0.924120 0.303737
vt 0.916128 0.197320
vt 0.907465 0.197320
vt 0.907465 0.638384
vt 0.905001 0.638384
vt 0.905001 0.197320
vt 0.940095 0.197320
vt 0.932103 0.303737
vt 0.929639 0.304681
vt 0.937631 0.198264
vn -0.000000 -0.904419 0.426646
vn -0.000000 -0.904419 0.426646
vn -0.000000 -0.904419 0.426646
vn -0.000000 -0.904419 0.426646
vn -0.000000 -0.000001 1.000000
vn -0.000000 -0.000001 1.000000
vn -0.000000 -0.000001 1.000000
vn -0.000000 -0.000001 1.000000
vn 1.000000 0.000003 -0.000001
vn 1.000000 0.000003 -0.000001
vn 1.000000 0.000003 -0.000001
vn 1.000000 0.000003 -0.000001
vn 0.000000 -0.000001 -1.000000
vn 0.000000 -0.000001 -1.000000
vn 0.000000 -0.000001 -1.000000
vn 0.000000 -0.000001 -1.000000
vn -1.000000 0.000001 -0.000001
vn -1.000000 0.000001 -0.000001
vn -1.000000 0.000001 -0.000001
vn -1.000000 0.000001 -0.000001
vn 0.000000 0.904419 -0.426646
vn 0.000000 0.904419 -0.426646
vn 0.000000 0.904419 -0.426646
vn 0.000000 0.904419 -0.426646
s off
g pPlane5
usemtl lambert2SG
f 1/1/1 3/2/2 4/3/3 2/4/4
f 1/5/5 2/6/6 6/7/7 5/8/8
f 2/9/9 4/10/10 7/11/11 6/12/12
f 4/13/13 3/14/14 8/15/15 7/16/16
f 3/17/17 1/18/18 5/19/19 8/20/20
f 7/16/21 8/20/22 5/8/23 6/12/24
g default
v -20.000000 5.756805 -10.281776
v 20.000000 5.756805 -10.281776
v -20.000000 0.000000 -10.281776
v 20.000000 0.000000 -10.281776
v -20.000000 10.000000 -1.286916
v -20.000000 0.000000 -1.286916
v 20.000000 0.000000 -1.286916
v 20.000000 10.000000 -1.286916
v 19.240490 9.638502 -2.053231
v -19.240490 9.638502 -2.053231
v 19.240490 6.118302 -9.515461
v -19.240490 6.118302 -9.515461
v 19.240490 6.163924 -2.053231
v -19.240490 6.163924 -2.053231
v 19.240490 4.126428 -9.515461
v -19.240490 4.126428 -9.515461
v 20.000000 0.000000 -0.271221
v 20.000000 10.000000 -0.271221
v -20.000000 10.000000 -0.271221
v -20.000000 0.000000 -0.271221
vt 0.345819 0.655415
vt 0.345819 0.139726
vt 0.420037 0.139726
vt 0.420037 0.655415
vt 0.773446 0.551936
vt 0.675481 0.551936
vt 0.229855 0.010804
vt 0.229855 0.139726
vt 0.345819 0.010804
vt 0.345819 0.085022
vt 0.229839 0.784338
vt 0.229855 0.655415
vt 0.345802 0.784353
vt 0.345812 0.710135
vt 0.767563 0.031059
vt 0.675481 0.055831
vt 0.773446 0.055831
vt 0.662802 0.012617
vt 0.799126 0.551936
vt 0.630686 0.055831
vt 0.630686 0.551936
vt 0.799126 0.055831
vt 0.239735 0.149518
vt 0.239735 0.645623
vt 0.662801 0.595149
vt 0.767563 0.576709
vt 0.335939 0.149518
vt 0.335939 0.645623
vt 0.216761 0.010804
vt 0.216761 0.131607
vt 0.216761 0.663533
vt 0.216744 0.784337
vt 0.155953 0.671652
vt 0.155953 0.123489
vn 0.000000 0.000000 -1.000000
vn 0.000000 0.000000 -1.000000
vn 0.000000 0.000000 -1.000000
vn 0.000000 0.000000 -1.000000
vn -1.000000 0.000000 0.000000
vn -1.000000 0.000000 0.000000
vn -1.000000 0.000000 0.000000
vn -1.000000 0.000000 0.000000
vn 1.000000 0.000000 0.000000
vn 1.000000 0.000000 0.000000
vn 1.000000 0.000000 0.000000
vn 1.000000 0.000000 0.000000
vn 0.000000 0.964687 -0.263399
vn 0.000000 0.964687 -0.263399
vn 0.000000 0.964687 -0.263399
vn 0.000000 0.964687 -0.263399
vn 0.000000 0.988900 -0.148582
vn -0.000000 0.988900 -0.148582
vn -0.000000 0.904419 -0.426646
vn 0.000000 0.904419 -0.426646
vn -0.000000 0.904419 -0.426645
vn -0.000000 0.904419 -0.426646
vn 0.000000 0.904419 -0.426646
vn 0.000000 0.904419 -0.426646
vn 0.000000 0.000000 -1.000000
vn 0.000000 0.000000 -1.000000
vn 0.000000 0.000000 -1.000000
vn 0.000000 0.000000 -1.000000
vn -1.000000 0.000000 0.000000
vn -1.000000 0.000000 0.000000
vn -1.000000 0.000000 0.000000
vn -1.000000 0.000000 0.000000
vn 0.000000 0.000000 1.000000
vn 0.000000 0.000000 1.000000
vn 0.000000 0.000000 1.000000
vn 0.000000 0.000000 1.000000
vn 1.000000 0.000000 0.000000
vn 1.000000 0.000000 0.000000
vn 1.000000 0.000000 0.000000
vn 1.000000 0.000000 0.000000
vn 0.025254 0.101017 0.994564
vn 0.025384 0.000000 0.999678
vn -0.025254 0.101017 0.994564
vn -0.025384 0.000000 0.999678
s off
g polySurface1
usemtl lambert2SG
f 9/21/25 10/22/26 12/23/27 11/24/28
s 1
f 11/33/29 14/31/30 13/32/31 9/34/32
f 16/28/33 15/27/34 12/29/35 10/30/36
s off
f 22/26/37 21/36/38 23/37/39 24/25/40
s 1
f 13/32/41 16/28/42 17/43/43 18/44/44
f 16/28/42 10/22/45 19/47/46 17/43/43
f 10/22/45 9/21/47 20/48/48 19/47/46
f 9/21/47 13/32/41 18/44/44 20/48/48
s off
f 18/41/49 17/40/50 21/36/51 22/26/52
f 17/38/53 19/35/54 23/37/55 21/36/56
f 19/42/57 20/39/58 24/25/59 23/37/60
f 20/46/61 18/45/62 22/26/63 24/25/64
s 1
f 26/50/65 25/49/66 15/27/34 16/28/33
f 27/51/67 26/50/65 16/28/42 13/32/41
f 14/31/30 28/52/68 27/51/67 13/32/31
f 28/53/68 25/54/66 26/50/65 27/51/67
