# This file uses centimeters as units for non-parametric coordinates.

mtllib painting.mtl
g default
v 0.140223 0.000000 0.957702
v 0.012380 0.000000 0.957702
v 0.140223 1.729314 0.957702
v 0.012380 1.729314 0.957702
v 0.140223 1.729314 -1.100435
v 0.012380 1.729314 -1.100435
v 0.140223 0.000000 -1.100435
v 0.012380 0.000000 -1.100435
v 0.012380 1.729314 -1.031628
v 0.140223 1.729314 -1.031628
v 0.140223 0.000000 -1.031628
v 0.012380 0.000000 -1.031628
v 0.012380 1.729314 0.888896
v 0.140223 1.729314 0.888896
v 0.140223 0.000000 0.888896
v 0.012380 0.000000 0.888896
v 0.012380 1.646265 0.957702
v 0.140223 1.646265 0.957702
v 0.140223 1.646265 -1.100435
v 0.012380 1.646265 -1.100435
v 0.012380 1.646265 -1.031628
v 0.012380 1.646265 0.888896
v 0.012380 0.083050 0.957702
v 0.140223 0.083050 0.957702
v 0.140223 0.083050 -1.100435
v 0.012380 0.083050 -1.100435
v 0.012380 0.083050 -1.031628
v 0.012380 0.083050 0.888896
v 0.012381 1.646265 0.888896
v 0.012380 1.646265 -1.031628
v 0.012380 0.083050 -1.031628
v 0.012380 0.083050 0.888896
v 0.012380 1.646265 -0.818237
v 0.012380 0.083050 -0.818237
v 0.012380 1.646265 -0.604845
v 0.012380 0.083050 -0.604845
v 0.012380 1.646265 -0.391454
v 0.012380 0.083050 -0.391454
v 0.012380 1.646265 -0.178062
v 0.012380 0.083050 -0.178062
v 0.012380 1.646265 0.035329
v 0.012380 0.083050 0.035329
v 0.012380 1.646265 0.248721
v 0.012380 0.083050 0.248721
v 0.012380 1.646265 0.462112
v 0.012380 0.083050 0.462112
v 0.012381 1.646265 0.675504
v 0.012380 0.083050 0.675504
v 0.012381 1.472574 0.888896
v 0.012380 1.472574 0.720489
v 0.012380 1.506771 0.462112
v 0.012380 1.472574 0.248721
v 0.012380 1.512097 0.035329
v 0.012380 1.472574 -0.178062
v 0.012380 1.505732 -0.391454
v 0.012380 1.463421 -0.604845
v 0.012380 1.472574 -0.794405
v 0.012380 1.472574 -1.031628
v 0.012380 1.298884 0.888896
v 0.012380 1.333080 0.675504
v 0.012380 1.333080 0.462112
v 0.012380 1.352781 0.248721
v 0.012380 1.298884 -0.003574
v 0.012380 1.297349 -0.209072
v 0.012380 1.318092 -0.391454
v 0.012380 1.318092 -0.581018
v 0.012380 1.289772 -0.845090
v 0.012380 1.298884 -1.031628
v 0.012380 1.125193 0.888896
v 0.012380 1.125193 0.622698
v 0.012380 1.159389 0.436665
v 0.012380 1.125193 0.217118
v 0.012380 1.089414 -0.012242
v 0.012380 1.089414 -0.209072
v 0.012380 1.089414 -0.406655
v 0.012380 1.144401 -0.581018
v 0.012380 1.125193 -0.818237
v 0.012380 1.125193 -1.031628
v 0.012380 0.951502 0.888896
v 0.012380 0.951502 0.705374
v 0.012380 1.009561 0.436665
v 0.012380 0.951502 0.248721
v 0.012380 0.951502 -0.008150
v 0.012380 0.915723 -0.225634
v 0.012380 0.951502 -0.391454
v 0.012380 0.951502 -0.588353
v 0.012380 0.916910 -0.861602
v 0.012380 0.951502 -1.031628
v 0.012380 0.777812 0.888896
v 0.012380 0.777812 0.625348
v 0.012380 0.813050 0.422084
v 0.012380 0.777812 0.248721
v 0.012380 0.777812 0.035329
v 0.012380 0.731649 -0.178062
v 0.012380 0.777812 -0.359354
v 0.012380 0.819480 -0.588353
v 0.012380 0.777812 -0.796611
v 0.012380 0.777812 -1.031628
v 0.012380 0.604121 0.888896
v 0.012380 0.639359 0.635476
v 0.012380 0.639359 0.422084
v 0.012380 0.639359 0.208693
v 0.012380 0.604121 0.012374
v 0.012380 0.604121 -0.145962
v 0.012380 0.655894 -0.401062
v 0.012380 0.604121 -0.572745
v 0.012380 0.568803 -0.818237
v 0.012380 0.604121 -1.031628
v 0.012380 0.430431 0.888896
v 0.012380 0.430431 0.675504
v 0.012380 0.465669 0.422084
v 0.012380 0.430431 0.266182
v 0.012380 0.430431 0.052790
v 0.012380 0.430431 -0.160601
v 0.012380 0.430431 -0.359354
v 0.012380 0.392287 -0.633093
v 0.012380 0.430431 -0.843386
v 0.012380 0.430431 -1.031628
v 0.012380 0.256740 0.888896
v 0.012380 0.209519 0.675504
v 0.012380 0.294714 0.462112
v 0.012380 0.219272 0.248721
v 0.012380 0.256740 0.031240
v 0.012380 0.283764 -0.234028
v 0.012380 0.225981 -0.447875
v 0.012380 0.256740 -0.633093
v 0.012380 0.256740 -0.857260
v 0.012380 0.256740 -1.031628
vt 0.009679 0.091452
vt 0.009679 0.091452
vt 0.009679 0.130692
vt 0.009679 0.130692
vt 0.009679 0.908548
vt 0.009679 0.908548
vt 0.042463 0.908548
vt 0.042463 0.908548
vt 0.990321 0.130692
vt 0.990321 0.130692
vt 0.990321 0.091452
vt 0.990321 0.091452
vt 0.042463 0.091452
vt 0.042463 0.091452
vt 0.042463 0.130692
vt 0.957537 0.908548
vt 0.957537 0.908548
vt 0.990321 0.908548
vt 0.990321 0.908548
vt 0.957537 0.091452
vt 0.957537 0.091452
vt 0.957537 0.130692
vt 0.009679 0.869308
vt 0.009679 0.869308
vt 0.990321 0.869308
vt 0.990321 0.869308
vt 0.957537 0.869308
vt 0.042463 0.869308
vt 0.057480 0.219852
vt 0.155818 0.198091
vt 0.155818 0.139810
vt 0.057480 0.139810
vt 0.862165 0.219852
vt 0.942520 0.219852
vt 0.942520 0.139810
vt 0.844182 0.139810
vt 0.758861 0.219852
vt 0.745844 0.139810
vt 0.673507 0.205678
vt 0.647506 0.139810
vt 0.574960 0.232306
vt 0.549169 0.139810
vt 0.452716 0.219852
vt 0.450831 0.139810
vt 0.352493 0.202586
vt 0.352493 0.139810
vt 0.254156 0.237352
vt 0.254156 0.139810
vt 0.057480 0.860190
vt 0.155818 0.860190
vt 0.135087 0.780148
vt 0.057480 0.780148
vt 0.254156 0.860190
vt 0.254156 0.795907
vt 0.352493 0.860190
vt 0.352493 0.780148
vt 0.450831 0.860190
vt 0.450831 0.798361
vt 0.549169 0.860190
vt 0.549169 0.780148
vt 0.647506 0.860190
vt 0.647506 0.795428
vt 0.745844 0.860190
vt 0.745844 0.775929
vt 0.844182 0.860190
vt 0.833200 0.780148
vt 0.942520 0.860190
vt 0.942520 0.780148
vt 0.155818 0.715864
vt 0.057480 0.700106
vt 0.254156 0.715864
vt 0.352493 0.724943
vt 0.468759 0.700106
vt 0.563459 0.699398
vt 0.647506 0.708957
vt 0.734864 0.708957
vt 0.856557 0.695907
vt 0.942520 0.700106
vt 0.180153 0.620063
vt 0.057480 0.620063
vt 0.265883 0.635822
vt 0.367057 0.620063
vt 0.472754 0.603575
vt 0.563459 0.603575
vt 0.654512 0.603575
vt 0.734864 0.628915
vt 0.844182 0.620063
vt 0.942520 0.620063
vt 0.142053 0.540021
vt 0.057480 0.540021
vt 0.265883 0.566776
vt 0.352493 0.540021
vt 0.470868 0.540021
vt 0.571091 0.523533
vt 0.647506 0.540021
vt 0.738244 0.540021
vt 0.864166 0.524080
vt 0.942520 0.540021
vt 0.178932 0.459979
vt 0.057480 0.459979
vt 0.272602 0.476218
vt 0.352493 0.459979
vt 0.450831 0.459979
vt 0.549169 0.438705
vt 0.632714 0.459979
vt 0.738244 0.479181
vt 0.834216 0.459979
vt 0.942520 0.459979
vt 0.174264 0.396176
vt 0.057480 0.379937
vt 0.272602 0.396176
vt 0.370940 0.396176
vt 0.461410 0.379937
vt 0.534376 0.379937
vt 0.651934 0.403795
vt 0.731052 0.379937
vt 0.844182 0.363661
vt 0.942520 0.379937
vt 0.155818 0.299894
vt 0.057480 0.299894
vt 0.272602 0.316133
vt 0.344447 0.299894
vt 0.442785 0.299894
vt 0.541122 0.299894
vt 0.632714 0.299894
vt 0.758861 0.282317
vt 0.855771 0.299894
vt 0.942520 0.299894
vn 0.000000 0.000000 1.000000
vn 0.000000 0.000000 1.000000
vn 0.000000 0.000000 1.000000
vn 0.000000 0.000000 1.000000
vn 0.000000 1.000000 0.000000
vn 0.000000 1.000000 0.000000
vn 0.000000 1.000000 0.000000
vn 0.000000 1.000000 0.000000
vn 0.000000 0.000000 -1.000000
vn 0.000000 0.000000 -1.000000
vn 0.000000 0.000000 -1.000000
vn 0.000000 0.000000 -1.000000
vn 0.000000 -1.000000 0.000000
vn 0.000000 -1.000000 0.000000
vn 0.000000 -1.000000 0.000000
vn 0.000000 -1.000000 0.000000
vn -1.000000 0.000000 0.000000
vn -1.000000 0.000000 0.000000
vn -1.000000 0.000000 0.000000
vn -1.000000 0.000000 0.000000
vn 0.000000 1.000000 0.000000
vn 0.000000 1.000000 0.000000
vn 0.000000 1.000000 0.000000
vn 0.000000 1.000000 0.000000
vn 0.000000 -1.000000 0.000000
vn 0.000000 -1.000000 0.000000
vn 0.000000 -1.000000 0.000000
vn 0.000000 -1.000000 0.000000
vn -1.000000 0.000000 0.000000
vn -1.000000 0.000000 0.000000
vn -1.000000 0.000000 0.000000
vn -1.000000 0.000000 0.000000
vn 0.000000 0.000000 1.000000
vn 0.000000 0.000000 1.000000
vn 0.000000 0.000000 1.000000
vn 0.000000 0.000000 1.000000
vn 0.000000 0.000000 -1.000000
vn 0.000000 0.000000 -1.000000
vn 0.000000 0.000000 -1.000000
vn 0.000000 0.000000 -1.000000
vn -1.000000 0.000000 0.000000
vn -1.000000 0.000000 0.000000
vn -1.000000 0.000000 0.000000
vn -1.000000 0.000000 0.000000
vn -1.000000 0.000000 0.000000
vn -1.000000 0.000000 0.000000
vn -1.000000 0.000000 0.000000
vn -1.000000 0.000000 0.000000
vn -1.000000 0.000000 0.000000
vn -1.000000 0.000000 0.000000
vn -1.000000 0.000000 0.000000
vn -1.000000 0.000000 -0.000000
vn -1.000000 -0.000000 0.000000
vn -1.000000 -0.000000 0.000000
vn -1.000000 -0.000000 0.000000
vn -1.000000 -0.000000 0.000000
vn -1.000000 -0.000000 0.000000
vn -1.000000 -0.000000 0.000000
vn -1.000000 0.000000 0.000000
vn -1.000000 0.000000 0.000000
vn -1.000000 0.000000 0.000000
vn -1.000000 0.000000 0.000000
vn -1.000000 0.000000 0.000000
vn -1.000000 0.000000 0.000000
vn -1.000000 0.000000 0.000000
vn -1.000000 0.000000 0.000000
vn -1.000000 0.000000 0.000000
vn -1.000000 0.000000 0.000000
vn -1.000000 0.000000 0.000001
vn -1.000000 0.000000 0.000000
vn -1.000000 0.000000 0.000000
vn -1.000000 0.000000 0.000001
vn -1.000000 0.000000 0.000000
vn -1.000000 0.000000 0.000000
vn -1.000000 0.000000 0.000000
vn -1.000000 0.000000 0.000000
vn -1.000000 0.000000 0.000000
vn -1.000000 0.000000 0.000000
vn -1.000000 0.000000 0.000000
vn -1.000000 0.000000 0.000000
vn -1.000000 0.000000 0.000000
vn -1.000000 0.000000 0.000000
vn -1.000000 0.000000 0.000000
vn -1.000000 -0.000000 0.000000
vn -1.000000 -0.000000 0.000000
vn -1.000000 -0.000000 0.000000
vn -1.000000 -0.000000 0.000000
vn -1.000000 -0.000000 0.000000
vn -1.000000 0.000000 0.000000
vn -1.000000 0.000000 0.000000
vn -1.000000 0.000000 0.000000
vn -1.000000 0.000000 0.000000
vn -1.000000 0.000000 0.000000
vn -1.000000 0.000000 0.000000
vn -1.000000 0.000000 0.000000
vn -1.000000 -0.000000 0.000000
vn -1.000000 -0.000000 0.000000
vn -1.000000 -0.000000 0.000000
vn -1.000000 0.000000 0.000000
vn -1.000000 0.000000 0.000000
vn -1.000000 0.000000 0.000000
vn -1.000000 0.000000 0.000000
vn -1.000000 0.000000 0.000000
vn -1.000000 0.000000 0.000000
vn -1.000000 0.000000 0.000000
vn -1.000000 -0.000000 0.000000
vn -1.000000 -0.000000 0.000000
vn -1.000000 -0.000000 0.000000
vn -1.000000 0.000000 0.000000
vn -1.000000 0.000000 0.000000
vn -1.000000 0.000000 0.000000
vn -1.000000 0.000000 0.000000
vn -1.000000 0.000000 0.000000
vn -1.000000 0.000000 0.000000
vn -1.000000 0.000000 0.000000
vn -1.000000 -0.000000 0.000000
vn -1.000000 -0.000000 0.000000
vn -1.000000 -0.000000 0.000000
vn -1.000000 0.000000 0.000000
vn -1.000000 0.000000 0.000000
vn -1.000000 0.000000 0.000000
vn -1.000000 0.000000 0.000000
vn -1.000000 0.000000 0.000000
vn -1.000000 0.000000 0.000000
vn -1.000000 0.000000 0.000000
vn -1.000000 -0.000000 0.000000
vn -1.000000 -0.000000 0.000000
vn -1.000000 -0.000000 0.000000
vn -1.000000 0.000000 0.000000
vn -1.000000 0.000000 0.000000
vn -1.000000 0.000000 0.000000
vn -1.000000 0.000000 0.000000
vn -1.000000 0.000000 0.000000
vn -1.000000 0.000000 0.000000
vn -1.000000 0.000000 0.000000
vn -1.000000 -0.000000 0.000000
vn -1.000000 -0.000000 0.000000
vn -1.000000 -0.000000 0.000000
vn -1.000000 0.000000 0.000000
vn -1.000000 0.000000 0.000000
vn -1.000000 0.000000 0.000000
vn -1.000000 0.000000 0.000000
vn -1.000000 0.000000 0.000000
vn -1.000000 0.000000 0.000000
vn -1.000000 0.000000 0.000000
vn -1.000000 -0.000000 0.000000
vn -1.000000 -0.000000 0.000000
vn -1.000000 -0.000000 0.000000
s 1
g painting1
usemtl lambert2SG
f 1/1/1 24/4/2 23/3/3 2/2/4
s 2
f 3/5/5 14/8/6 13/7/7 4/6/8
s 3
f 25/9/9 7/12/10 8/11/11 26/10/12
s 4
f 15/13/13 1/1/14 2/2/15 16/14/16
s 5
f 2/2/17 23/3/18 28/15/19 16/14/20
s 2
f 10/16/21 5/19/22 6/18/23 9/17/24
s 4
f 7/12/25 11/21/26 12/20/27 8/11/28
s 5
f 27/22/29 26/10/30 8/11/31 12/20/32
s 2
f 14/8/6 10/16/21 9/17/24 13/7/7
s 4
f 11/21/26 15/13/13 16/14/16 12/20/27
s 5
f 28/15/19 27/22/29 12/20/32 16/14/20
s 1
f 18/23/33 3/5/34 4/6/35 17/24/36
s 3
f 5/19/37 19/26/38 20/25/39 6/18/40
s 5
f 9/17/41 6/18/42 20/25/43 21/27/44
f 13/7/45 9/17/41 21/27/44 22/28/46
f 17/24/47 4/6/48 13/7/45 22/28/46
s 1
f 24/4/2 18/23/33 17/24/36 23/3/3
s 3
f 19/26/38 25/9/9 26/10/12 20/25/39
s 5
f 21/27/44 20/25/43 26/10/30 27/22/29
f 23/3/18 17/24/47 22/28/46 28/15/19
s 7
f 119/29/49 120/30/50 48/31/51 32/32/52
f 127/33/53 128/34/54 31/35/55 34/36/56
f 126/37/57 127/33/53 34/36/56 36/38/58
f 125/39/59 126/37/57 36/38/58 38/40/60
f 124/41/61 125/39/59 38/40/60 40/42/62
f 123/43/63 124/41/61 40/42/62 42/44/64
f 122/45/65 123/43/63 42/44/64 44/46/66
f 121/47/67 122/45/65 44/46/66 46/48/68
f 120/30/50 121/47/67 46/48/68 48/31/51
f 29/49/69 47/50/70 50/51/71 49/52/72
f 47/50/70 45/53/73 51/54/74 50/51/71
f 45/53/73 43/55/75 52/56/76 51/54/74
f 43/55/75 41/57/77 53/58/78 52/56/76
f 41/57/77 39/59/79 54/60/80 53/58/78
f 39/59/79 37/61/81 55/62/82 54/60/80
f 37/61/81 35/63/83 56/64/84 55/62/82
f 35/63/83 33/65/85 57/66/86 56/64/84
f 33/65/85 30/67/87 58/68/88 57/66/86
f 49/52/72 50/51/71 60/69/89 59/70/90
f 50/51/71 51/54/74 61/71/91 60/69/89
f 51/54/74 52/56/76 62/72/92 61/71/91
f 52/56/76 53/58/78 63/73/93 62/72/92
f 53/58/78 54/60/80 64/74/94 63/73/93
f 54/60/80 55/62/82 65/75/95 64/74/94
f 55/62/82 56/64/84 66/76/96 65/75/95
f 56/64/84 57/66/86 67/77/97 66/76/96
f 57/66/86 58/68/88 68/78/98 67/77/97
f 59/70/90 60/69/89 70/79/99 69/80/100
f 60/69/89 61/71/91 71/81/101 70/79/99
f 61/71/91 62/72/92 72/82/102 71/81/101
f 62/72/92 63/73/93 73/83/103 72/82/102
f 63/73/93 64/74/94 74/84/104 73/83/103
f 64/74/94 65/75/95 75/85/105 74/84/104
f 65/75/95 66/76/96 76/86/106 75/85/105
f 66/76/96 67/77/97 77/87/107 76/86/106
f 67/77/97 68/78/98 78/88/108 77/87/107
f 69/80/100 70/79/99 80/89/109 79/90/110
f 70/79/99 71/81/101 81/91/111 80/89/109
f 71/81/101 72/82/102 82/92/112 81/91/111
f 72/82/102 73/83/103 83/93/113 82/92/112
f 73/83/103 74/84/104 84/94/114 83/93/113
f 74/84/104 75/85/105 85/95/115 84/94/114
f 75/85/105 76/86/106 86/96/116 85/95/115
f 76/86/106 77/87/107 87/97/117 86/96/116
f 77/87/107 78/88/108 88/98/118 87/97/117
f 79/90/110 80/89/109 90/99/119 89/100/120
f 80/89/109 81/91/111 91/101/121 90/99/119
f 81/91/111 82/92/112 92/102/122 91/101/121
f 82/92/112 83/93/113 93/103/123 92/102/122
f 83/93/113 84/94/114 94/104/124 93/103/123
f 84/94/114 85/95/115 95/105/125 94/104/124
f 85/95/115 86/96/116 96/106/126 95/105/125
f 86/96/116 87/97/117 97/107/127 96/106/126
f 87/97/117 88/98/118 98/108/128 97/107/127
f 89/100/120 90/99/119 100/109/129 99/110/130
f 90/99/119 91/101/121 101/111/131 100/109/129
f 91/101/121 92/102/122 102/112/132 101/111/131
f 92/102/122 93/103/123 103/113/133 102/112/132
f 93/103/123 94/104/124 104/114/134 103/113/133
f 94/104/124 95/105/125 105/115/135 104/114/134
f 95/105/125 96/106/126 106/116/136 105/115/135
f 96/106/126 97/107/127 107/117/137 106/116/136
f 97/107/127 98/108/128 108/118/138 107/117/137
f 99/110/130 100/109/129 110/119/139 109/120/140
f 100/109/129 101/111/131 111/121/141 110/119/139
f 101/111/131 102/112/132 112/122/142 111/121/141
f 102/112/132 103/113/133 113/123/143 112/122/142
f 103/113/133 104/114/134 114/124/144 113/123/143
f 104/114/134 105/115/135 115/125/145 114/124/144
f 105/115/135 106/116/136 116/126/146 115/125/145
f 106/116/136 107/117/137 117/127/147 116/126/146
f 107/117/137 108/118/138 118/128/148 117/127/147
f 109/120/140 110/119/139 120/30/50 119/29/49
f 110/119/139 111/121/141 121/47/67 120/30/50
f 111/121/141 112/122/142 122/45/65 121/47/67
f 112/122/142 113/123/143 123/43/63 122/45/65
f 113/123/143 114/124/144 124/41/61 123/43/63
f 114/124/144 115/125/145 125/39/59 124/41/61
f 115/125/145 116/126/146 126/37/57 125/39/59
f 116/126/146 117/127/147 127/33/53 126/37/57
f 117/127/147 118/128/148 128/34/54 127/33/53
