# This file uses centimeters as units for non-parametric coordinates.

mtllib Vase.mtl
g default
v 0.281618 0.000000 -0.764296
v -0.632176 0.000000 -0.467386
v -0.632176 0.000000 0.493434
v 0.281618 0.000000 0.790344
v 0.846374 0.000000 0.013024
v 0.349569 0.644286 -1.066953
v -0.920020 0.644286 -0.654438
v -0.920020 0.644286 0.680486
v 0.349569 0.644286 1.093000
v 1.134217 0.644286 0.013024
v 0.029052 0.000000 0.013024
v 0.349569 1.326352 -1.066953
v -0.920020 1.326352 -0.654438
v -0.920020 1.326352 0.680486
v 0.349569 1.326352 1.093000
v 1.134217 1.326352 0.013024
v 0.263656 1.824700 -0.684292
v -0.556088 1.824700 -0.417941
v -0.556088 1.824700 0.443989
v 0.263656 1.824700 0.710340
v 0.770286 1.824700 0.013024
v 0.284568 2.201162 -0.777435
v -0.644673 2.201162 -0.475506
v -0.644673 2.201162 0.501555
v 0.284568 2.201162 0.803483
v 0.858871 2.201162 0.013024
v 0.240201 2.201162 -0.579820
v -0.456730 2.201162 -0.353374
v -0.456730 2.201162 0.379422
v 0.240201 2.201162 0.605868
v 0.670928 2.201162 0.013024
v 0.240201 0.336342 -0.579820
v -0.456730 0.336342 -0.353374
v -0.456730 0.336342 0.379422
v 0.240201 0.336342 0.605868
v 0.670928 0.336342 0.013024
vt 0.867051 0.594412
vt 0.242741 0.058701
vt 0.355622 0.155502
vt 0.979841 0.691109
vt 0.403125 0.198137
vt 0.515814 0.294940
vt 0.468289 0.386301
vt 0.311727 0.251801
vt 0.708315 0.466105
vt 0.822088 0.563186
vt 0.980561 0.365491
vt 0.065060 0.277252
vt 0.940385 0.789887
vt 0.399603 0.466317
vt 0.243033 0.331827
vt 0.783674 0.655547
vt 0.154890 0.117314
vt 0.086204 0.197330
vt 0.327425 0.504894
vt 0.226334 0.418053
vt 0.625597 0.520674
vt 0.166324 0.364091
vt 0.871694 0.869909
vt 0.294854 0.553916
vt 0.180260 0.455476
vt 0.714994 0.735556
vt 0.733334 0.445820
vt 0.801665 0.235516
vt 0.980561 0.105541
vt 0.733334 0.025212
vt 0.580539 0.235516
vt 0.556294 0.334276
vt 0.669524 0.430985
vt 0.759265 0.950362
vt 0.020081 0.316194
vt 0.556929 0.600669
vt 0.134870 0.414631
vt 0.480283 0.641261
vt 0.378708 0.554506
vt 0.448826 0.689761
vt 0.333682 0.591418
vt 0.688172 0.812314
vt 0.631394 0.772750
vt 0.529331 0.685661
vt 0.601632 0.822074
vt 0.485935 0.723352
vt 0.644569 0.852031
vt 0.789353 0.899058
vt 0.461762 0.443744
vt 0.577188 0.443744
vt 0.577188 0.559170
vt 0.461762 0.559170
vt 0.464505 0.442177
vt 0.579930 0.442177
vt 0.579930 0.557603
vt 0.464505 0.557603
vt 0.464897 0.440610
vt 0.580322 0.440610
vt 0.580322 0.556036
vt 0.464897 0.556036
vt 0.463329 0.442569
vt 0.578755 0.442569
vt 0.578755 0.557995
vt 0.463329 0.557995
vt 0.465288 0.442177
vt 0.580714 0.442177
vt 0.580714 0.557603
vt 0.465288 0.557603
vt 0.465680 0.442569
vt 0.581106 0.442569
vt 0.581106 0.557995
vt 0.465680 0.557995
vt 0.464897 0.442177
vt 0.580322 0.442177
vt 0.580322 0.557603
vt 0.464897 0.557603
vt 0.464113 0.441394
vt 0.579539 0.441394
vt 0.579539 0.556819
vt 0.464113 0.556819
vt 0.459019 0.443353
vt 0.574445 0.443353
vt 0.574445 0.558778
vt 0.459019 0.558778
vt 0.459803 0.443353
vt 0.575229 0.443353
vt 0.575229 0.558778
vt 0.459803 0.558778
vn -0.285499 -0.382652 -0.878674
vn -0.285499 -0.382652 -0.878674
vn -0.303080 -0.195073 -0.932785
vn -0.303080 -0.195073 -0.932785
vn -0.913024 -0.407906 -0.000000
vn -0.913024 -0.407906 -0.000000
vn -0.978014 -0.208538 -0.000000
vn -0.978014 -0.208538 -0.000000
vn -0.285499 -0.382652 0.878674
vn -0.285499 -0.382652 0.878674
vn -0.303080 -0.195073 0.932785
vn -0.303080 -0.195073 0.932785
vn 0.760844 -0.339918 0.552786
vn 0.760844 -0.339918 0.552786
vn 0.796883 -0.172547 0.578969
vn 0.796883 -0.172547 0.578969
vn 0.760844 -0.339918 -0.552786
vn 0.760844 -0.339918 -0.552786
vn 0.796883 -0.172547 -0.578969
vn 0.796883 -0.172547 -0.578969
vn 0.000000 -1.000000 -0.000000
vn 0.000000 -1.000000 -0.000000
vn 0.000000 -1.000000 -0.000000
vn 0.000000 -1.000000 -0.000000
vn 0.000000 -1.000000 -0.000000
vn 0.000000 -1.000000 -0.000000
vn -0.295437 0.293191 -0.909262
vn -0.295437 0.293191 -0.909262
vn -0.950679 0.310177 0.000000
vn -0.950679 0.310177 0.000000
vn -0.295437 0.293191 0.909262
vn -0.295437 0.293191 0.909262
vn 0.780390 0.263661 0.566987
vn 0.780390 0.263661 0.566987
vn 0.780390 0.263661 -0.566987
vn 0.780390 0.263661 -0.566987
vn -0.255890 0.560612 -0.787550
vn -0.255890 0.560612 -0.787550
vn -0.807581 0.589757 0.000000
vn -0.807581 0.589757 0.000000
vn -0.255890 0.560612 0.787550
vn -0.255890 0.560612 0.787550
vn 0.696536 0.508663 0.506063
vn 0.696536 0.508663 0.506063
vn 0.696536 0.508663 -0.506063
vn 0.696536 0.508663 -0.506063
vn -0.301917 -0.213131 -0.929205
vn -0.301917 -0.213131 -0.929205
vn -0.301917 -0.213131 -0.929205
vn -0.301917 -0.213131 -0.929205
vn -0.973414 -0.229052 0.000000
vn -0.973414 -0.229052 0.000000
vn -0.973414 -0.229052 0.000000
vn -0.973414 -0.229052 0.000000
vn -0.301917 -0.213131 0.929205
vn -0.301917 -0.213131 0.929205
vn -0.301917 -0.213131 0.929205
vn -0.301917 -0.213131 0.929205
vn 0.794744 -0.187010 0.577416
vn 0.794744 -0.187010 0.577416
vn 0.794744 -0.187010 0.577416
vn 0.794744 -0.187010 0.577416
vn 0.794744 -0.187010 -0.577416
vn 0.794744 -0.187010 -0.577416
vn 0.794744 -0.187010 -0.577416
vn 0.794744 -0.187010 -0.577416
vn 0.000000 1.000000 -0.000000
vn 0.000000 1.000000 -0.000000
vn 0.000000 1.000000 -0.000000
vn 0.000000 1.000000 -0.000000
vn 0.000000 1.000000 0.000000
vn 0.000000 1.000000 0.000000
vn 0.000000 1.000000 -0.000000
vn 0.000000 1.000000 -0.000000
vn 0.000000 1.000000 -0.000001
vn 0.000000 1.000000 -0.000001
vn 0.309017 0.000000 0.951057
vn 0.309017 0.000000 0.951057
vn 0.309017 0.000000 0.951057
vn 0.309017 0.000000 0.951057
vn 1.000000 0.000000 0.000000
vn 1.000000 0.000000 0.000000
vn 1.000000 0.000000 0.000000
vn 1.000000 0.000000 0.000000
vn 0.309017 0.000000 -0.951057
vn 0.309017 0.000000 -0.951057
vn 0.309017 0.000000 -0.951057
vn 0.309017 0.000000 -0.951057
vn -0.809017 0.000000 -0.587786
vn -0.809017 0.000000 -0.587786
vn -0.809017 0.000000 -0.587786
vn -0.809017 0.000000 -0.587786
vn -0.809017 0.000000 0.587785
vn -0.809017 0.000000 0.587785
vn -0.809017 0.000000 0.587785
vn -0.809017 0.000000 0.587785
s 1
g Vase
usemtl lambert2SG
f 1/1/1 2/4/2 7/13/3 6/16/4
s 2
f 2/2/5 3/3/6 8/8/7 7/17/8
s 3
f 3/5/9 4/6/10 9/7/11 8/8/12
s 4
f 4/32/13 5/33/14 10/21/15 9/7/16
s 5
f 5/9/17 1/10/18 6/16/19 10/21/20
s 6
f 2/11/21 1/27/22 11/28/23
f 3/29/24 2/11/21 11/28/23
f 4/30/25 3/29/24 11/28/23
f 5/31/26 4/30/25 11/28/23
f 1/27/22 5/31/26 11/28/23
s 1
f 6/16/4 7/13/3 13/23/27 12/26/28
s 2
f 7/17/8 8/8/7 14/15/29 13/18/30
s 3
f 8/8/12 9/7/11 15/14/31 14/15/32
s 4
f 9/7/16 10/21/15 16/36/33 15/14/34
s 5
f 10/21/20 6/16/19 12/26/35 16/36/36
s 1
f 12/26/28 13/23/27 18/48/37 17/42/38
s 2
f 13/18/30 14/15/29 19/22/39 18/12/40
s 3
f 14/15/32 15/14/31 20/19/41 19/20/42
s 4
f 15/14/34 16/36/33 21/38/43 20/39/44
s 5
f 16/36/36 12/26/35 17/43/45 21/44/46
s off
f 17/42/47 18/48/48 23/34/49 22/47/50
f 18/12/51 19/22/52 24/37/53 23/35/54
f 19/20/55 20/19/56 25/24/57 24/25/58
f 20/39/59 21/38/60 26/40/61 25/41/62
f 21/44/63 17/43/64 22/45/65 26/46/66
s 7
f 22/49/67 23/50/68 28/51/69 27/52/70
f 23/53/68 24/54/71 29/55/72 28/56/69
f 24/57/71 25/58/73 30/59/74 29/60/72
f 25/61/73 26/62/75 31/63/76 30/64/74
f 26/65/75 22/66/67 27/67/70 31/68/76
s off
f 27/69/77 28/70/78 33/71/79 32/72/80
f 28/73/81 29/74/82 34/75/83 33/76/84
f 29/77/85 30/78/86 35/79/87 34/80/88
f 30/81/89 31/82/90 36/83/91 35/84/92
f 31/85/93 27/86/94 32/87/95 36/88/96
